M48
; DRILL file {KiCad 5.1.7-a382d34a8~88~ubuntu18.04.1} date Fri Dec 11 23:39:10 2020
; FORMAT={-:-/ absolute / metric / decimal}
; #@! TF.CreationDate,2020-12-11T23:39:10-06:00
; #@! TF.GenerationSoftware,Kicad,Pcbnew,5.1.7-a382d34a8~88~ubuntu18.04.1
; #@! TF.FileFunction,NonPlated,1,2,NPTH
FMAT,2
METRIC
T1C1.270
T2C3.000
%
G90
G05
T1
X77.88Y-30.54
X24.27Y-55.6
X80.89Y-37.49
X81.0Y-55.39
X96.0Y-55.39
X85.675Y-101.69
X85.675Y-116.69
X77.91Y-101.68
X77.91Y-116.68
X24.24Y-37.51
X39.24Y-37.51
X80.9Y-73.46
X95.9Y-73.46
X62.88Y-30.54
X39.27Y-55.6
X87.68Y-110.37
X96.68Y-110.37
X87.63Y-101.62
X96.63Y-101.62
X27.95Y-110.08
X36.95Y-110.08
X24.16Y-73.8
X39.16Y-73.8
X42.29Y-30.51
X57.29Y-30.51
X95.89Y-37.49
T2
X95.0Y-25.0
X95.0Y-115.0
X25.0Y-115.0
X25.0Y-25.0
T0
M30
