M48
; DRILL file {KiCad 5.1.7-a382d34a8~88~ubuntu18.04.1} date Sat Dec 12 14:30:35 2020
; FORMAT={-:-/ absolute / metric / decimal}
; #@! TF.CreationDate,2020-12-12T14:30:35-06:00
; #@! TF.GenerationSoftware,Kicad,Pcbnew,5.1.7-a382d34a8~88~ubuntu18.04.1
; #@! TF.FileFunction,Plated,1,2,PTH
FMAT,2
METRIC
T1C0.400
T2C0.500
T3C1.000
T4C1.020
T5C1.100
T6C1.600
%
G90
G05
T1
X24.68Y-78.99
X24.79Y-60.83
X24.84Y-42.74
X33.995Y-46.365
X34.24Y-64.6
X34.55Y-82.81
X35.39Y-117.29
X42.1Y-117.27
X42.82Y-35.68
X43.6Y-56.87
X44.04Y-79.36
X44.64Y-46.37
X45.46Y-64.55
X45.49Y-58.21
X45.56Y-70.65
X45.56Y-75.79
X45.59Y-55.67
X46.51Y-42.6
X46.51Y-51.6
X46.51Y-87.72
X46.53Y-69.66
X47.5Y-50.51
X47.5Y-68.53
X47.5Y-86.58
X47.54Y-41.56
X48.53Y-49.59
X48.53Y-67.56
X48.53Y-85.64
X48.55Y-43.55
X50.56Y-44.61
X50.56Y-47.53
X50.56Y-65.58
X50.56Y-83.65
X58.03Y-115.73
X58.1Y-114.3
X62.03Y-113.05
X62.13Y-110.47
X62.13Y-111.77
X62.27Y-107.38
X62.3Y-104.44
X62.39Y-73.49
X63.51Y-53.11
X64.6Y-40.82
X64.63Y-46.91
X66.54Y-102.68
X68.9Y-109.11
X69.25Y-42.6
X69.25Y-47.44
X69.25Y-65.51
X69.25Y-83.43
X69.585Y-41.555
X70.27Y-48.44
X70.27Y-66.46
X70.27Y-84.43
X71.28Y-43.54
X71.28Y-49.45
X71.28Y-67.52
X71.28Y-85.48
X73.3Y-44.61
X73.3Y-51.39
X73.3Y-60.75
X73.3Y-69.46
X73.3Y-87.41
X73.97Y-76.75
X74.2Y-54.64
X76.1Y-80.33
X76.4Y-58.23
X87.222Y-93.873
T2
X24.67Y-77.06
X24.67Y-80.3
X24.67Y-81.34
X24.77Y-40.83
X24.77Y-44.07
X24.77Y-45.02
X24.77Y-58.87
X24.77Y-62.11
X24.77Y-63.08
X26.85Y-74.37
X26.95Y-38.14
X26.95Y-56.18
X28.4Y-82.94
X28.5Y-46.71
X28.5Y-64.75
X29.42Y-82.95
X29.52Y-46.72
X29.52Y-64.76
X30.43Y-82.96
X30.53Y-46.73
X30.53Y-64.77
X31.44Y-82.96
X31.54Y-46.73
X31.54Y-64.77
X31.69Y-79.01
X31.72Y-77.7
X31.79Y-42.78
X31.79Y-60.82
X31.82Y-41.47
X31.82Y-59.51
X32.44Y-82.95
X32.54Y-46.72
X32.54Y-64.76
X33.84Y-74.36
X33.94Y-38.13
X33.94Y-56.17
X35.4Y-111.84
X36.08Y-76.39
X36.18Y-40.16
X36.18Y-58.2
X36.84Y-81.92
X36.85Y-77.44
X36.94Y-45.69
X36.94Y-63.73
X36.95Y-41.21
X36.95Y-59.25
X42.08Y-111.86
X42.78Y-37.98
X42.79Y-33.75
X42.79Y-36.99
X43.58Y-62.33
X44.03Y-73.98
X44.97Y-31.06
X45.83Y-108.8
X45.91Y-106.28
X46.52Y-39.63
X47.54Y-39.64
X47.55Y-112.26
X47.6Y-102.74
X48.55Y-39.65
X48.57Y-115.55
X49.54Y-45.57
X49.54Y-48.5
X49.54Y-66.51
X49.54Y-84.61
X49.56Y-39.65
X49.81Y-35.7
X49.84Y-34.39
X50.56Y-39.64
X51.96Y-31.05
X52.85Y-104.11
X52.85Y-105.4
X54.2Y-33.08
X54.96Y-38.61
X54.97Y-34.13
X56.0Y-76.02
X63.39Y-33.79
X63.39Y-37.03
X63.39Y-38.01
X65.57Y-31.1
X67.12Y-39.67
X68.14Y-39.68
X69.15Y-39.69
X70.16Y-39.69
X70.41Y-35.74
X70.44Y-34.43
X71.16Y-39.68
X72.27Y-86.35
X72.28Y-45.57
X72.28Y-50.34
X72.28Y-68.38
X72.56Y-31.09
X74.8Y-33.12
X75.56Y-38.65
X75.57Y-34.17
X76.09Y-74.95
X76.33Y-52.87
X81.4Y-40.75
X81.4Y-43.99
X81.4Y-44.96
X81.45Y-76.76
X81.45Y-80.0
X81.45Y-80.99
X81.51Y-58.66
X81.51Y-61.9
X81.51Y-62.89
X83.58Y-38.06
X83.63Y-74.07
X83.69Y-55.97
X83.71Y-90.5
X83.73Y-86.36
X85.13Y-46.63
X85.18Y-82.64
X85.24Y-64.54
X86.15Y-46.64
X86.2Y-82.65
X86.26Y-64.55
X87.16Y-46.65
X87.21Y-82.66
X87.27Y-64.56
X88.17Y-46.65
X88.22Y-82.66
X88.28Y-64.56
X88.42Y-42.7
X88.45Y-41.39
X88.47Y-78.71
X88.5Y-77.4
X88.53Y-60.61
X88.56Y-59.3
X89.17Y-46.64
X89.22Y-82.65
X89.28Y-64.55
X90.57Y-38.05
X90.62Y-74.06
X90.68Y-55.96
X92.81Y-40.08
X92.86Y-76.09
X92.92Y-57.99
X93.57Y-45.61
X93.58Y-41.13
X93.62Y-81.62
X93.63Y-77.14
X93.68Y-63.52
X93.69Y-59.04
T3
X24.8Y-90.81
X27.34Y-90.81
X29.88Y-90.81
X34.96Y-90.81
X37.5Y-90.81
X40.04Y-90.81
X42.58Y-90.81
X69.37Y-112.7
X69.37Y-115.24
T4
X52.38Y-48.055
X52.38Y-50.595
X52.38Y-53.135
X52.38Y-55.675
X52.38Y-58.215
X52.38Y-60.755
X52.38Y-63.295
X52.38Y-65.835
X52.38Y-68.375
X52.38Y-70.915
X52.38Y-73.455
X52.38Y-75.995
X52.38Y-78.535
X52.38Y-81.075
X52.38Y-83.615
X67.62Y-48.055
X67.62Y-50.595
X67.62Y-53.135
X67.62Y-55.675
X67.62Y-58.215
X67.62Y-60.755
X67.62Y-63.295
X67.62Y-65.835
X67.62Y-68.375
X67.62Y-70.915
X67.62Y-73.455
X67.62Y-75.995
X67.62Y-78.535
X67.62Y-81.075
X67.62Y-83.615
X65.88Y-28.58
X68.88Y-28.58
X71.88Y-28.58
X74.88Y-28.58
X83.89Y-35.53
X86.89Y-35.53
X89.89Y-35.53
X92.89Y-35.53
X27.27Y-53.64
X30.27Y-53.64
X33.27Y-53.64
X36.27Y-53.64
X27.16Y-71.84
X30.16Y-71.84
X33.16Y-71.84
X36.16Y-71.84
X30.95Y-108.12
X33.95Y-108.12
X83.9Y-71.5
X86.9Y-71.5
X89.9Y-71.5
X92.9Y-71.5
X45.29Y-28.55
X48.29Y-28.55
X51.29Y-28.55
X54.29Y-28.55
X75.95Y-104.68
X75.95Y-107.68
X75.95Y-110.68
X75.95Y-113.68
X90.68Y-108.41
X93.68Y-108.41
X84.0Y-53.43
X87.0Y-53.43
X90.0Y-53.43
X93.0Y-53.43
X90.63Y-99.66
X93.63Y-99.66
X27.24Y-35.55
X30.24Y-35.55
X33.24Y-35.55
X36.24Y-35.55
X83.715Y-104.69
X83.715Y-107.69
X83.715Y-110.69
X83.715Y-113.69
T5
X90.5Y-86.0
X90.5Y-92.5
X95.0Y-86.0
X95.0Y-92.5
T6
X24.54Y-106.15
X40.85Y-108.92
X33.16Y-101.59
X78.87Y-97.7
X41.88Y-103.3
X48.53Y-97.67
X53.55Y-97.7
X83.92Y-97.72
X63.68Y-97.67
X68.68Y-97.62
X73.8Y-97.72
X58.58Y-97.72
T0
M30
