G04 #@! TF.GenerationSoftware,KiCad,Pcbnew,(5.1.9)-1*
G04 #@! TF.CreationDate,2021-04-03T20:33:06-05:00*
G04 #@! TF.ProjectId,RTDTemp,52544454-656d-4702-9e6b-696361645f70,1.0.0*
G04 #@! TF.SameCoordinates,Original*
G04 #@! TF.FileFunction,Copper,L1,Top*
G04 #@! TF.FilePolarity,Positive*
%FSLAX46Y46*%
G04 Gerber Fmt 4.6, Leading zero omitted, Abs format (unit mm)*
G04 Created by KiCad (PCBNEW (5.1.9)-1) date 2021-04-03 20:33:06*
%MOMM*%
%LPD*%
G01*
G04 APERTURE LIST*
G04 #@! TA.AperFunction,ComponentPad*
%ADD10R,1.700000X1.700000*%
G04 #@! TD*
G04 #@! TA.AperFunction,ComponentPad*
%ADD11O,1.700000X1.700000*%
G04 #@! TD*
G04 #@! TA.AperFunction,ComponentPad*
%ADD12C,2.800000*%
G04 #@! TD*
G04 #@! TA.AperFunction,ComponentPad*
%ADD13O,2.020000X1.500000*%
G04 #@! TD*
G04 #@! TA.AperFunction,ComponentPad*
%ADD14O,1.500000X2.020000*%
G04 #@! TD*
G04 #@! TA.AperFunction,SMDPad,CuDef*
%ADD15R,0.900000X0.800000*%
G04 #@! TD*
G04 #@! TA.AperFunction,SMDPad,CuDef*
%ADD16R,1.800000X0.650000*%
G04 #@! TD*
G04 #@! TA.AperFunction,ComponentPad*
%ADD17R,1.508000X1.508000*%
G04 #@! TD*
G04 #@! TA.AperFunction,ComponentPad*
%ADD18C,1.508000*%
G04 #@! TD*
G04 #@! TA.AperFunction,ComponentPad*
%ADD19R,1.530000X1.530000*%
G04 #@! TD*
G04 #@! TA.AperFunction,ComponentPad*
%ADD20C,1.530000*%
G04 #@! TD*
G04 #@! TA.AperFunction,ComponentPad*
%ADD21C,2.000000*%
G04 #@! TD*
G04 #@! TA.AperFunction,ViaPad*
%ADD22C,0.700000*%
G04 #@! TD*
G04 #@! TA.AperFunction,ViaPad*
%ADD23C,0.600000*%
G04 #@! TD*
G04 #@! TA.AperFunction,Conductor*
%ADD24C,0.500000*%
G04 #@! TD*
G04 #@! TA.AperFunction,Conductor*
%ADD25C,1.500000*%
G04 #@! TD*
G04 #@! TA.AperFunction,Conductor*
%ADD26C,0.250000*%
G04 #@! TD*
G04 APERTURE END LIST*
G04 #@! TA.AperFunction,SMDPad,CuDef*
G36*
G01*
X66305000Y-109803750D02*
X66305000Y-110716250D01*
G75*
G02*
X66061250Y-110960000I-243750J0D01*
G01*
X65573750Y-110960000D01*
G75*
G02*
X65330000Y-110716250I0J243750D01*
G01*
X65330000Y-109803750D01*
G75*
G02*
X65573750Y-109560000I243750J0D01*
G01*
X66061250Y-109560000D01*
G75*
G02*
X66305000Y-109803750I0J-243750D01*
G01*
G37*
G04 #@! TD.AperFunction*
G04 #@! TA.AperFunction,SMDPad,CuDef*
G36*
G01*
X64430000Y-109803750D02*
X64430000Y-110716250D01*
G75*
G02*
X64186250Y-110960000I-243750J0D01*
G01*
X63698750Y-110960000D01*
G75*
G02*
X63455000Y-110716250I0J243750D01*
G01*
X63455000Y-109803750D01*
G75*
G02*
X63698750Y-109560000I243750J0D01*
G01*
X64186250Y-109560000D01*
G75*
G02*
X64430000Y-109803750I0J-243750D01*
G01*
G37*
G04 #@! TD.AperFunction*
D10*
X69370000Y-115240000D03*
D11*
X69370000Y-112700000D03*
D12*
X78870000Y-97700000D03*
G04 #@! TA.AperFunction,SMDPad,CuDef*
G36*
G01*
X68387500Y-104926250D02*
X68387500Y-104013750D01*
G75*
G02*
X68631250Y-103770000I243750J0D01*
G01*
X69118750Y-103770000D01*
G75*
G02*
X69362500Y-104013750I0J-243750D01*
G01*
X69362500Y-104926250D01*
G75*
G02*
X69118750Y-105170000I-243750J0D01*
G01*
X68631250Y-105170000D01*
G75*
G02*
X68387500Y-104926250I0J243750D01*
G01*
G37*
G04 #@! TD.AperFunction*
G04 #@! TA.AperFunction,SMDPad,CuDef*
G36*
G01*
X66512500Y-104926250D02*
X66512500Y-104013750D01*
G75*
G02*
X66756250Y-103770000I243750J0D01*
G01*
X67243750Y-103770000D01*
G75*
G02*
X67487500Y-104013750I0J-243750D01*
G01*
X67487500Y-104926250D01*
G75*
G02*
X67243750Y-105170000I-243750J0D01*
G01*
X66756250Y-105170000D01*
G75*
G02*
X66512500Y-104926250I0J243750D01*
G01*
G37*
G04 #@! TD.AperFunction*
G04 #@! TA.AperFunction,ComponentPad*
G36*
G01*
X75190000Y-103930000D02*
X76710000Y-103930000D01*
G75*
G02*
X76960000Y-104180000I0J-250000D01*
G01*
X76960000Y-105180000D01*
G75*
G02*
X76710000Y-105430000I-250000J0D01*
G01*
X75190000Y-105430000D01*
G75*
G02*
X74940000Y-105180000I0J250000D01*
G01*
X74940000Y-104180000D01*
G75*
G02*
X75190000Y-103930000I250000J0D01*
G01*
G37*
G04 #@! TD.AperFunction*
D13*
X75950000Y-107680000D03*
X75950000Y-110680000D03*
X75950000Y-113680000D03*
G04 #@! TA.AperFunction,ComponentPad*
G36*
G01*
X82955000Y-103940000D02*
X84475000Y-103940000D01*
G75*
G02*
X84725000Y-104190000I0J-250000D01*
G01*
X84725000Y-105190000D01*
G75*
G02*
X84475000Y-105440000I-250000J0D01*
G01*
X82955000Y-105440000D01*
G75*
G02*
X82705000Y-105190000I0J250000D01*
G01*
X82705000Y-104190000D01*
G75*
G02*
X82955000Y-103940000I250000J0D01*
G01*
G37*
G04 #@! TD.AperFunction*
X83715000Y-107690000D03*
X83715000Y-110690000D03*
X83715000Y-113690000D03*
G04 #@! TA.AperFunction,SMDPad,CuDef*
G36*
G01*
X45860000Y-38170000D02*
X45860000Y-38420000D01*
G75*
G02*
X45735000Y-38545000I-125000J0D01*
G01*
X44085000Y-38545000D01*
G75*
G02*
X43960000Y-38420000I0J125000D01*
G01*
X43960000Y-38170000D01*
G75*
G02*
X44085000Y-38045000I125000J0D01*
G01*
X45735000Y-38045000D01*
G75*
G02*
X45860000Y-38170000I0J-125000D01*
G01*
G37*
G04 #@! TD.AperFunction*
G04 #@! TA.AperFunction,SMDPad,CuDef*
G36*
G01*
X45860000Y-37520000D02*
X45860000Y-37770000D01*
G75*
G02*
X45735000Y-37895000I-125000J0D01*
G01*
X44085000Y-37895000D01*
G75*
G02*
X43960000Y-37770000I0J125000D01*
G01*
X43960000Y-37520000D01*
G75*
G02*
X44085000Y-37395000I125000J0D01*
G01*
X45735000Y-37395000D01*
G75*
G02*
X45860000Y-37520000I0J-125000D01*
G01*
G37*
G04 #@! TD.AperFunction*
G04 #@! TA.AperFunction,SMDPad,CuDef*
G36*
G01*
X45860000Y-36870000D02*
X45860000Y-37120000D01*
G75*
G02*
X45735000Y-37245000I-125000J0D01*
G01*
X44085000Y-37245000D01*
G75*
G02*
X43960000Y-37120000I0J125000D01*
G01*
X43960000Y-36870000D01*
G75*
G02*
X44085000Y-36745000I125000J0D01*
G01*
X45735000Y-36745000D01*
G75*
G02*
X45860000Y-36870000I0J-125000D01*
G01*
G37*
G04 #@! TD.AperFunction*
G04 #@! TA.AperFunction,SMDPad,CuDef*
G36*
G01*
X45860000Y-36220000D02*
X45860000Y-36470000D01*
G75*
G02*
X45735000Y-36595000I-125000J0D01*
G01*
X44085000Y-36595000D01*
G75*
G02*
X43960000Y-36470000I0J125000D01*
G01*
X43960000Y-36220000D01*
G75*
G02*
X44085000Y-36095000I125000J0D01*
G01*
X45735000Y-36095000D01*
G75*
G02*
X45860000Y-36220000I0J-125000D01*
G01*
G37*
G04 #@! TD.AperFunction*
G04 #@! TA.AperFunction,SMDPad,CuDef*
G36*
G01*
X45860000Y-35570000D02*
X45860000Y-35820000D01*
G75*
G02*
X45735000Y-35945000I-125000J0D01*
G01*
X44085000Y-35945000D01*
G75*
G02*
X43960000Y-35820000I0J125000D01*
G01*
X43960000Y-35570000D01*
G75*
G02*
X44085000Y-35445000I125000J0D01*
G01*
X45735000Y-35445000D01*
G75*
G02*
X45860000Y-35570000I0J-125000D01*
G01*
G37*
G04 #@! TD.AperFunction*
G04 #@! TA.AperFunction,SMDPad,CuDef*
G36*
G01*
X45860000Y-34920000D02*
X45860000Y-35170000D01*
G75*
G02*
X45735000Y-35295000I-125000J0D01*
G01*
X44085000Y-35295000D01*
G75*
G02*
X43960000Y-35170000I0J125000D01*
G01*
X43960000Y-34920000D01*
G75*
G02*
X44085000Y-34795000I125000J0D01*
G01*
X45735000Y-34795000D01*
G75*
G02*
X45860000Y-34920000I0J-125000D01*
G01*
G37*
G04 #@! TD.AperFunction*
G04 #@! TA.AperFunction,SMDPad,CuDef*
G36*
G01*
X45860000Y-34270000D02*
X45860000Y-34520000D01*
G75*
G02*
X45735000Y-34645000I-125000J0D01*
G01*
X44085000Y-34645000D01*
G75*
G02*
X43960000Y-34520000I0J125000D01*
G01*
X43960000Y-34270000D01*
G75*
G02*
X44085000Y-34145000I125000J0D01*
G01*
X45735000Y-34145000D01*
G75*
G02*
X45860000Y-34270000I0J-125000D01*
G01*
G37*
G04 #@! TD.AperFunction*
G04 #@! TA.AperFunction,SMDPad,CuDef*
G36*
G01*
X45860000Y-33620000D02*
X45860000Y-33870000D01*
G75*
G02*
X45735000Y-33995000I-125000J0D01*
G01*
X44085000Y-33995000D01*
G75*
G02*
X43960000Y-33870000I0J125000D01*
G01*
X43960000Y-33620000D01*
G75*
G02*
X44085000Y-33495000I125000J0D01*
G01*
X45735000Y-33495000D01*
G75*
G02*
X45860000Y-33620000I0J-125000D01*
G01*
G37*
G04 #@! TD.AperFunction*
G04 #@! TA.AperFunction,SMDPad,CuDef*
G36*
G01*
X45860000Y-32970000D02*
X45860000Y-33220000D01*
G75*
G02*
X45735000Y-33345000I-125000J0D01*
G01*
X44085000Y-33345000D01*
G75*
G02*
X43960000Y-33220000I0J125000D01*
G01*
X43960000Y-32970000D01*
G75*
G02*
X44085000Y-32845000I125000J0D01*
G01*
X45735000Y-32845000D01*
G75*
G02*
X45860000Y-32970000I0J-125000D01*
G01*
G37*
G04 #@! TD.AperFunction*
G04 #@! TA.AperFunction,SMDPad,CuDef*
G36*
G01*
X45860000Y-32320000D02*
X45860000Y-32570000D01*
G75*
G02*
X45735000Y-32695000I-125000J0D01*
G01*
X44085000Y-32695000D01*
G75*
G02*
X43960000Y-32570000I0J125000D01*
G01*
X43960000Y-32320000D01*
G75*
G02*
X44085000Y-32195000I125000J0D01*
G01*
X45735000Y-32195000D01*
G75*
G02*
X45860000Y-32320000I0J-125000D01*
G01*
G37*
G04 #@! TD.AperFunction*
G04 #@! TA.AperFunction,SMDPad,CuDef*
G36*
G01*
X52860000Y-32320000D02*
X52860000Y-32570000D01*
G75*
G02*
X52735000Y-32695000I-125000J0D01*
G01*
X51085000Y-32695000D01*
G75*
G02*
X50960000Y-32570000I0J125000D01*
G01*
X50960000Y-32320000D01*
G75*
G02*
X51085000Y-32195000I125000J0D01*
G01*
X52735000Y-32195000D01*
G75*
G02*
X52860000Y-32320000I0J-125000D01*
G01*
G37*
G04 #@! TD.AperFunction*
G04 #@! TA.AperFunction,SMDPad,CuDef*
G36*
G01*
X52860000Y-32970000D02*
X52860000Y-33220000D01*
G75*
G02*
X52735000Y-33345000I-125000J0D01*
G01*
X51085000Y-33345000D01*
G75*
G02*
X50960000Y-33220000I0J125000D01*
G01*
X50960000Y-32970000D01*
G75*
G02*
X51085000Y-32845000I125000J0D01*
G01*
X52735000Y-32845000D01*
G75*
G02*
X52860000Y-32970000I0J-125000D01*
G01*
G37*
G04 #@! TD.AperFunction*
G04 #@! TA.AperFunction,SMDPad,CuDef*
G36*
G01*
X52860000Y-33620000D02*
X52860000Y-33870000D01*
G75*
G02*
X52735000Y-33995000I-125000J0D01*
G01*
X51085000Y-33995000D01*
G75*
G02*
X50960000Y-33870000I0J125000D01*
G01*
X50960000Y-33620000D01*
G75*
G02*
X51085000Y-33495000I125000J0D01*
G01*
X52735000Y-33495000D01*
G75*
G02*
X52860000Y-33620000I0J-125000D01*
G01*
G37*
G04 #@! TD.AperFunction*
G04 #@! TA.AperFunction,SMDPad,CuDef*
G36*
G01*
X52860000Y-34270000D02*
X52860000Y-34520000D01*
G75*
G02*
X52735000Y-34645000I-125000J0D01*
G01*
X51085000Y-34645000D01*
G75*
G02*
X50960000Y-34520000I0J125000D01*
G01*
X50960000Y-34270000D01*
G75*
G02*
X51085000Y-34145000I125000J0D01*
G01*
X52735000Y-34145000D01*
G75*
G02*
X52860000Y-34270000I0J-125000D01*
G01*
G37*
G04 #@! TD.AperFunction*
G04 #@! TA.AperFunction,SMDPad,CuDef*
G36*
G01*
X52860000Y-34920000D02*
X52860000Y-35170000D01*
G75*
G02*
X52735000Y-35295000I-125000J0D01*
G01*
X51085000Y-35295000D01*
G75*
G02*
X50960000Y-35170000I0J125000D01*
G01*
X50960000Y-34920000D01*
G75*
G02*
X51085000Y-34795000I125000J0D01*
G01*
X52735000Y-34795000D01*
G75*
G02*
X52860000Y-34920000I0J-125000D01*
G01*
G37*
G04 #@! TD.AperFunction*
G04 #@! TA.AperFunction,SMDPad,CuDef*
G36*
G01*
X52860000Y-35570000D02*
X52860000Y-35820000D01*
G75*
G02*
X52735000Y-35945000I-125000J0D01*
G01*
X51085000Y-35945000D01*
G75*
G02*
X50960000Y-35820000I0J125000D01*
G01*
X50960000Y-35570000D01*
G75*
G02*
X51085000Y-35445000I125000J0D01*
G01*
X52735000Y-35445000D01*
G75*
G02*
X52860000Y-35570000I0J-125000D01*
G01*
G37*
G04 #@! TD.AperFunction*
G04 #@! TA.AperFunction,SMDPad,CuDef*
G36*
G01*
X52860000Y-36220000D02*
X52860000Y-36470000D01*
G75*
G02*
X52735000Y-36595000I-125000J0D01*
G01*
X51085000Y-36595000D01*
G75*
G02*
X50960000Y-36470000I0J125000D01*
G01*
X50960000Y-36220000D01*
G75*
G02*
X51085000Y-36095000I125000J0D01*
G01*
X52735000Y-36095000D01*
G75*
G02*
X52860000Y-36220000I0J-125000D01*
G01*
G37*
G04 #@! TD.AperFunction*
G04 #@! TA.AperFunction,SMDPad,CuDef*
G36*
G01*
X52860000Y-36870000D02*
X52860000Y-37120000D01*
G75*
G02*
X52735000Y-37245000I-125000J0D01*
G01*
X51085000Y-37245000D01*
G75*
G02*
X50960000Y-37120000I0J125000D01*
G01*
X50960000Y-36870000D01*
G75*
G02*
X51085000Y-36745000I125000J0D01*
G01*
X52735000Y-36745000D01*
G75*
G02*
X52860000Y-36870000I0J-125000D01*
G01*
G37*
G04 #@! TD.AperFunction*
G04 #@! TA.AperFunction,SMDPad,CuDef*
G36*
G01*
X52860000Y-37520000D02*
X52860000Y-37770000D01*
G75*
G02*
X52735000Y-37895000I-125000J0D01*
G01*
X51085000Y-37895000D01*
G75*
G02*
X50960000Y-37770000I0J125000D01*
G01*
X50960000Y-37520000D01*
G75*
G02*
X51085000Y-37395000I125000J0D01*
G01*
X52735000Y-37395000D01*
G75*
G02*
X52860000Y-37520000I0J-125000D01*
G01*
G37*
G04 #@! TD.AperFunction*
G04 #@! TA.AperFunction,SMDPad,CuDef*
G36*
G01*
X52860000Y-38170000D02*
X52860000Y-38420000D01*
G75*
G02*
X52735000Y-38545000I-125000J0D01*
G01*
X51085000Y-38545000D01*
G75*
G02*
X50960000Y-38420000I0J125000D01*
G01*
X50960000Y-38170000D01*
G75*
G02*
X51085000Y-38045000I125000J0D01*
G01*
X52735000Y-38045000D01*
G75*
G02*
X52860000Y-38170000I0J-125000D01*
G01*
G37*
G04 #@! TD.AperFunction*
G04 #@! TA.AperFunction,SMDPad,CuDef*
G36*
G01*
X91530000Y-81140000D02*
X91530000Y-81390000D01*
G75*
G02*
X91405000Y-81515000I-125000J0D01*
G01*
X89755000Y-81515000D01*
G75*
G02*
X89630000Y-81390000I0J125000D01*
G01*
X89630000Y-81140000D01*
G75*
G02*
X89755000Y-81015000I125000J0D01*
G01*
X91405000Y-81015000D01*
G75*
G02*
X91530000Y-81140000I0J-125000D01*
G01*
G37*
G04 #@! TD.AperFunction*
G04 #@! TA.AperFunction,SMDPad,CuDef*
G36*
G01*
X91530000Y-80490000D02*
X91530000Y-80740000D01*
G75*
G02*
X91405000Y-80865000I-125000J0D01*
G01*
X89755000Y-80865000D01*
G75*
G02*
X89630000Y-80740000I0J125000D01*
G01*
X89630000Y-80490000D01*
G75*
G02*
X89755000Y-80365000I125000J0D01*
G01*
X91405000Y-80365000D01*
G75*
G02*
X91530000Y-80490000I0J-125000D01*
G01*
G37*
G04 #@! TD.AperFunction*
G04 #@! TA.AperFunction,SMDPad,CuDef*
G36*
G01*
X91530000Y-79840000D02*
X91530000Y-80090000D01*
G75*
G02*
X91405000Y-80215000I-125000J0D01*
G01*
X89755000Y-80215000D01*
G75*
G02*
X89630000Y-80090000I0J125000D01*
G01*
X89630000Y-79840000D01*
G75*
G02*
X89755000Y-79715000I125000J0D01*
G01*
X91405000Y-79715000D01*
G75*
G02*
X91530000Y-79840000I0J-125000D01*
G01*
G37*
G04 #@! TD.AperFunction*
G04 #@! TA.AperFunction,SMDPad,CuDef*
G36*
G01*
X91530000Y-79190000D02*
X91530000Y-79440000D01*
G75*
G02*
X91405000Y-79565000I-125000J0D01*
G01*
X89755000Y-79565000D01*
G75*
G02*
X89630000Y-79440000I0J125000D01*
G01*
X89630000Y-79190000D01*
G75*
G02*
X89755000Y-79065000I125000J0D01*
G01*
X91405000Y-79065000D01*
G75*
G02*
X91530000Y-79190000I0J-125000D01*
G01*
G37*
G04 #@! TD.AperFunction*
G04 #@! TA.AperFunction,SMDPad,CuDef*
G36*
G01*
X91530000Y-78540000D02*
X91530000Y-78790000D01*
G75*
G02*
X91405000Y-78915000I-125000J0D01*
G01*
X89755000Y-78915000D01*
G75*
G02*
X89630000Y-78790000I0J125000D01*
G01*
X89630000Y-78540000D01*
G75*
G02*
X89755000Y-78415000I125000J0D01*
G01*
X91405000Y-78415000D01*
G75*
G02*
X91530000Y-78540000I0J-125000D01*
G01*
G37*
G04 #@! TD.AperFunction*
G04 #@! TA.AperFunction,SMDPad,CuDef*
G36*
G01*
X91530000Y-77890000D02*
X91530000Y-78140000D01*
G75*
G02*
X91405000Y-78265000I-125000J0D01*
G01*
X89755000Y-78265000D01*
G75*
G02*
X89630000Y-78140000I0J125000D01*
G01*
X89630000Y-77890000D01*
G75*
G02*
X89755000Y-77765000I125000J0D01*
G01*
X91405000Y-77765000D01*
G75*
G02*
X91530000Y-77890000I0J-125000D01*
G01*
G37*
G04 #@! TD.AperFunction*
G04 #@! TA.AperFunction,SMDPad,CuDef*
G36*
G01*
X91530000Y-77240000D02*
X91530000Y-77490000D01*
G75*
G02*
X91405000Y-77615000I-125000J0D01*
G01*
X89755000Y-77615000D01*
G75*
G02*
X89630000Y-77490000I0J125000D01*
G01*
X89630000Y-77240000D01*
G75*
G02*
X89755000Y-77115000I125000J0D01*
G01*
X91405000Y-77115000D01*
G75*
G02*
X91530000Y-77240000I0J-125000D01*
G01*
G37*
G04 #@! TD.AperFunction*
G04 #@! TA.AperFunction,SMDPad,CuDef*
G36*
G01*
X91530000Y-76590000D02*
X91530000Y-76840000D01*
G75*
G02*
X91405000Y-76965000I-125000J0D01*
G01*
X89755000Y-76965000D01*
G75*
G02*
X89630000Y-76840000I0J125000D01*
G01*
X89630000Y-76590000D01*
G75*
G02*
X89755000Y-76465000I125000J0D01*
G01*
X91405000Y-76465000D01*
G75*
G02*
X91530000Y-76590000I0J-125000D01*
G01*
G37*
G04 #@! TD.AperFunction*
G04 #@! TA.AperFunction,SMDPad,CuDef*
G36*
G01*
X91530000Y-75940000D02*
X91530000Y-76190000D01*
G75*
G02*
X91405000Y-76315000I-125000J0D01*
G01*
X89755000Y-76315000D01*
G75*
G02*
X89630000Y-76190000I0J125000D01*
G01*
X89630000Y-75940000D01*
G75*
G02*
X89755000Y-75815000I125000J0D01*
G01*
X91405000Y-75815000D01*
G75*
G02*
X91530000Y-75940000I0J-125000D01*
G01*
G37*
G04 #@! TD.AperFunction*
G04 #@! TA.AperFunction,SMDPad,CuDef*
G36*
G01*
X91530000Y-75290000D02*
X91530000Y-75540000D01*
G75*
G02*
X91405000Y-75665000I-125000J0D01*
G01*
X89755000Y-75665000D01*
G75*
G02*
X89630000Y-75540000I0J125000D01*
G01*
X89630000Y-75290000D01*
G75*
G02*
X89755000Y-75165000I125000J0D01*
G01*
X91405000Y-75165000D01*
G75*
G02*
X91530000Y-75290000I0J-125000D01*
G01*
G37*
G04 #@! TD.AperFunction*
G04 #@! TA.AperFunction,SMDPad,CuDef*
G36*
G01*
X84530000Y-75290000D02*
X84530000Y-75540000D01*
G75*
G02*
X84405000Y-75665000I-125000J0D01*
G01*
X82755000Y-75665000D01*
G75*
G02*
X82630000Y-75540000I0J125000D01*
G01*
X82630000Y-75290000D01*
G75*
G02*
X82755000Y-75165000I125000J0D01*
G01*
X84405000Y-75165000D01*
G75*
G02*
X84530000Y-75290000I0J-125000D01*
G01*
G37*
G04 #@! TD.AperFunction*
G04 #@! TA.AperFunction,SMDPad,CuDef*
G36*
G01*
X84530000Y-75940000D02*
X84530000Y-76190000D01*
G75*
G02*
X84405000Y-76315000I-125000J0D01*
G01*
X82755000Y-76315000D01*
G75*
G02*
X82630000Y-76190000I0J125000D01*
G01*
X82630000Y-75940000D01*
G75*
G02*
X82755000Y-75815000I125000J0D01*
G01*
X84405000Y-75815000D01*
G75*
G02*
X84530000Y-75940000I0J-125000D01*
G01*
G37*
G04 #@! TD.AperFunction*
G04 #@! TA.AperFunction,SMDPad,CuDef*
G36*
G01*
X84530000Y-76590000D02*
X84530000Y-76840000D01*
G75*
G02*
X84405000Y-76965000I-125000J0D01*
G01*
X82755000Y-76965000D01*
G75*
G02*
X82630000Y-76840000I0J125000D01*
G01*
X82630000Y-76590000D01*
G75*
G02*
X82755000Y-76465000I125000J0D01*
G01*
X84405000Y-76465000D01*
G75*
G02*
X84530000Y-76590000I0J-125000D01*
G01*
G37*
G04 #@! TD.AperFunction*
G04 #@! TA.AperFunction,SMDPad,CuDef*
G36*
G01*
X84530000Y-77240000D02*
X84530000Y-77490000D01*
G75*
G02*
X84405000Y-77615000I-125000J0D01*
G01*
X82755000Y-77615000D01*
G75*
G02*
X82630000Y-77490000I0J125000D01*
G01*
X82630000Y-77240000D01*
G75*
G02*
X82755000Y-77115000I125000J0D01*
G01*
X84405000Y-77115000D01*
G75*
G02*
X84530000Y-77240000I0J-125000D01*
G01*
G37*
G04 #@! TD.AperFunction*
G04 #@! TA.AperFunction,SMDPad,CuDef*
G36*
G01*
X84530000Y-77890000D02*
X84530000Y-78140000D01*
G75*
G02*
X84405000Y-78265000I-125000J0D01*
G01*
X82755000Y-78265000D01*
G75*
G02*
X82630000Y-78140000I0J125000D01*
G01*
X82630000Y-77890000D01*
G75*
G02*
X82755000Y-77765000I125000J0D01*
G01*
X84405000Y-77765000D01*
G75*
G02*
X84530000Y-77890000I0J-125000D01*
G01*
G37*
G04 #@! TD.AperFunction*
G04 #@! TA.AperFunction,SMDPad,CuDef*
G36*
G01*
X84530000Y-78540000D02*
X84530000Y-78790000D01*
G75*
G02*
X84405000Y-78915000I-125000J0D01*
G01*
X82755000Y-78915000D01*
G75*
G02*
X82630000Y-78790000I0J125000D01*
G01*
X82630000Y-78540000D01*
G75*
G02*
X82755000Y-78415000I125000J0D01*
G01*
X84405000Y-78415000D01*
G75*
G02*
X84530000Y-78540000I0J-125000D01*
G01*
G37*
G04 #@! TD.AperFunction*
G04 #@! TA.AperFunction,SMDPad,CuDef*
G36*
G01*
X84530000Y-79190000D02*
X84530000Y-79440000D01*
G75*
G02*
X84405000Y-79565000I-125000J0D01*
G01*
X82755000Y-79565000D01*
G75*
G02*
X82630000Y-79440000I0J125000D01*
G01*
X82630000Y-79190000D01*
G75*
G02*
X82755000Y-79065000I125000J0D01*
G01*
X84405000Y-79065000D01*
G75*
G02*
X84530000Y-79190000I0J-125000D01*
G01*
G37*
G04 #@! TD.AperFunction*
G04 #@! TA.AperFunction,SMDPad,CuDef*
G36*
G01*
X84530000Y-79840000D02*
X84530000Y-80090000D01*
G75*
G02*
X84405000Y-80215000I-125000J0D01*
G01*
X82755000Y-80215000D01*
G75*
G02*
X82630000Y-80090000I0J125000D01*
G01*
X82630000Y-79840000D01*
G75*
G02*
X82755000Y-79715000I125000J0D01*
G01*
X84405000Y-79715000D01*
G75*
G02*
X84530000Y-79840000I0J-125000D01*
G01*
G37*
G04 #@! TD.AperFunction*
G04 #@! TA.AperFunction,SMDPad,CuDef*
G36*
G01*
X84530000Y-80490000D02*
X84530000Y-80740000D01*
G75*
G02*
X84405000Y-80865000I-125000J0D01*
G01*
X82755000Y-80865000D01*
G75*
G02*
X82630000Y-80740000I0J125000D01*
G01*
X82630000Y-80490000D01*
G75*
G02*
X82755000Y-80365000I125000J0D01*
G01*
X84405000Y-80365000D01*
G75*
G02*
X84530000Y-80490000I0J-125000D01*
G01*
G37*
G04 #@! TD.AperFunction*
G04 #@! TA.AperFunction,SMDPad,CuDef*
G36*
G01*
X84530000Y-81140000D02*
X84530000Y-81390000D01*
G75*
G02*
X84405000Y-81515000I-125000J0D01*
G01*
X82755000Y-81515000D01*
G75*
G02*
X82630000Y-81390000I0J125000D01*
G01*
X82630000Y-81140000D01*
G75*
G02*
X82755000Y-81015000I125000J0D01*
G01*
X84405000Y-81015000D01*
G75*
G02*
X84530000Y-81140000I0J-125000D01*
G01*
G37*
G04 #@! TD.AperFunction*
D14*
X83900000Y-71500000D03*
X86900000Y-71500000D03*
X89900000Y-71500000D03*
G04 #@! TA.AperFunction,ComponentPad*
G36*
G01*
X93650000Y-70740000D02*
X93650000Y-72260000D01*
G75*
G02*
X93400000Y-72510000I-250000J0D01*
G01*
X92400000Y-72510000D01*
G75*
G02*
X92150000Y-72260000I0J250000D01*
G01*
X92150000Y-70740000D01*
G75*
G02*
X92400000Y-70490000I250000J0D01*
G01*
X93400000Y-70490000D01*
G75*
G02*
X93650000Y-70740000I0J-250000D01*
G01*
G37*
G04 #@! TD.AperFunction*
G04 #@! TA.AperFunction,SMDPad,CuDef*
G36*
G01*
X94225000Y-80870000D02*
X93275000Y-80870000D01*
G75*
G02*
X93025000Y-80620000I0J250000D01*
G01*
X93025000Y-80120000D01*
G75*
G02*
X93275000Y-79870000I250000J0D01*
G01*
X94225000Y-79870000D01*
G75*
G02*
X94475000Y-80120000I0J-250000D01*
G01*
X94475000Y-80620000D01*
G75*
G02*
X94225000Y-80870000I-250000J0D01*
G01*
G37*
G04 #@! TD.AperFunction*
G04 #@! TA.AperFunction,SMDPad,CuDef*
G36*
G01*
X94225000Y-78970000D02*
X93275000Y-78970000D01*
G75*
G02*
X93025000Y-78720000I0J250000D01*
G01*
X93025000Y-78220000D01*
G75*
G02*
X93275000Y-77970000I250000J0D01*
G01*
X94225000Y-77970000D01*
G75*
G02*
X94475000Y-78220000I0J-250000D01*
G01*
X94475000Y-78720000D01*
G75*
G02*
X94225000Y-78970000I-250000J0D01*
G01*
G37*
G04 #@! TD.AperFunction*
G04 #@! TA.AperFunction,SMDPad,CuDef*
G36*
G01*
X27750000Y-81470000D02*
X27750000Y-81720000D01*
G75*
G02*
X27625000Y-81845000I-125000J0D01*
G01*
X25975000Y-81845000D01*
G75*
G02*
X25850000Y-81720000I0J125000D01*
G01*
X25850000Y-81470000D01*
G75*
G02*
X25975000Y-81345000I125000J0D01*
G01*
X27625000Y-81345000D01*
G75*
G02*
X27750000Y-81470000I0J-125000D01*
G01*
G37*
G04 #@! TD.AperFunction*
G04 #@! TA.AperFunction,SMDPad,CuDef*
G36*
G01*
X27750000Y-80820000D02*
X27750000Y-81070000D01*
G75*
G02*
X27625000Y-81195000I-125000J0D01*
G01*
X25975000Y-81195000D01*
G75*
G02*
X25850000Y-81070000I0J125000D01*
G01*
X25850000Y-80820000D01*
G75*
G02*
X25975000Y-80695000I125000J0D01*
G01*
X27625000Y-80695000D01*
G75*
G02*
X27750000Y-80820000I0J-125000D01*
G01*
G37*
G04 #@! TD.AperFunction*
G04 #@! TA.AperFunction,SMDPad,CuDef*
G36*
G01*
X27750000Y-80170000D02*
X27750000Y-80420000D01*
G75*
G02*
X27625000Y-80545000I-125000J0D01*
G01*
X25975000Y-80545000D01*
G75*
G02*
X25850000Y-80420000I0J125000D01*
G01*
X25850000Y-80170000D01*
G75*
G02*
X25975000Y-80045000I125000J0D01*
G01*
X27625000Y-80045000D01*
G75*
G02*
X27750000Y-80170000I0J-125000D01*
G01*
G37*
G04 #@! TD.AperFunction*
G04 #@! TA.AperFunction,SMDPad,CuDef*
G36*
G01*
X27750000Y-79520000D02*
X27750000Y-79770000D01*
G75*
G02*
X27625000Y-79895000I-125000J0D01*
G01*
X25975000Y-79895000D01*
G75*
G02*
X25850000Y-79770000I0J125000D01*
G01*
X25850000Y-79520000D01*
G75*
G02*
X25975000Y-79395000I125000J0D01*
G01*
X27625000Y-79395000D01*
G75*
G02*
X27750000Y-79520000I0J-125000D01*
G01*
G37*
G04 #@! TD.AperFunction*
G04 #@! TA.AperFunction,SMDPad,CuDef*
G36*
G01*
X27750000Y-78870000D02*
X27750000Y-79120000D01*
G75*
G02*
X27625000Y-79245000I-125000J0D01*
G01*
X25975000Y-79245000D01*
G75*
G02*
X25850000Y-79120000I0J125000D01*
G01*
X25850000Y-78870000D01*
G75*
G02*
X25975000Y-78745000I125000J0D01*
G01*
X27625000Y-78745000D01*
G75*
G02*
X27750000Y-78870000I0J-125000D01*
G01*
G37*
G04 #@! TD.AperFunction*
G04 #@! TA.AperFunction,SMDPad,CuDef*
G36*
G01*
X27750000Y-78220000D02*
X27750000Y-78470000D01*
G75*
G02*
X27625000Y-78595000I-125000J0D01*
G01*
X25975000Y-78595000D01*
G75*
G02*
X25850000Y-78470000I0J125000D01*
G01*
X25850000Y-78220000D01*
G75*
G02*
X25975000Y-78095000I125000J0D01*
G01*
X27625000Y-78095000D01*
G75*
G02*
X27750000Y-78220000I0J-125000D01*
G01*
G37*
G04 #@! TD.AperFunction*
G04 #@! TA.AperFunction,SMDPad,CuDef*
G36*
G01*
X27750000Y-77570000D02*
X27750000Y-77820000D01*
G75*
G02*
X27625000Y-77945000I-125000J0D01*
G01*
X25975000Y-77945000D01*
G75*
G02*
X25850000Y-77820000I0J125000D01*
G01*
X25850000Y-77570000D01*
G75*
G02*
X25975000Y-77445000I125000J0D01*
G01*
X27625000Y-77445000D01*
G75*
G02*
X27750000Y-77570000I0J-125000D01*
G01*
G37*
G04 #@! TD.AperFunction*
G04 #@! TA.AperFunction,SMDPad,CuDef*
G36*
G01*
X27750000Y-76920000D02*
X27750000Y-77170000D01*
G75*
G02*
X27625000Y-77295000I-125000J0D01*
G01*
X25975000Y-77295000D01*
G75*
G02*
X25850000Y-77170000I0J125000D01*
G01*
X25850000Y-76920000D01*
G75*
G02*
X25975000Y-76795000I125000J0D01*
G01*
X27625000Y-76795000D01*
G75*
G02*
X27750000Y-76920000I0J-125000D01*
G01*
G37*
G04 #@! TD.AperFunction*
G04 #@! TA.AperFunction,SMDPad,CuDef*
G36*
G01*
X27750000Y-76270000D02*
X27750000Y-76520000D01*
G75*
G02*
X27625000Y-76645000I-125000J0D01*
G01*
X25975000Y-76645000D01*
G75*
G02*
X25850000Y-76520000I0J125000D01*
G01*
X25850000Y-76270000D01*
G75*
G02*
X25975000Y-76145000I125000J0D01*
G01*
X27625000Y-76145000D01*
G75*
G02*
X27750000Y-76270000I0J-125000D01*
G01*
G37*
G04 #@! TD.AperFunction*
G04 #@! TA.AperFunction,SMDPad,CuDef*
G36*
G01*
X27750000Y-75620000D02*
X27750000Y-75870000D01*
G75*
G02*
X27625000Y-75995000I-125000J0D01*
G01*
X25975000Y-75995000D01*
G75*
G02*
X25850000Y-75870000I0J125000D01*
G01*
X25850000Y-75620000D01*
G75*
G02*
X25975000Y-75495000I125000J0D01*
G01*
X27625000Y-75495000D01*
G75*
G02*
X27750000Y-75620000I0J-125000D01*
G01*
G37*
G04 #@! TD.AperFunction*
G04 #@! TA.AperFunction,SMDPad,CuDef*
G36*
G01*
X34750000Y-75620000D02*
X34750000Y-75870000D01*
G75*
G02*
X34625000Y-75995000I-125000J0D01*
G01*
X32975000Y-75995000D01*
G75*
G02*
X32850000Y-75870000I0J125000D01*
G01*
X32850000Y-75620000D01*
G75*
G02*
X32975000Y-75495000I125000J0D01*
G01*
X34625000Y-75495000D01*
G75*
G02*
X34750000Y-75620000I0J-125000D01*
G01*
G37*
G04 #@! TD.AperFunction*
G04 #@! TA.AperFunction,SMDPad,CuDef*
G36*
G01*
X34750000Y-76270000D02*
X34750000Y-76520000D01*
G75*
G02*
X34625000Y-76645000I-125000J0D01*
G01*
X32975000Y-76645000D01*
G75*
G02*
X32850000Y-76520000I0J125000D01*
G01*
X32850000Y-76270000D01*
G75*
G02*
X32975000Y-76145000I125000J0D01*
G01*
X34625000Y-76145000D01*
G75*
G02*
X34750000Y-76270000I0J-125000D01*
G01*
G37*
G04 #@! TD.AperFunction*
G04 #@! TA.AperFunction,SMDPad,CuDef*
G36*
G01*
X34750000Y-76920000D02*
X34750000Y-77170000D01*
G75*
G02*
X34625000Y-77295000I-125000J0D01*
G01*
X32975000Y-77295000D01*
G75*
G02*
X32850000Y-77170000I0J125000D01*
G01*
X32850000Y-76920000D01*
G75*
G02*
X32975000Y-76795000I125000J0D01*
G01*
X34625000Y-76795000D01*
G75*
G02*
X34750000Y-76920000I0J-125000D01*
G01*
G37*
G04 #@! TD.AperFunction*
G04 #@! TA.AperFunction,SMDPad,CuDef*
G36*
G01*
X34750000Y-77570000D02*
X34750000Y-77820000D01*
G75*
G02*
X34625000Y-77945000I-125000J0D01*
G01*
X32975000Y-77945000D01*
G75*
G02*
X32850000Y-77820000I0J125000D01*
G01*
X32850000Y-77570000D01*
G75*
G02*
X32975000Y-77445000I125000J0D01*
G01*
X34625000Y-77445000D01*
G75*
G02*
X34750000Y-77570000I0J-125000D01*
G01*
G37*
G04 #@! TD.AperFunction*
G04 #@! TA.AperFunction,SMDPad,CuDef*
G36*
G01*
X34750000Y-78220000D02*
X34750000Y-78470000D01*
G75*
G02*
X34625000Y-78595000I-125000J0D01*
G01*
X32975000Y-78595000D01*
G75*
G02*
X32850000Y-78470000I0J125000D01*
G01*
X32850000Y-78220000D01*
G75*
G02*
X32975000Y-78095000I125000J0D01*
G01*
X34625000Y-78095000D01*
G75*
G02*
X34750000Y-78220000I0J-125000D01*
G01*
G37*
G04 #@! TD.AperFunction*
G04 #@! TA.AperFunction,SMDPad,CuDef*
G36*
G01*
X34750000Y-78870000D02*
X34750000Y-79120000D01*
G75*
G02*
X34625000Y-79245000I-125000J0D01*
G01*
X32975000Y-79245000D01*
G75*
G02*
X32850000Y-79120000I0J125000D01*
G01*
X32850000Y-78870000D01*
G75*
G02*
X32975000Y-78745000I125000J0D01*
G01*
X34625000Y-78745000D01*
G75*
G02*
X34750000Y-78870000I0J-125000D01*
G01*
G37*
G04 #@! TD.AperFunction*
G04 #@! TA.AperFunction,SMDPad,CuDef*
G36*
G01*
X34750000Y-79520000D02*
X34750000Y-79770000D01*
G75*
G02*
X34625000Y-79895000I-125000J0D01*
G01*
X32975000Y-79895000D01*
G75*
G02*
X32850000Y-79770000I0J125000D01*
G01*
X32850000Y-79520000D01*
G75*
G02*
X32975000Y-79395000I125000J0D01*
G01*
X34625000Y-79395000D01*
G75*
G02*
X34750000Y-79520000I0J-125000D01*
G01*
G37*
G04 #@! TD.AperFunction*
G04 #@! TA.AperFunction,SMDPad,CuDef*
G36*
G01*
X34750000Y-80170000D02*
X34750000Y-80420000D01*
G75*
G02*
X34625000Y-80545000I-125000J0D01*
G01*
X32975000Y-80545000D01*
G75*
G02*
X32850000Y-80420000I0J125000D01*
G01*
X32850000Y-80170000D01*
G75*
G02*
X32975000Y-80045000I125000J0D01*
G01*
X34625000Y-80045000D01*
G75*
G02*
X34750000Y-80170000I0J-125000D01*
G01*
G37*
G04 #@! TD.AperFunction*
G04 #@! TA.AperFunction,SMDPad,CuDef*
G36*
G01*
X34750000Y-80820000D02*
X34750000Y-81070000D01*
G75*
G02*
X34625000Y-81195000I-125000J0D01*
G01*
X32975000Y-81195000D01*
G75*
G02*
X32850000Y-81070000I0J125000D01*
G01*
X32850000Y-80820000D01*
G75*
G02*
X32975000Y-80695000I125000J0D01*
G01*
X34625000Y-80695000D01*
G75*
G02*
X34750000Y-80820000I0J-125000D01*
G01*
G37*
G04 #@! TD.AperFunction*
G04 #@! TA.AperFunction,SMDPad,CuDef*
G36*
G01*
X34750000Y-81470000D02*
X34750000Y-81720000D01*
G75*
G02*
X34625000Y-81845000I-125000J0D01*
G01*
X32975000Y-81845000D01*
G75*
G02*
X32850000Y-81720000I0J125000D01*
G01*
X32850000Y-81470000D01*
G75*
G02*
X32975000Y-81345000I125000J0D01*
G01*
X34625000Y-81345000D01*
G75*
G02*
X34750000Y-81470000I0J-125000D01*
G01*
G37*
G04 #@! TD.AperFunction*
G04 #@! TA.AperFunction,ComponentPad*
G36*
G01*
X36910000Y-71080000D02*
X36910000Y-72600000D01*
G75*
G02*
X36660000Y-72850000I-250000J0D01*
G01*
X35660000Y-72850000D01*
G75*
G02*
X35410000Y-72600000I0J250000D01*
G01*
X35410000Y-71080000D01*
G75*
G02*
X35660000Y-70830000I250000J0D01*
G01*
X36660000Y-70830000D01*
G75*
G02*
X36910000Y-71080000I0J-250000D01*
G01*
G37*
G04 #@! TD.AperFunction*
X33160000Y-71840000D03*
X30160000Y-71840000D03*
X27160000Y-71840000D03*
G04 #@! TA.AperFunction,SMDPad,CuDef*
G36*
G01*
X37445000Y-79250000D02*
X36495000Y-79250000D01*
G75*
G02*
X36245000Y-79000000I0J250000D01*
G01*
X36245000Y-78500000D01*
G75*
G02*
X36495000Y-78250000I250000J0D01*
G01*
X37445000Y-78250000D01*
G75*
G02*
X37695000Y-78500000I0J-250000D01*
G01*
X37695000Y-79000000D01*
G75*
G02*
X37445000Y-79250000I-250000J0D01*
G01*
G37*
G04 #@! TD.AperFunction*
G04 #@! TA.AperFunction,SMDPad,CuDef*
G36*
G01*
X37445000Y-81150000D02*
X36495000Y-81150000D01*
G75*
G02*
X36245000Y-80900000I0J250000D01*
G01*
X36245000Y-80400000D01*
G75*
G02*
X36495000Y-80150000I250000J0D01*
G01*
X37445000Y-80150000D01*
G75*
G02*
X37695000Y-80400000I0J-250000D01*
G01*
X37695000Y-80900000D01*
G75*
G02*
X37445000Y-81150000I-250000J0D01*
G01*
G37*
G04 #@! TD.AperFunction*
G04 #@! TA.AperFunction,SMDPad,CuDef*
G36*
G01*
X84590000Y-63080000D02*
X84590000Y-63330000D01*
G75*
G02*
X84465000Y-63455000I-125000J0D01*
G01*
X82815000Y-63455000D01*
G75*
G02*
X82690000Y-63330000I0J125000D01*
G01*
X82690000Y-63080000D01*
G75*
G02*
X82815000Y-62955000I125000J0D01*
G01*
X84465000Y-62955000D01*
G75*
G02*
X84590000Y-63080000I0J-125000D01*
G01*
G37*
G04 #@! TD.AperFunction*
G04 #@! TA.AperFunction,SMDPad,CuDef*
G36*
G01*
X84590000Y-62430000D02*
X84590000Y-62680000D01*
G75*
G02*
X84465000Y-62805000I-125000J0D01*
G01*
X82815000Y-62805000D01*
G75*
G02*
X82690000Y-62680000I0J125000D01*
G01*
X82690000Y-62430000D01*
G75*
G02*
X82815000Y-62305000I125000J0D01*
G01*
X84465000Y-62305000D01*
G75*
G02*
X84590000Y-62430000I0J-125000D01*
G01*
G37*
G04 #@! TD.AperFunction*
G04 #@! TA.AperFunction,SMDPad,CuDef*
G36*
G01*
X84590000Y-61780000D02*
X84590000Y-62030000D01*
G75*
G02*
X84465000Y-62155000I-125000J0D01*
G01*
X82815000Y-62155000D01*
G75*
G02*
X82690000Y-62030000I0J125000D01*
G01*
X82690000Y-61780000D01*
G75*
G02*
X82815000Y-61655000I125000J0D01*
G01*
X84465000Y-61655000D01*
G75*
G02*
X84590000Y-61780000I0J-125000D01*
G01*
G37*
G04 #@! TD.AperFunction*
G04 #@! TA.AperFunction,SMDPad,CuDef*
G36*
G01*
X84590000Y-61130000D02*
X84590000Y-61380000D01*
G75*
G02*
X84465000Y-61505000I-125000J0D01*
G01*
X82815000Y-61505000D01*
G75*
G02*
X82690000Y-61380000I0J125000D01*
G01*
X82690000Y-61130000D01*
G75*
G02*
X82815000Y-61005000I125000J0D01*
G01*
X84465000Y-61005000D01*
G75*
G02*
X84590000Y-61130000I0J-125000D01*
G01*
G37*
G04 #@! TD.AperFunction*
G04 #@! TA.AperFunction,SMDPad,CuDef*
G36*
G01*
X84590000Y-60480000D02*
X84590000Y-60730000D01*
G75*
G02*
X84465000Y-60855000I-125000J0D01*
G01*
X82815000Y-60855000D01*
G75*
G02*
X82690000Y-60730000I0J125000D01*
G01*
X82690000Y-60480000D01*
G75*
G02*
X82815000Y-60355000I125000J0D01*
G01*
X84465000Y-60355000D01*
G75*
G02*
X84590000Y-60480000I0J-125000D01*
G01*
G37*
G04 #@! TD.AperFunction*
G04 #@! TA.AperFunction,SMDPad,CuDef*
G36*
G01*
X84590000Y-59830000D02*
X84590000Y-60080000D01*
G75*
G02*
X84465000Y-60205000I-125000J0D01*
G01*
X82815000Y-60205000D01*
G75*
G02*
X82690000Y-60080000I0J125000D01*
G01*
X82690000Y-59830000D01*
G75*
G02*
X82815000Y-59705000I125000J0D01*
G01*
X84465000Y-59705000D01*
G75*
G02*
X84590000Y-59830000I0J-125000D01*
G01*
G37*
G04 #@! TD.AperFunction*
G04 #@! TA.AperFunction,SMDPad,CuDef*
G36*
G01*
X84590000Y-59180000D02*
X84590000Y-59430000D01*
G75*
G02*
X84465000Y-59555000I-125000J0D01*
G01*
X82815000Y-59555000D01*
G75*
G02*
X82690000Y-59430000I0J125000D01*
G01*
X82690000Y-59180000D01*
G75*
G02*
X82815000Y-59055000I125000J0D01*
G01*
X84465000Y-59055000D01*
G75*
G02*
X84590000Y-59180000I0J-125000D01*
G01*
G37*
G04 #@! TD.AperFunction*
G04 #@! TA.AperFunction,SMDPad,CuDef*
G36*
G01*
X84590000Y-58530000D02*
X84590000Y-58780000D01*
G75*
G02*
X84465000Y-58905000I-125000J0D01*
G01*
X82815000Y-58905000D01*
G75*
G02*
X82690000Y-58780000I0J125000D01*
G01*
X82690000Y-58530000D01*
G75*
G02*
X82815000Y-58405000I125000J0D01*
G01*
X84465000Y-58405000D01*
G75*
G02*
X84590000Y-58530000I0J-125000D01*
G01*
G37*
G04 #@! TD.AperFunction*
G04 #@! TA.AperFunction,SMDPad,CuDef*
G36*
G01*
X84590000Y-57880000D02*
X84590000Y-58130000D01*
G75*
G02*
X84465000Y-58255000I-125000J0D01*
G01*
X82815000Y-58255000D01*
G75*
G02*
X82690000Y-58130000I0J125000D01*
G01*
X82690000Y-57880000D01*
G75*
G02*
X82815000Y-57755000I125000J0D01*
G01*
X84465000Y-57755000D01*
G75*
G02*
X84590000Y-57880000I0J-125000D01*
G01*
G37*
G04 #@! TD.AperFunction*
G04 #@! TA.AperFunction,SMDPad,CuDef*
G36*
G01*
X84590000Y-57230000D02*
X84590000Y-57480000D01*
G75*
G02*
X84465000Y-57605000I-125000J0D01*
G01*
X82815000Y-57605000D01*
G75*
G02*
X82690000Y-57480000I0J125000D01*
G01*
X82690000Y-57230000D01*
G75*
G02*
X82815000Y-57105000I125000J0D01*
G01*
X84465000Y-57105000D01*
G75*
G02*
X84590000Y-57230000I0J-125000D01*
G01*
G37*
G04 #@! TD.AperFunction*
G04 #@! TA.AperFunction,SMDPad,CuDef*
G36*
G01*
X91590000Y-57230000D02*
X91590000Y-57480000D01*
G75*
G02*
X91465000Y-57605000I-125000J0D01*
G01*
X89815000Y-57605000D01*
G75*
G02*
X89690000Y-57480000I0J125000D01*
G01*
X89690000Y-57230000D01*
G75*
G02*
X89815000Y-57105000I125000J0D01*
G01*
X91465000Y-57105000D01*
G75*
G02*
X91590000Y-57230000I0J-125000D01*
G01*
G37*
G04 #@! TD.AperFunction*
G04 #@! TA.AperFunction,SMDPad,CuDef*
G36*
G01*
X91590000Y-57880000D02*
X91590000Y-58130000D01*
G75*
G02*
X91465000Y-58255000I-125000J0D01*
G01*
X89815000Y-58255000D01*
G75*
G02*
X89690000Y-58130000I0J125000D01*
G01*
X89690000Y-57880000D01*
G75*
G02*
X89815000Y-57755000I125000J0D01*
G01*
X91465000Y-57755000D01*
G75*
G02*
X91590000Y-57880000I0J-125000D01*
G01*
G37*
G04 #@! TD.AperFunction*
G04 #@! TA.AperFunction,SMDPad,CuDef*
G36*
G01*
X91590000Y-58530000D02*
X91590000Y-58780000D01*
G75*
G02*
X91465000Y-58905000I-125000J0D01*
G01*
X89815000Y-58905000D01*
G75*
G02*
X89690000Y-58780000I0J125000D01*
G01*
X89690000Y-58530000D01*
G75*
G02*
X89815000Y-58405000I125000J0D01*
G01*
X91465000Y-58405000D01*
G75*
G02*
X91590000Y-58530000I0J-125000D01*
G01*
G37*
G04 #@! TD.AperFunction*
G04 #@! TA.AperFunction,SMDPad,CuDef*
G36*
G01*
X91590000Y-59180000D02*
X91590000Y-59430000D01*
G75*
G02*
X91465000Y-59555000I-125000J0D01*
G01*
X89815000Y-59555000D01*
G75*
G02*
X89690000Y-59430000I0J125000D01*
G01*
X89690000Y-59180000D01*
G75*
G02*
X89815000Y-59055000I125000J0D01*
G01*
X91465000Y-59055000D01*
G75*
G02*
X91590000Y-59180000I0J-125000D01*
G01*
G37*
G04 #@! TD.AperFunction*
G04 #@! TA.AperFunction,SMDPad,CuDef*
G36*
G01*
X91590000Y-59830000D02*
X91590000Y-60080000D01*
G75*
G02*
X91465000Y-60205000I-125000J0D01*
G01*
X89815000Y-60205000D01*
G75*
G02*
X89690000Y-60080000I0J125000D01*
G01*
X89690000Y-59830000D01*
G75*
G02*
X89815000Y-59705000I125000J0D01*
G01*
X91465000Y-59705000D01*
G75*
G02*
X91590000Y-59830000I0J-125000D01*
G01*
G37*
G04 #@! TD.AperFunction*
G04 #@! TA.AperFunction,SMDPad,CuDef*
G36*
G01*
X91590000Y-60480000D02*
X91590000Y-60730000D01*
G75*
G02*
X91465000Y-60855000I-125000J0D01*
G01*
X89815000Y-60855000D01*
G75*
G02*
X89690000Y-60730000I0J125000D01*
G01*
X89690000Y-60480000D01*
G75*
G02*
X89815000Y-60355000I125000J0D01*
G01*
X91465000Y-60355000D01*
G75*
G02*
X91590000Y-60480000I0J-125000D01*
G01*
G37*
G04 #@! TD.AperFunction*
G04 #@! TA.AperFunction,SMDPad,CuDef*
G36*
G01*
X91590000Y-61130000D02*
X91590000Y-61380000D01*
G75*
G02*
X91465000Y-61505000I-125000J0D01*
G01*
X89815000Y-61505000D01*
G75*
G02*
X89690000Y-61380000I0J125000D01*
G01*
X89690000Y-61130000D01*
G75*
G02*
X89815000Y-61005000I125000J0D01*
G01*
X91465000Y-61005000D01*
G75*
G02*
X91590000Y-61130000I0J-125000D01*
G01*
G37*
G04 #@! TD.AperFunction*
G04 #@! TA.AperFunction,SMDPad,CuDef*
G36*
G01*
X91590000Y-61780000D02*
X91590000Y-62030000D01*
G75*
G02*
X91465000Y-62155000I-125000J0D01*
G01*
X89815000Y-62155000D01*
G75*
G02*
X89690000Y-62030000I0J125000D01*
G01*
X89690000Y-61780000D01*
G75*
G02*
X89815000Y-61655000I125000J0D01*
G01*
X91465000Y-61655000D01*
G75*
G02*
X91590000Y-61780000I0J-125000D01*
G01*
G37*
G04 #@! TD.AperFunction*
G04 #@! TA.AperFunction,SMDPad,CuDef*
G36*
G01*
X91590000Y-62430000D02*
X91590000Y-62680000D01*
G75*
G02*
X91465000Y-62805000I-125000J0D01*
G01*
X89815000Y-62805000D01*
G75*
G02*
X89690000Y-62680000I0J125000D01*
G01*
X89690000Y-62430000D01*
G75*
G02*
X89815000Y-62305000I125000J0D01*
G01*
X91465000Y-62305000D01*
G75*
G02*
X91590000Y-62430000I0J-125000D01*
G01*
G37*
G04 #@! TD.AperFunction*
G04 #@! TA.AperFunction,SMDPad,CuDef*
G36*
G01*
X91590000Y-63080000D02*
X91590000Y-63330000D01*
G75*
G02*
X91465000Y-63455000I-125000J0D01*
G01*
X89815000Y-63455000D01*
G75*
G02*
X89690000Y-63330000I0J125000D01*
G01*
X89690000Y-63080000D01*
G75*
G02*
X89815000Y-62955000I125000J0D01*
G01*
X91465000Y-62955000D01*
G75*
G02*
X91590000Y-63080000I0J-125000D01*
G01*
G37*
G04 #@! TD.AperFunction*
G04 #@! TA.AperFunction,ComponentPad*
G36*
G01*
X93750000Y-52670000D02*
X93750000Y-54190000D01*
G75*
G02*
X93500000Y-54440000I-250000J0D01*
G01*
X92500000Y-54440000D01*
G75*
G02*
X92250000Y-54190000I0J250000D01*
G01*
X92250000Y-52670000D01*
G75*
G02*
X92500000Y-52420000I250000J0D01*
G01*
X93500000Y-52420000D01*
G75*
G02*
X93750000Y-52670000I0J-250000D01*
G01*
G37*
G04 #@! TD.AperFunction*
X90000000Y-53430000D03*
X87000000Y-53430000D03*
X84000000Y-53430000D03*
G04 #@! TA.AperFunction,SMDPad,CuDef*
G36*
G01*
X94285000Y-60860000D02*
X93335000Y-60860000D01*
G75*
G02*
X93085000Y-60610000I0J250000D01*
G01*
X93085000Y-60110000D01*
G75*
G02*
X93335000Y-59860000I250000J0D01*
G01*
X94285000Y-59860000D01*
G75*
G02*
X94535000Y-60110000I0J-250000D01*
G01*
X94535000Y-60610000D01*
G75*
G02*
X94285000Y-60860000I-250000J0D01*
G01*
G37*
G04 #@! TD.AperFunction*
G04 #@! TA.AperFunction,SMDPad,CuDef*
G36*
G01*
X94285000Y-62760000D02*
X93335000Y-62760000D01*
G75*
G02*
X93085000Y-62510000I0J250000D01*
G01*
X93085000Y-62010000D01*
G75*
G02*
X93335000Y-61760000I250000J0D01*
G01*
X94285000Y-61760000D01*
G75*
G02*
X94535000Y-62010000I0J-250000D01*
G01*
X94535000Y-62510000D01*
G75*
G02*
X94285000Y-62760000I-250000J0D01*
G01*
G37*
G04 #@! TD.AperFunction*
G04 #@! TA.AperFunction,SMDPad,CuDef*
G36*
G01*
X27860000Y-63270000D02*
X27860000Y-63520000D01*
G75*
G02*
X27735000Y-63645000I-125000J0D01*
G01*
X26085000Y-63645000D01*
G75*
G02*
X25960000Y-63520000I0J125000D01*
G01*
X25960000Y-63270000D01*
G75*
G02*
X26085000Y-63145000I125000J0D01*
G01*
X27735000Y-63145000D01*
G75*
G02*
X27860000Y-63270000I0J-125000D01*
G01*
G37*
G04 #@! TD.AperFunction*
G04 #@! TA.AperFunction,SMDPad,CuDef*
G36*
G01*
X27860000Y-62620000D02*
X27860000Y-62870000D01*
G75*
G02*
X27735000Y-62995000I-125000J0D01*
G01*
X26085000Y-62995000D01*
G75*
G02*
X25960000Y-62870000I0J125000D01*
G01*
X25960000Y-62620000D01*
G75*
G02*
X26085000Y-62495000I125000J0D01*
G01*
X27735000Y-62495000D01*
G75*
G02*
X27860000Y-62620000I0J-125000D01*
G01*
G37*
G04 #@! TD.AperFunction*
G04 #@! TA.AperFunction,SMDPad,CuDef*
G36*
G01*
X27860000Y-61970000D02*
X27860000Y-62220000D01*
G75*
G02*
X27735000Y-62345000I-125000J0D01*
G01*
X26085000Y-62345000D01*
G75*
G02*
X25960000Y-62220000I0J125000D01*
G01*
X25960000Y-61970000D01*
G75*
G02*
X26085000Y-61845000I125000J0D01*
G01*
X27735000Y-61845000D01*
G75*
G02*
X27860000Y-61970000I0J-125000D01*
G01*
G37*
G04 #@! TD.AperFunction*
G04 #@! TA.AperFunction,SMDPad,CuDef*
G36*
G01*
X27860000Y-61320000D02*
X27860000Y-61570000D01*
G75*
G02*
X27735000Y-61695000I-125000J0D01*
G01*
X26085000Y-61695000D01*
G75*
G02*
X25960000Y-61570000I0J125000D01*
G01*
X25960000Y-61320000D01*
G75*
G02*
X26085000Y-61195000I125000J0D01*
G01*
X27735000Y-61195000D01*
G75*
G02*
X27860000Y-61320000I0J-125000D01*
G01*
G37*
G04 #@! TD.AperFunction*
G04 #@! TA.AperFunction,SMDPad,CuDef*
G36*
G01*
X27860000Y-60670000D02*
X27860000Y-60920000D01*
G75*
G02*
X27735000Y-61045000I-125000J0D01*
G01*
X26085000Y-61045000D01*
G75*
G02*
X25960000Y-60920000I0J125000D01*
G01*
X25960000Y-60670000D01*
G75*
G02*
X26085000Y-60545000I125000J0D01*
G01*
X27735000Y-60545000D01*
G75*
G02*
X27860000Y-60670000I0J-125000D01*
G01*
G37*
G04 #@! TD.AperFunction*
G04 #@! TA.AperFunction,SMDPad,CuDef*
G36*
G01*
X27860000Y-60020000D02*
X27860000Y-60270000D01*
G75*
G02*
X27735000Y-60395000I-125000J0D01*
G01*
X26085000Y-60395000D01*
G75*
G02*
X25960000Y-60270000I0J125000D01*
G01*
X25960000Y-60020000D01*
G75*
G02*
X26085000Y-59895000I125000J0D01*
G01*
X27735000Y-59895000D01*
G75*
G02*
X27860000Y-60020000I0J-125000D01*
G01*
G37*
G04 #@! TD.AperFunction*
G04 #@! TA.AperFunction,SMDPad,CuDef*
G36*
G01*
X27860000Y-59370000D02*
X27860000Y-59620000D01*
G75*
G02*
X27735000Y-59745000I-125000J0D01*
G01*
X26085000Y-59745000D01*
G75*
G02*
X25960000Y-59620000I0J125000D01*
G01*
X25960000Y-59370000D01*
G75*
G02*
X26085000Y-59245000I125000J0D01*
G01*
X27735000Y-59245000D01*
G75*
G02*
X27860000Y-59370000I0J-125000D01*
G01*
G37*
G04 #@! TD.AperFunction*
G04 #@! TA.AperFunction,SMDPad,CuDef*
G36*
G01*
X27860000Y-58720000D02*
X27860000Y-58970000D01*
G75*
G02*
X27735000Y-59095000I-125000J0D01*
G01*
X26085000Y-59095000D01*
G75*
G02*
X25960000Y-58970000I0J125000D01*
G01*
X25960000Y-58720000D01*
G75*
G02*
X26085000Y-58595000I125000J0D01*
G01*
X27735000Y-58595000D01*
G75*
G02*
X27860000Y-58720000I0J-125000D01*
G01*
G37*
G04 #@! TD.AperFunction*
G04 #@! TA.AperFunction,SMDPad,CuDef*
G36*
G01*
X27860000Y-58070000D02*
X27860000Y-58320000D01*
G75*
G02*
X27735000Y-58445000I-125000J0D01*
G01*
X26085000Y-58445000D01*
G75*
G02*
X25960000Y-58320000I0J125000D01*
G01*
X25960000Y-58070000D01*
G75*
G02*
X26085000Y-57945000I125000J0D01*
G01*
X27735000Y-57945000D01*
G75*
G02*
X27860000Y-58070000I0J-125000D01*
G01*
G37*
G04 #@! TD.AperFunction*
G04 #@! TA.AperFunction,SMDPad,CuDef*
G36*
G01*
X27860000Y-57420000D02*
X27860000Y-57670000D01*
G75*
G02*
X27735000Y-57795000I-125000J0D01*
G01*
X26085000Y-57795000D01*
G75*
G02*
X25960000Y-57670000I0J125000D01*
G01*
X25960000Y-57420000D01*
G75*
G02*
X26085000Y-57295000I125000J0D01*
G01*
X27735000Y-57295000D01*
G75*
G02*
X27860000Y-57420000I0J-125000D01*
G01*
G37*
G04 #@! TD.AperFunction*
G04 #@! TA.AperFunction,SMDPad,CuDef*
G36*
G01*
X34860000Y-57420000D02*
X34860000Y-57670000D01*
G75*
G02*
X34735000Y-57795000I-125000J0D01*
G01*
X33085000Y-57795000D01*
G75*
G02*
X32960000Y-57670000I0J125000D01*
G01*
X32960000Y-57420000D01*
G75*
G02*
X33085000Y-57295000I125000J0D01*
G01*
X34735000Y-57295000D01*
G75*
G02*
X34860000Y-57420000I0J-125000D01*
G01*
G37*
G04 #@! TD.AperFunction*
G04 #@! TA.AperFunction,SMDPad,CuDef*
G36*
G01*
X34860000Y-58070000D02*
X34860000Y-58320000D01*
G75*
G02*
X34735000Y-58445000I-125000J0D01*
G01*
X33085000Y-58445000D01*
G75*
G02*
X32960000Y-58320000I0J125000D01*
G01*
X32960000Y-58070000D01*
G75*
G02*
X33085000Y-57945000I125000J0D01*
G01*
X34735000Y-57945000D01*
G75*
G02*
X34860000Y-58070000I0J-125000D01*
G01*
G37*
G04 #@! TD.AperFunction*
G04 #@! TA.AperFunction,SMDPad,CuDef*
G36*
G01*
X34860000Y-58720000D02*
X34860000Y-58970000D01*
G75*
G02*
X34735000Y-59095000I-125000J0D01*
G01*
X33085000Y-59095000D01*
G75*
G02*
X32960000Y-58970000I0J125000D01*
G01*
X32960000Y-58720000D01*
G75*
G02*
X33085000Y-58595000I125000J0D01*
G01*
X34735000Y-58595000D01*
G75*
G02*
X34860000Y-58720000I0J-125000D01*
G01*
G37*
G04 #@! TD.AperFunction*
G04 #@! TA.AperFunction,SMDPad,CuDef*
G36*
G01*
X34860000Y-59370000D02*
X34860000Y-59620000D01*
G75*
G02*
X34735000Y-59745000I-125000J0D01*
G01*
X33085000Y-59745000D01*
G75*
G02*
X32960000Y-59620000I0J125000D01*
G01*
X32960000Y-59370000D01*
G75*
G02*
X33085000Y-59245000I125000J0D01*
G01*
X34735000Y-59245000D01*
G75*
G02*
X34860000Y-59370000I0J-125000D01*
G01*
G37*
G04 #@! TD.AperFunction*
G04 #@! TA.AperFunction,SMDPad,CuDef*
G36*
G01*
X34860000Y-60020000D02*
X34860000Y-60270000D01*
G75*
G02*
X34735000Y-60395000I-125000J0D01*
G01*
X33085000Y-60395000D01*
G75*
G02*
X32960000Y-60270000I0J125000D01*
G01*
X32960000Y-60020000D01*
G75*
G02*
X33085000Y-59895000I125000J0D01*
G01*
X34735000Y-59895000D01*
G75*
G02*
X34860000Y-60020000I0J-125000D01*
G01*
G37*
G04 #@! TD.AperFunction*
G04 #@! TA.AperFunction,SMDPad,CuDef*
G36*
G01*
X34860000Y-60670000D02*
X34860000Y-60920000D01*
G75*
G02*
X34735000Y-61045000I-125000J0D01*
G01*
X33085000Y-61045000D01*
G75*
G02*
X32960000Y-60920000I0J125000D01*
G01*
X32960000Y-60670000D01*
G75*
G02*
X33085000Y-60545000I125000J0D01*
G01*
X34735000Y-60545000D01*
G75*
G02*
X34860000Y-60670000I0J-125000D01*
G01*
G37*
G04 #@! TD.AperFunction*
G04 #@! TA.AperFunction,SMDPad,CuDef*
G36*
G01*
X34860000Y-61320000D02*
X34860000Y-61570000D01*
G75*
G02*
X34735000Y-61695000I-125000J0D01*
G01*
X33085000Y-61695000D01*
G75*
G02*
X32960000Y-61570000I0J125000D01*
G01*
X32960000Y-61320000D01*
G75*
G02*
X33085000Y-61195000I125000J0D01*
G01*
X34735000Y-61195000D01*
G75*
G02*
X34860000Y-61320000I0J-125000D01*
G01*
G37*
G04 #@! TD.AperFunction*
G04 #@! TA.AperFunction,SMDPad,CuDef*
G36*
G01*
X34860000Y-61970000D02*
X34860000Y-62220000D01*
G75*
G02*
X34735000Y-62345000I-125000J0D01*
G01*
X33085000Y-62345000D01*
G75*
G02*
X32960000Y-62220000I0J125000D01*
G01*
X32960000Y-61970000D01*
G75*
G02*
X33085000Y-61845000I125000J0D01*
G01*
X34735000Y-61845000D01*
G75*
G02*
X34860000Y-61970000I0J-125000D01*
G01*
G37*
G04 #@! TD.AperFunction*
G04 #@! TA.AperFunction,SMDPad,CuDef*
G36*
G01*
X34860000Y-62620000D02*
X34860000Y-62870000D01*
G75*
G02*
X34735000Y-62995000I-125000J0D01*
G01*
X33085000Y-62995000D01*
G75*
G02*
X32960000Y-62870000I0J125000D01*
G01*
X32960000Y-62620000D01*
G75*
G02*
X33085000Y-62495000I125000J0D01*
G01*
X34735000Y-62495000D01*
G75*
G02*
X34860000Y-62620000I0J-125000D01*
G01*
G37*
G04 #@! TD.AperFunction*
G04 #@! TA.AperFunction,SMDPad,CuDef*
G36*
G01*
X34860000Y-63270000D02*
X34860000Y-63520000D01*
G75*
G02*
X34735000Y-63645000I-125000J0D01*
G01*
X33085000Y-63645000D01*
G75*
G02*
X32960000Y-63520000I0J125000D01*
G01*
X32960000Y-63270000D01*
G75*
G02*
X33085000Y-63145000I125000J0D01*
G01*
X34735000Y-63145000D01*
G75*
G02*
X34860000Y-63270000I0J-125000D01*
G01*
G37*
G04 #@! TD.AperFunction*
G04 #@! TA.AperFunction,ComponentPad*
G36*
G01*
X37020000Y-52880000D02*
X37020000Y-54400000D01*
G75*
G02*
X36770000Y-54650000I-250000J0D01*
G01*
X35770000Y-54650000D01*
G75*
G02*
X35520000Y-54400000I0J250000D01*
G01*
X35520000Y-52880000D01*
G75*
G02*
X35770000Y-52630000I250000J0D01*
G01*
X36770000Y-52630000D01*
G75*
G02*
X37020000Y-52880000I0J-250000D01*
G01*
G37*
G04 #@! TD.AperFunction*
X33270000Y-53640000D03*
X30270000Y-53640000D03*
X27270000Y-53640000D03*
G04 #@! TA.AperFunction,SMDPad,CuDef*
G36*
G01*
X37545000Y-61060000D02*
X36595000Y-61060000D01*
G75*
G02*
X36345000Y-60810000I0J250000D01*
G01*
X36345000Y-60310000D01*
G75*
G02*
X36595000Y-60060000I250000J0D01*
G01*
X37545000Y-60060000D01*
G75*
G02*
X37795000Y-60310000I0J-250000D01*
G01*
X37795000Y-60810000D01*
G75*
G02*
X37545000Y-61060000I-250000J0D01*
G01*
G37*
G04 #@! TD.AperFunction*
G04 #@! TA.AperFunction,SMDPad,CuDef*
G36*
G01*
X37545000Y-62960000D02*
X36595000Y-62960000D01*
G75*
G02*
X36345000Y-62710000I0J250000D01*
G01*
X36345000Y-62210000D01*
G75*
G02*
X36595000Y-61960000I250000J0D01*
G01*
X37545000Y-61960000D01*
G75*
G02*
X37795000Y-62210000I0J-250000D01*
G01*
X37795000Y-62710000D01*
G75*
G02*
X37545000Y-62960000I-250000J0D01*
G01*
G37*
G04 #@! TD.AperFunction*
G04 #@! TA.AperFunction,SMDPad,CuDef*
G36*
G01*
X91480000Y-45160000D02*
X91480000Y-45410000D01*
G75*
G02*
X91355000Y-45535000I-125000J0D01*
G01*
X89705000Y-45535000D01*
G75*
G02*
X89580000Y-45410000I0J125000D01*
G01*
X89580000Y-45160000D01*
G75*
G02*
X89705000Y-45035000I125000J0D01*
G01*
X91355000Y-45035000D01*
G75*
G02*
X91480000Y-45160000I0J-125000D01*
G01*
G37*
G04 #@! TD.AperFunction*
G04 #@! TA.AperFunction,SMDPad,CuDef*
G36*
G01*
X91480000Y-44510000D02*
X91480000Y-44760000D01*
G75*
G02*
X91355000Y-44885000I-125000J0D01*
G01*
X89705000Y-44885000D01*
G75*
G02*
X89580000Y-44760000I0J125000D01*
G01*
X89580000Y-44510000D01*
G75*
G02*
X89705000Y-44385000I125000J0D01*
G01*
X91355000Y-44385000D01*
G75*
G02*
X91480000Y-44510000I0J-125000D01*
G01*
G37*
G04 #@! TD.AperFunction*
G04 #@! TA.AperFunction,SMDPad,CuDef*
G36*
G01*
X91480000Y-43860000D02*
X91480000Y-44110000D01*
G75*
G02*
X91355000Y-44235000I-125000J0D01*
G01*
X89705000Y-44235000D01*
G75*
G02*
X89580000Y-44110000I0J125000D01*
G01*
X89580000Y-43860000D01*
G75*
G02*
X89705000Y-43735000I125000J0D01*
G01*
X91355000Y-43735000D01*
G75*
G02*
X91480000Y-43860000I0J-125000D01*
G01*
G37*
G04 #@! TD.AperFunction*
G04 #@! TA.AperFunction,SMDPad,CuDef*
G36*
G01*
X91480000Y-43210000D02*
X91480000Y-43460000D01*
G75*
G02*
X91355000Y-43585000I-125000J0D01*
G01*
X89705000Y-43585000D01*
G75*
G02*
X89580000Y-43460000I0J125000D01*
G01*
X89580000Y-43210000D01*
G75*
G02*
X89705000Y-43085000I125000J0D01*
G01*
X91355000Y-43085000D01*
G75*
G02*
X91480000Y-43210000I0J-125000D01*
G01*
G37*
G04 #@! TD.AperFunction*
G04 #@! TA.AperFunction,SMDPad,CuDef*
G36*
G01*
X91480000Y-42560000D02*
X91480000Y-42810000D01*
G75*
G02*
X91355000Y-42935000I-125000J0D01*
G01*
X89705000Y-42935000D01*
G75*
G02*
X89580000Y-42810000I0J125000D01*
G01*
X89580000Y-42560000D01*
G75*
G02*
X89705000Y-42435000I125000J0D01*
G01*
X91355000Y-42435000D01*
G75*
G02*
X91480000Y-42560000I0J-125000D01*
G01*
G37*
G04 #@! TD.AperFunction*
G04 #@! TA.AperFunction,SMDPad,CuDef*
G36*
G01*
X91480000Y-41910000D02*
X91480000Y-42160000D01*
G75*
G02*
X91355000Y-42285000I-125000J0D01*
G01*
X89705000Y-42285000D01*
G75*
G02*
X89580000Y-42160000I0J125000D01*
G01*
X89580000Y-41910000D01*
G75*
G02*
X89705000Y-41785000I125000J0D01*
G01*
X91355000Y-41785000D01*
G75*
G02*
X91480000Y-41910000I0J-125000D01*
G01*
G37*
G04 #@! TD.AperFunction*
G04 #@! TA.AperFunction,SMDPad,CuDef*
G36*
G01*
X91480000Y-41260000D02*
X91480000Y-41510000D01*
G75*
G02*
X91355000Y-41635000I-125000J0D01*
G01*
X89705000Y-41635000D01*
G75*
G02*
X89580000Y-41510000I0J125000D01*
G01*
X89580000Y-41260000D01*
G75*
G02*
X89705000Y-41135000I125000J0D01*
G01*
X91355000Y-41135000D01*
G75*
G02*
X91480000Y-41260000I0J-125000D01*
G01*
G37*
G04 #@! TD.AperFunction*
G04 #@! TA.AperFunction,SMDPad,CuDef*
G36*
G01*
X91480000Y-40610000D02*
X91480000Y-40860000D01*
G75*
G02*
X91355000Y-40985000I-125000J0D01*
G01*
X89705000Y-40985000D01*
G75*
G02*
X89580000Y-40860000I0J125000D01*
G01*
X89580000Y-40610000D01*
G75*
G02*
X89705000Y-40485000I125000J0D01*
G01*
X91355000Y-40485000D01*
G75*
G02*
X91480000Y-40610000I0J-125000D01*
G01*
G37*
G04 #@! TD.AperFunction*
G04 #@! TA.AperFunction,SMDPad,CuDef*
G36*
G01*
X91480000Y-39960000D02*
X91480000Y-40210000D01*
G75*
G02*
X91355000Y-40335000I-125000J0D01*
G01*
X89705000Y-40335000D01*
G75*
G02*
X89580000Y-40210000I0J125000D01*
G01*
X89580000Y-39960000D01*
G75*
G02*
X89705000Y-39835000I125000J0D01*
G01*
X91355000Y-39835000D01*
G75*
G02*
X91480000Y-39960000I0J-125000D01*
G01*
G37*
G04 #@! TD.AperFunction*
G04 #@! TA.AperFunction,SMDPad,CuDef*
G36*
G01*
X91480000Y-39310000D02*
X91480000Y-39560000D01*
G75*
G02*
X91355000Y-39685000I-125000J0D01*
G01*
X89705000Y-39685000D01*
G75*
G02*
X89580000Y-39560000I0J125000D01*
G01*
X89580000Y-39310000D01*
G75*
G02*
X89705000Y-39185000I125000J0D01*
G01*
X91355000Y-39185000D01*
G75*
G02*
X91480000Y-39310000I0J-125000D01*
G01*
G37*
G04 #@! TD.AperFunction*
G04 #@! TA.AperFunction,SMDPad,CuDef*
G36*
G01*
X84480000Y-39310000D02*
X84480000Y-39560000D01*
G75*
G02*
X84355000Y-39685000I-125000J0D01*
G01*
X82705000Y-39685000D01*
G75*
G02*
X82580000Y-39560000I0J125000D01*
G01*
X82580000Y-39310000D01*
G75*
G02*
X82705000Y-39185000I125000J0D01*
G01*
X84355000Y-39185000D01*
G75*
G02*
X84480000Y-39310000I0J-125000D01*
G01*
G37*
G04 #@! TD.AperFunction*
G04 #@! TA.AperFunction,SMDPad,CuDef*
G36*
G01*
X84480000Y-39960000D02*
X84480000Y-40210000D01*
G75*
G02*
X84355000Y-40335000I-125000J0D01*
G01*
X82705000Y-40335000D01*
G75*
G02*
X82580000Y-40210000I0J125000D01*
G01*
X82580000Y-39960000D01*
G75*
G02*
X82705000Y-39835000I125000J0D01*
G01*
X84355000Y-39835000D01*
G75*
G02*
X84480000Y-39960000I0J-125000D01*
G01*
G37*
G04 #@! TD.AperFunction*
G04 #@! TA.AperFunction,SMDPad,CuDef*
G36*
G01*
X84480000Y-40610000D02*
X84480000Y-40860000D01*
G75*
G02*
X84355000Y-40985000I-125000J0D01*
G01*
X82705000Y-40985000D01*
G75*
G02*
X82580000Y-40860000I0J125000D01*
G01*
X82580000Y-40610000D01*
G75*
G02*
X82705000Y-40485000I125000J0D01*
G01*
X84355000Y-40485000D01*
G75*
G02*
X84480000Y-40610000I0J-125000D01*
G01*
G37*
G04 #@! TD.AperFunction*
G04 #@! TA.AperFunction,SMDPad,CuDef*
G36*
G01*
X84480000Y-41260000D02*
X84480000Y-41510000D01*
G75*
G02*
X84355000Y-41635000I-125000J0D01*
G01*
X82705000Y-41635000D01*
G75*
G02*
X82580000Y-41510000I0J125000D01*
G01*
X82580000Y-41260000D01*
G75*
G02*
X82705000Y-41135000I125000J0D01*
G01*
X84355000Y-41135000D01*
G75*
G02*
X84480000Y-41260000I0J-125000D01*
G01*
G37*
G04 #@! TD.AperFunction*
G04 #@! TA.AperFunction,SMDPad,CuDef*
G36*
G01*
X84480000Y-41910000D02*
X84480000Y-42160000D01*
G75*
G02*
X84355000Y-42285000I-125000J0D01*
G01*
X82705000Y-42285000D01*
G75*
G02*
X82580000Y-42160000I0J125000D01*
G01*
X82580000Y-41910000D01*
G75*
G02*
X82705000Y-41785000I125000J0D01*
G01*
X84355000Y-41785000D01*
G75*
G02*
X84480000Y-41910000I0J-125000D01*
G01*
G37*
G04 #@! TD.AperFunction*
G04 #@! TA.AperFunction,SMDPad,CuDef*
G36*
G01*
X84480000Y-42560000D02*
X84480000Y-42810000D01*
G75*
G02*
X84355000Y-42935000I-125000J0D01*
G01*
X82705000Y-42935000D01*
G75*
G02*
X82580000Y-42810000I0J125000D01*
G01*
X82580000Y-42560000D01*
G75*
G02*
X82705000Y-42435000I125000J0D01*
G01*
X84355000Y-42435000D01*
G75*
G02*
X84480000Y-42560000I0J-125000D01*
G01*
G37*
G04 #@! TD.AperFunction*
G04 #@! TA.AperFunction,SMDPad,CuDef*
G36*
G01*
X84480000Y-43210000D02*
X84480000Y-43460000D01*
G75*
G02*
X84355000Y-43585000I-125000J0D01*
G01*
X82705000Y-43585000D01*
G75*
G02*
X82580000Y-43460000I0J125000D01*
G01*
X82580000Y-43210000D01*
G75*
G02*
X82705000Y-43085000I125000J0D01*
G01*
X84355000Y-43085000D01*
G75*
G02*
X84480000Y-43210000I0J-125000D01*
G01*
G37*
G04 #@! TD.AperFunction*
G04 #@! TA.AperFunction,SMDPad,CuDef*
G36*
G01*
X84480000Y-43860000D02*
X84480000Y-44110000D01*
G75*
G02*
X84355000Y-44235000I-125000J0D01*
G01*
X82705000Y-44235000D01*
G75*
G02*
X82580000Y-44110000I0J125000D01*
G01*
X82580000Y-43860000D01*
G75*
G02*
X82705000Y-43735000I125000J0D01*
G01*
X84355000Y-43735000D01*
G75*
G02*
X84480000Y-43860000I0J-125000D01*
G01*
G37*
G04 #@! TD.AperFunction*
G04 #@! TA.AperFunction,SMDPad,CuDef*
G36*
G01*
X84480000Y-44510000D02*
X84480000Y-44760000D01*
G75*
G02*
X84355000Y-44885000I-125000J0D01*
G01*
X82705000Y-44885000D01*
G75*
G02*
X82580000Y-44760000I0J125000D01*
G01*
X82580000Y-44510000D01*
G75*
G02*
X82705000Y-44385000I125000J0D01*
G01*
X84355000Y-44385000D01*
G75*
G02*
X84480000Y-44510000I0J-125000D01*
G01*
G37*
G04 #@! TD.AperFunction*
G04 #@! TA.AperFunction,SMDPad,CuDef*
G36*
G01*
X84480000Y-45160000D02*
X84480000Y-45410000D01*
G75*
G02*
X84355000Y-45535000I-125000J0D01*
G01*
X82705000Y-45535000D01*
G75*
G02*
X82580000Y-45410000I0J125000D01*
G01*
X82580000Y-45160000D01*
G75*
G02*
X82705000Y-45035000I125000J0D01*
G01*
X84355000Y-45035000D01*
G75*
G02*
X84480000Y-45160000I0J-125000D01*
G01*
G37*
G04 #@! TD.AperFunction*
X83890000Y-35530000D03*
X86890000Y-35530000D03*
X89890000Y-35530000D03*
G04 #@! TA.AperFunction,ComponentPad*
G36*
G01*
X93640000Y-34770000D02*
X93640000Y-36290000D01*
G75*
G02*
X93390000Y-36540000I-250000J0D01*
G01*
X92390000Y-36540000D01*
G75*
G02*
X92140000Y-36290000I0J250000D01*
G01*
X92140000Y-34770000D01*
G75*
G02*
X92390000Y-34520000I250000J0D01*
G01*
X93390000Y-34520000D01*
G75*
G02*
X93640000Y-34770000I0J-250000D01*
G01*
G37*
G04 #@! TD.AperFunction*
G04 #@! TA.AperFunction,SMDPad,CuDef*
G36*
G01*
X94185000Y-44850000D02*
X93235000Y-44850000D01*
G75*
G02*
X92985000Y-44600000I0J250000D01*
G01*
X92985000Y-44100000D01*
G75*
G02*
X93235000Y-43850000I250000J0D01*
G01*
X94185000Y-43850000D01*
G75*
G02*
X94435000Y-44100000I0J-250000D01*
G01*
X94435000Y-44600000D01*
G75*
G02*
X94185000Y-44850000I-250000J0D01*
G01*
G37*
G04 #@! TD.AperFunction*
G04 #@! TA.AperFunction,SMDPad,CuDef*
G36*
G01*
X94185000Y-42950000D02*
X93235000Y-42950000D01*
G75*
G02*
X92985000Y-42700000I0J250000D01*
G01*
X92985000Y-42200000D01*
G75*
G02*
X93235000Y-41950000I250000J0D01*
G01*
X94185000Y-41950000D01*
G75*
G02*
X94435000Y-42200000I0J-250000D01*
G01*
X94435000Y-42700000D01*
G75*
G02*
X94185000Y-42950000I-250000J0D01*
G01*
G37*
G04 #@! TD.AperFunction*
G04 #@! TA.AperFunction,SMDPad,CuDef*
G36*
G01*
X66460000Y-38210000D02*
X66460000Y-38460000D01*
G75*
G02*
X66335000Y-38585000I-125000J0D01*
G01*
X64685000Y-38585000D01*
G75*
G02*
X64560000Y-38460000I0J125000D01*
G01*
X64560000Y-38210000D01*
G75*
G02*
X64685000Y-38085000I125000J0D01*
G01*
X66335000Y-38085000D01*
G75*
G02*
X66460000Y-38210000I0J-125000D01*
G01*
G37*
G04 #@! TD.AperFunction*
G04 #@! TA.AperFunction,SMDPad,CuDef*
G36*
G01*
X66460000Y-37560000D02*
X66460000Y-37810000D01*
G75*
G02*
X66335000Y-37935000I-125000J0D01*
G01*
X64685000Y-37935000D01*
G75*
G02*
X64560000Y-37810000I0J125000D01*
G01*
X64560000Y-37560000D01*
G75*
G02*
X64685000Y-37435000I125000J0D01*
G01*
X66335000Y-37435000D01*
G75*
G02*
X66460000Y-37560000I0J-125000D01*
G01*
G37*
G04 #@! TD.AperFunction*
G04 #@! TA.AperFunction,SMDPad,CuDef*
G36*
G01*
X66460000Y-36910000D02*
X66460000Y-37160000D01*
G75*
G02*
X66335000Y-37285000I-125000J0D01*
G01*
X64685000Y-37285000D01*
G75*
G02*
X64560000Y-37160000I0J125000D01*
G01*
X64560000Y-36910000D01*
G75*
G02*
X64685000Y-36785000I125000J0D01*
G01*
X66335000Y-36785000D01*
G75*
G02*
X66460000Y-36910000I0J-125000D01*
G01*
G37*
G04 #@! TD.AperFunction*
G04 #@! TA.AperFunction,SMDPad,CuDef*
G36*
G01*
X66460000Y-36260000D02*
X66460000Y-36510000D01*
G75*
G02*
X66335000Y-36635000I-125000J0D01*
G01*
X64685000Y-36635000D01*
G75*
G02*
X64560000Y-36510000I0J125000D01*
G01*
X64560000Y-36260000D01*
G75*
G02*
X64685000Y-36135000I125000J0D01*
G01*
X66335000Y-36135000D01*
G75*
G02*
X66460000Y-36260000I0J-125000D01*
G01*
G37*
G04 #@! TD.AperFunction*
G04 #@! TA.AperFunction,SMDPad,CuDef*
G36*
G01*
X66460000Y-35610000D02*
X66460000Y-35860000D01*
G75*
G02*
X66335000Y-35985000I-125000J0D01*
G01*
X64685000Y-35985000D01*
G75*
G02*
X64560000Y-35860000I0J125000D01*
G01*
X64560000Y-35610000D01*
G75*
G02*
X64685000Y-35485000I125000J0D01*
G01*
X66335000Y-35485000D01*
G75*
G02*
X66460000Y-35610000I0J-125000D01*
G01*
G37*
G04 #@! TD.AperFunction*
G04 #@! TA.AperFunction,SMDPad,CuDef*
G36*
G01*
X66460000Y-34960000D02*
X66460000Y-35210000D01*
G75*
G02*
X66335000Y-35335000I-125000J0D01*
G01*
X64685000Y-35335000D01*
G75*
G02*
X64560000Y-35210000I0J125000D01*
G01*
X64560000Y-34960000D01*
G75*
G02*
X64685000Y-34835000I125000J0D01*
G01*
X66335000Y-34835000D01*
G75*
G02*
X66460000Y-34960000I0J-125000D01*
G01*
G37*
G04 #@! TD.AperFunction*
G04 #@! TA.AperFunction,SMDPad,CuDef*
G36*
G01*
X66460000Y-34310000D02*
X66460000Y-34560000D01*
G75*
G02*
X66335000Y-34685000I-125000J0D01*
G01*
X64685000Y-34685000D01*
G75*
G02*
X64560000Y-34560000I0J125000D01*
G01*
X64560000Y-34310000D01*
G75*
G02*
X64685000Y-34185000I125000J0D01*
G01*
X66335000Y-34185000D01*
G75*
G02*
X66460000Y-34310000I0J-125000D01*
G01*
G37*
G04 #@! TD.AperFunction*
G04 #@! TA.AperFunction,SMDPad,CuDef*
G36*
G01*
X66460000Y-33660000D02*
X66460000Y-33910000D01*
G75*
G02*
X66335000Y-34035000I-125000J0D01*
G01*
X64685000Y-34035000D01*
G75*
G02*
X64560000Y-33910000I0J125000D01*
G01*
X64560000Y-33660000D01*
G75*
G02*
X64685000Y-33535000I125000J0D01*
G01*
X66335000Y-33535000D01*
G75*
G02*
X66460000Y-33660000I0J-125000D01*
G01*
G37*
G04 #@! TD.AperFunction*
G04 #@! TA.AperFunction,SMDPad,CuDef*
G36*
G01*
X66460000Y-33010000D02*
X66460000Y-33260000D01*
G75*
G02*
X66335000Y-33385000I-125000J0D01*
G01*
X64685000Y-33385000D01*
G75*
G02*
X64560000Y-33260000I0J125000D01*
G01*
X64560000Y-33010000D01*
G75*
G02*
X64685000Y-32885000I125000J0D01*
G01*
X66335000Y-32885000D01*
G75*
G02*
X66460000Y-33010000I0J-125000D01*
G01*
G37*
G04 #@! TD.AperFunction*
G04 #@! TA.AperFunction,SMDPad,CuDef*
G36*
G01*
X66460000Y-32360000D02*
X66460000Y-32610000D01*
G75*
G02*
X66335000Y-32735000I-125000J0D01*
G01*
X64685000Y-32735000D01*
G75*
G02*
X64560000Y-32610000I0J125000D01*
G01*
X64560000Y-32360000D01*
G75*
G02*
X64685000Y-32235000I125000J0D01*
G01*
X66335000Y-32235000D01*
G75*
G02*
X66460000Y-32360000I0J-125000D01*
G01*
G37*
G04 #@! TD.AperFunction*
G04 #@! TA.AperFunction,SMDPad,CuDef*
G36*
G01*
X73460000Y-32360000D02*
X73460000Y-32610000D01*
G75*
G02*
X73335000Y-32735000I-125000J0D01*
G01*
X71685000Y-32735000D01*
G75*
G02*
X71560000Y-32610000I0J125000D01*
G01*
X71560000Y-32360000D01*
G75*
G02*
X71685000Y-32235000I125000J0D01*
G01*
X73335000Y-32235000D01*
G75*
G02*
X73460000Y-32360000I0J-125000D01*
G01*
G37*
G04 #@! TD.AperFunction*
G04 #@! TA.AperFunction,SMDPad,CuDef*
G36*
G01*
X73460000Y-33010000D02*
X73460000Y-33260000D01*
G75*
G02*
X73335000Y-33385000I-125000J0D01*
G01*
X71685000Y-33385000D01*
G75*
G02*
X71560000Y-33260000I0J125000D01*
G01*
X71560000Y-33010000D01*
G75*
G02*
X71685000Y-32885000I125000J0D01*
G01*
X73335000Y-32885000D01*
G75*
G02*
X73460000Y-33010000I0J-125000D01*
G01*
G37*
G04 #@! TD.AperFunction*
G04 #@! TA.AperFunction,SMDPad,CuDef*
G36*
G01*
X73460000Y-33660000D02*
X73460000Y-33910000D01*
G75*
G02*
X73335000Y-34035000I-125000J0D01*
G01*
X71685000Y-34035000D01*
G75*
G02*
X71560000Y-33910000I0J125000D01*
G01*
X71560000Y-33660000D01*
G75*
G02*
X71685000Y-33535000I125000J0D01*
G01*
X73335000Y-33535000D01*
G75*
G02*
X73460000Y-33660000I0J-125000D01*
G01*
G37*
G04 #@! TD.AperFunction*
G04 #@! TA.AperFunction,SMDPad,CuDef*
G36*
G01*
X73460000Y-34310000D02*
X73460000Y-34560000D01*
G75*
G02*
X73335000Y-34685000I-125000J0D01*
G01*
X71685000Y-34685000D01*
G75*
G02*
X71560000Y-34560000I0J125000D01*
G01*
X71560000Y-34310000D01*
G75*
G02*
X71685000Y-34185000I125000J0D01*
G01*
X73335000Y-34185000D01*
G75*
G02*
X73460000Y-34310000I0J-125000D01*
G01*
G37*
G04 #@! TD.AperFunction*
G04 #@! TA.AperFunction,SMDPad,CuDef*
G36*
G01*
X73460000Y-34960000D02*
X73460000Y-35210000D01*
G75*
G02*
X73335000Y-35335000I-125000J0D01*
G01*
X71685000Y-35335000D01*
G75*
G02*
X71560000Y-35210000I0J125000D01*
G01*
X71560000Y-34960000D01*
G75*
G02*
X71685000Y-34835000I125000J0D01*
G01*
X73335000Y-34835000D01*
G75*
G02*
X73460000Y-34960000I0J-125000D01*
G01*
G37*
G04 #@! TD.AperFunction*
G04 #@! TA.AperFunction,SMDPad,CuDef*
G36*
G01*
X73460000Y-35610000D02*
X73460000Y-35860000D01*
G75*
G02*
X73335000Y-35985000I-125000J0D01*
G01*
X71685000Y-35985000D01*
G75*
G02*
X71560000Y-35860000I0J125000D01*
G01*
X71560000Y-35610000D01*
G75*
G02*
X71685000Y-35485000I125000J0D01*
G01*
X73335000Y-35485000D01*
G75*
G02*
X73460000Y-35610000I0J-125000D01*
G01*
G37*
G04 #@! TD.AperFunction*
G04 #@! TA.AperFunction,SMDPad,CuDef*
G36*
G01*
X73460000Y-36260000D02*
X73460000Y-36510000D01*
G75*
G02*
X73335000Y-36635000I-125000J0D01*
G01*
X71685000Y-36635000D01*
G75*
G02*
X71560000Y-36510000I0J125000D01*
G01*
X71560000Y-36260000D01*
G75*
G02*
X71685000Y-36135000I125000J0D01*
G01*
X73335000Y-36135000D01*
G75*
G02*
X73460000Y-36260000I0J-125000D01*
G01*
G37*
G04 #@! TD.AperFunction*
G04 #@! TA.AperFunction,SMDPad,CuDef*
G36*
G01*
X73460000Y-36910000D02*
X73460000Y-37160000D01*
G75*
G02*
X73335000Y-37285000I-125000J0D01*
G01*
X71685000Y-37285000D01*
G75*
G02*
X71560000Y-37160000I0J125000D01*
G01*
X71560000Y-36910000D01*
G75*
G02*
X71685000Y-36785000I125000J0D01*
G01*
X73335000Y-36785000D01*
G75*
G02*
X73460000Y-36910000I0J-125000D01*
G01*
G37*
G04 #@! TD.AperFunction*
G04 #@! TA.AperFunction,SMDPad,CuDef*
G36*
G01*
X73460000Y-37560000D02*
X73460000Y-37810000D01*
G75*
G02*
X73335000Y-37935000I-125000J0D01*
G01*
X71685000Y-37935000D01*
G75*
G02*
X71560000Y-37810000I0J125000D01*
G01*
X71560000Y-37560000D01*
G75*
G02*
X71685000Y-37435000I125000J0D01*
G01*
X73335000Y-37435000D01*
G75*
G02*
X73460000Y-37560000I0J-125000D01*
G01*
G37*
G04 #@! TD.AperFunction*
G04 #@! TA.AperFunction,SMDPad,CuDef*
G36*
G01*
X73460000Y-38210000D02*
X73460000Y-38460000D01*
G75*
G02*
X73335000Y-38585000I-125000J0D01*
G01*
X71685000Y-38585000D01*
G75*
G02*
X71560000Y-38460000I0J125000D01*
G01*
X71560000Y-38210000D01*
G75*
G02*
X71685000Y-38085000I125000J0D01*
G01*
X73335000Y-38085000D01*
G75*
G02*
X73460000Y-38210000I0J-125000D01*
G01*
G37*
G04 #@! TD.AperFunction*
G04 #@! TA.AperFunction,ComponentPad*
G36*
G01*
X75630000Y-27820000D02*
X75630000Y-29340000D01*
G75*
G02*
X75380000Y-29590000I-250000J0D01*
G01*
X74380000Y-29590000D01*
G75*
G02*
X74130000Y-29340000I0J250000D01*
G01*
X74130000Y-27820000D01*
G75*
G02*
X74380000Y-27570000I250000J0D01*
G01*
X75380000Y-27570000D01*
G75*
G02*
X75630000Y-27820000I0J-250000D01*
G01*
G37*
G04 #@! TD.AperFunction*
X71880000Y-28580000D03*
X68880000Y-28580000D03*
X65880000Y-28580000D03*
G04 #@! TA.AperFunction,SMDPad,CuDef*
G36*
G01*
X76165000Y-35980000D02*
X75215000Y-35980000D01*
G75*
G02*
X74965000Y-35730000I0J250000D01*
G01*
X74965000Y-35230000D01*
G75*
G02*
X75215000Y-34980000I250000J0D01*
G01*
X76165000Y-34980000D01*
G75*
G02*
X76415000Y-35230000I0J-250000D01*
G01*
X76415000Y-35730000D01*
G75*
G02*
X76165000Y-35980000I-250000J0D01*
G01*
G37*
G04 #@! TD.AperFunction*
G04 #@! TA.AperFunction,SMDPad,CuDef*
G36*
G01*
X76165000Y-37880000D02*
X75215000Y-37880000D01*
G75*
G02*
X74965000Y-37630000I0J250000D01*
G01*
X74965000Y-37130000D01*
G75*
G02*
X75215000Y-36880000I250000J0D01*
G01*
X76165000Y-36880000D01*
G75*
G02*
X76415000Y-37130000I0J-250000D01*
G01*
X76415000Y-37630000D01*
G75*
G02*
X76165000Y-37880000I-250000J0D01*
G01*
G37*
G04 #@! TD.AperFunction*
G04 #@! TA.AperFunction,ComponentPad*
G36*
G01*
X55040000Y-27790000D02*
X55040000Y-29310000D01*
G75*
G02*
X54790000Y-29560000I-250000J0D01*
G01*
X53790000Y-29560000D01*
G75*
G02*
X53540000Y-29310000I0J250000D01*
G01*
X53540000Y-27790000D01*
G75*
G02*
X53790000Y-27540000I250000J0D01*
G01*
X54790000Y-27540000D01*
G75*
G02*
X55040000Y-27790000I0J-250000D01*
G01*
G37*
G04 #@! TD.AperFunction*
X51290000Y-28550000D03*
X48290000Y-28550000D03*
X45290000Y-28550000D03*
G04 #@! TA.AperFunction,SMDPad,CuDef*
G36*
G01*
X55565000Y-35920000D02*
X54615000Y-35920000D01*
G75*
G02*
X54365000Y-35670000I0J250000D01*
G01*
X54365000Y-35170000D01*
G75*
G02*
X54615000Y-34920000I250000J0D01*
G01*
X55565000Y-34920000D01*
G75*
G02*
X55815000Y-35170000I0J-250000D01*
G01*
X55815000Y-35670000D01*
G75*
G02*
X55565000Y-35920000I-250000J0D01*
G01*
G37*
G04 #@! TD.AperFunction*
G04 #@! TA.AperFunction,SMDPad,CuDef*
G36*
G01*
X55565000Y-37820000D02*
X54615000Y-37820000D01*
G75*
G02*
X54365000Y-37570000I0J250000D01*
G01*
X54365000Y-37070000D01*
G75*
G02*
X54615000Y-36820000I250000J0D01*
G01*
X55565000Y-36820000D01*
G75*
G02*
X55815000Y-37070000I0J-250000D01*
G01*
X55815000Y-37570000D01*
G75*
G02*
X55565000Y-37820000I-250000J0D01*
G01*
G37*
G04 #@! TD.AperFunction*
G04 #@! TA.AperFunction,SMDPad,CuDef*
G36*
G01*
X27820000Y-45220000D02*
X27820000Y-45470000D01*
G75*
G02*
X27695000Y-45595000I-125000J0D01*
G01*
X26045000Y-45595000D01*
G75*
G02*
X25920000Y-45470000I0J125000D01*
G01*
X25920000Y-45220000D01*
G75*
G02*
X26045000Y-45095000I125000J0D01*
G01*
X27695000Y-45095000D01*
G75*
G02*
X27820000Y-45220000I0J-125000D01*
G01*
G37*
G04 #@! TD.AperFunction*
G04 #@! TA.AperFunction,SMDPad,CuDef*
G36*
G01*
X27820000Y-44570000D02*
X27820000Y-44820000D01*
G75*
G02*
X27695000Y-44945000I-125000J0D01*
G01*
X26045000Y-44945000D01*
G75*
G02*
X25920000Y-44820000I0J125000D01*
G01*
X25920000Y-44570000D01*
G75*
G02*
X26045000Y-44445000I125000J0D01*
G01*
X27695000Y-44445000D01*
G75*
G02*
X27820000Y-44570000I0J-125000D01*
G01*
G37*
G04 #@! TD.AperFunction*
G04 #@! TA.AperFunction,SMDPad,CuDef*
G36*
G01*
X27820000Y-43920000D02*
X27820000Y-44170000D01*
G75*
G02*
X27695000Y-44295000I-125000J0D01*
G01*
X26045000Y-44295000D01*
G75*
G02*
X25920000Y-44170000I0J125000D01*
G01*
X25920000Y-43920000D01*
G75*
G02*
X26045000Y-43795000I125000J0D01*
G01*
X27695000Y-43795000D01*
G75*
G02*
X27820000Y-43920000I0J-125000D01*
G01*
G37*
G04 #@! TD.AperFunction*
G04 #@! TA.AperFunction,SMDPad,CuDef*
G36*
G01*
X27820000Y-43270000D02*
X27820000Y-43520000D01*
G75*
G02*
X27695000Y-43645000I-125000J0D01*
G01*
X26045000Y-43645000D01*
G75*
G02*
X25920000Y-43520000I0J125000D01*
G01*
X25920000Y-43270000D01*
G75*
G02*
X26045000Y-43145000I125000J0D01*
G01*
X27695000Y-43145000D01*
G75*
G02*
X27820000Y-43270000I0J-125000D01*
G01*
G37*
G04 #@! TD.AperFunction*
G04 #@! TA.AperFunction,SMDPad,CuDef*
G36*
G01*
X27820000Y-42620000D02*
X27820000Y-42870000D01*
G75*
G02*
X27695000Y-42995000I-125000J0D01*
G01*
X26045000Y-42995000D01*
G75*
G02*
X25920000Y-42870000I0J125000D01*
G01*
X25920000Y-42620000D01*
G75*
G02*
X26045000Y-42495000I125000J0D01*
G01*
X27695000Y-42495000D01*
G75*
G02*
X27820000Y-42620000I0J-125000D01*
G01*
G37*
G04 #@! TD.AperFunction*
G04 #@! TA.AperFunction,SMDPad,CuDef*
G36*
G01*
X27820000Y-41970000D02*
X27820000Y-42220000D01*
G75*
G02*
X27695000Y-42345000I-125000J0D01*
G01*
X26045000Y-42345000D01*
G75*
G02*
X25920000Y-42220000I0J125000D01*
G01*
X25920000Y-41970000D01*
G75*
G02*
X26045000Y-41845000I125000J0D01*
G01*
X27695000Y-41845000D01*
G75*
G02*
X27820000Y-41970000I0J-125000D01*
G01*
G37*
G04 #@! TD.AperFunction*
G04 #@! TA.AperFunction,SMDPad,CuDef*
G36*
G01*
X27820000Y-41320000D02*
X27820000Y-41570000D01*
G75*
G02*
X27695000Y-41695000I-125000J0D01*
G01*
X26045000Y-41695000D01*
G75*
G02*
X25920000Y-41570000I0J125000D01*
G01*
X25920000Y-41320000D01*
G75*
G02*
X26045000Y-41195000I125000J0D01*
G01*
X27695000Y-41195000D01*
G75*
G02*
X27820000Y-41320000I0J-125000D01*
G01*
G37*
G04 #@! TD.AperFunction*
G04 #@! TA.AperFunction,SMDPad,CuDef*
G36*
G01*
X27820000Y-40670000D02*
X27820000Y-40920000D01*
G75*
G02*
X27695000Y-41045000I-125000J0D01*
G01*
X26045000Y-41045000D01*
G75*
G02*
X25920000Y-40920000I0J125000D01*
G01*
X25920000Y-40670000D01*
G75*
G02*
X26045000Y-40545000I125000J0D01*
G01*
X27695000Y-40545000D01*
G75*
G02*
X27820000Y-40670000I0J-125000D01*
G01*
G37*
G04 #@! TD.AperFunction*
G04 #@! TA.AperFunction,SMDPad,CuDef*
G36*
G01*
X27820000Y-40020000D02*
X27820000Y-40270000D01*
G75*
G02*
X27695000Y-40395000I-125000J0D01*
G01*
X26045000Y-40395000D01*
G75*
G02*
X25920000Y-40270000I0J125000D01*
G01*
X25920000Y-40020000D01*
G75*
G02*
X26045000Y-39895000I125000J0D01*
G01*
X27695000Y-39895000D01*
G75*
G02*
X27820000Y-40020000I0J-125000D01*
G01*
G37*
G04 #@! TD.AperFunction*
G04 #@! TA.AperFunction,SMDPad,CuDef*
G36*
G01*
X27820000Y-39370000D02*
X27820000Y-39620000D01*
G75*
G02*
X27695000Y-39745000I-125000J0D01*
G01*
X26045000Y-39745000D01*
G75*
G02*
X25920000Y-39620000I0J125000D01*
G01*
X25920000Y-39370000D01*
G75*
G02*
X26045000Y-39245000I125000J0D01*
G01*
X27695000Y-39245000D01*
G75*
G02*
X27820000Y-39370000I0J-125000D01*
G01*
G37*
G04 #@! TD.AperFunction*
G04 #@! TA.AperFunction,SMDPad,CuDef*
G36*
G01*
X34820000Y-39370000D02*
X34820000Y-39620000D01*
G75*
G02*
X34695000Y-39745000I-125000J0D01*
G01*
X33045000Y-39745000D01*
G75*
G02*
X32920000Y-39620000I0J125000D01*
G01*
X32920000Y-39370000D01*
G75*
G02*
X33045000Y-39245000I125000J0D01*
G01*
X34695000Y-39245000D01*
G75*
G02*
X34820000Y-39370000I0J-125000D01*
G01*
G37*
G04 #@! TD.AperFunction*
G04 #@! TA.AperFunction,SMDPad,CuDef*
G36*
G01*
X34820000Y-40020000D02*
X34820000Y-40270000D01*
G75*
G02*
X34695000Y-40395000I-125000J0D01*
G01*
X33045000Y-40395000D01*
G75*
G02*
X32920000Y-40270000I0J125000D01*
G01*
X32920000Y-40020000D01*
G75*
G02*
X33045000Y-39895000I125000J0D01*
G01*
X34695000Y-39895000D01*
G75*
G02*
X34820000Y-40020000I0J-125000D01*
G01*
G37*
G04 #@! TD.AperFunction*
G04 #@! TA.AperFunction,SMDPad,CuDef*
G36*
G01*
X34820000Y-40670000D02*
X34820000Y-40920000D01*
G75*
G02*
X34695000Y-41045000I-125000J0D01*
G01*
X33045000Y-41045000D01*
G75*
G02*
X32920000Y-40920000I0J125000D01*
G01*
X32920000Y-40670000D01*
G75*
G02*
X33045000Y-40545000I125000J0D01*
G01*
X34695000Y-40545000D01*
G75*
G02*
X34820000Y-40670000I0J-125000D01*
G01*
G37*
G04 #@! TD.AperFunction*
G04 #@! TA.AperFunction,SMDPad,CuDef*
G36*
G01*
X34820000Y-41320000D02*
X34820000Y-41570000D01*
G75*
G02*
X34695000Y-41695000I-125000J0D01*
G01*
X33045000Y-41695000D01*
G75*
G02*
X32920000Y-41570000I0J125000D01*
G01*
X32920000Y-41320000D01*
G75*
G02*
X33045000Y-41195000I125000J0D01*
G01*
X34695000Y-41195000D01*
G75*
G02*
X34820000Y-41320000I0J-125000D01*
G01*
G37*
G04 #@! TD.AperFunction*
G04 #@! TA.AperFunction,SMDPad,CuDef*
G36*
G01*
X34820000Y-41970000D02*
X34820000Y-42220000D01*
G75*
G02*
X34695000Y-42345000I-125000J0D01*
G01*
X33045000Y-42345000D01*
G75*
G02*
X32920000Y-42220000I0J125000D01*
G01*
X32920000Y-41970000D01*
G75*
G02*
X33045000Y-41845000I125000J0D01*
G01*
X34695000Y-41845000D01*
G75*
G02*
X34820000Y-41970000I0J-125000D01*
G01*
G37*
G04 #@! TD.AperFunction*
G04 #@! TA.AperFunction,SMDPad,CuDef*
G36*
G01*
X34820000Y-42620000D02*
X34820000Y-42870000D01*
G75*
G02*
X34695000Y-42995000I-125000J0D01*
G01*
X33045000Y-42995000D01*
G75*
G02*
X32920000Y-42870000I0J125000D01*
G01*
X32920000Y-42620000D01*
G75*
G02*
X33045000Y-42495000I125000J0D01*
G01*
X34695000Y-42495000D01*
G75*
G02*
X34820000Y-42620000I0J-125000D01*
G01*
G37*
G04 #@! TD.AperFunction*
G04 #@! TA.AperFunction,SMDPad,CuDef*
G36*
G01*
X34820000Y-43270000D02*
X34820000Y-43520000D01*
G75*
G02*
X34695000Y-43645000I-125000J0D01*
G01*
X33045000Y-43645000D01*
G75*
G02*
X32920000Y-43520000I0J125000D01*
G01*
X32920000Y-43270000D01*
G75*
G02*
X33045000Y-43145000I125000J0D01*
G01*
X34695000Y-43145000D01*
G75*
G02*
X34820000Y-43270000I0J-125000D01*
G01*
G37*
G04 #@! TD.AperFunction*
G04 #@! TA.AperFunction,SMDPad,CuDef*
G36*
G01*
X34820000Y-43920000D02*
X34820000Y-44170000D01*
G75*
G02*
X34695000Y-44295000I-125000J0D01*
G01*
X33045000Y-44295000D01*
G75*
G02*
X32920000Y-44170000I0J125000D01*
G01*
X32920000Y-43920000D01*
G75*
G02*
X33045000Y-43795000I125000J0D01*
G01*
X34695000Y-43795000D01*
G75*
G02*
X34820000Y-43920000I0J-125000D01*
G01*
G37*
G04 #@! TD.AperFunction*
G04 #@! TA.AperFunction,SMDPad,CuDef*
G36*
G01*
X34820000Y-44570000D02*
X34820000Y-44820000D01*
G75*
G02*
X34695000Y-44945000I-125000J0D01*
G01*
X33045000Y-44945000D01*
G75*
G02*
X32920000Y-44820000I0J125000D01*
G01*
X32920000Y-44570000D01*
G75*
G02*
X33045000Y-44445000I125000J0D01*
G01*
X34695000Y-44445000D01*
G75*
G02*
X34820000Y-44570000I0J-125000D01*
G01*
G37*
G04 #@! TD.AperFunction*
G04 #@! TA.AperFunction,SMDPad,CuDef*
G36*
G01*
X34820000Y-45220000D02*
X34820000Y-45470000D01*
G75*
G02*
X34695000Y-45595000I-125000J0D01*
G01*
X33045000Y-45595000D01*
G75*
G02*
X32920000Y-45470000I0J125000D01*
G01*
X32920000Y-45220000D01*
G75*
G02*
X33045000Y-45095000I125000J0D01*
G01*
X34695000Y-45095000D01*
G75*
G02*
X34820000Y-45220000I0J-125000D01*
G01*
G37*
G04 #@! TD.AperFunction*
G04 #@! TA.AperFunction,ComponentPad*
G36*
G01*
X36990000Y-34790000D02*
X36990000Y-36310000D01*
G75*
G02*
X36740000Y-36560000I-250000J0D01*
G01*
X35740000Y-36560000D01*
G75*
G02*
X35490000Y-36310000I0J250000D01*
G01*
X35490000Y-34790000D01*
G75*
G02*
X35740000Y-34540000I250000J0D01*
G01*
X36740000Y-34540000D01*
G75*
G02*
X36990000Y-34790000I0J-250000D01*
G01*
G37*
G04 #@! TD.AperFunction*
X33240000Y-35550000D03*
X30240000Y-35550000D03*
X27240000Y-35550000D03*
G04 #@! TA.AperFunction,SMDPad,CuDef*
G36*
G01*
X37595000Y-43050000D02*
X36645000Y-43050000D01*
G75*
G02*
X36395000Y-42800000I0J250000D01*
G01*
X36395000Y-42300000D01*
G75*
G02*
X36645000Y-42050000I250000J0D01*
G01*
X37595000Y-42050000D01*
G75*
G02*
X37845000Y-42300000I0J-250000D01*
G01*
X37845000Y-42800000D01*
G75*
G02*
X37595000Y-43050000I-250000J0D01*
G01*
G37*
G04 #@! TD.AperFunction*
G04 #@! TA.AperFunction,SMDPad,CuDef*
G36*
G01*
X37595000Y-44950000D02*
X36645000Y-44950000D01*
G75*
G02*
X36395000Y-44700000I0J250000D01*
G01*
X36395000Y-44200000D01*
G75*
G02*
X36645000Y-43950000I250000J0D01*
G01*
X37595000Y-43950000D01*
G75*
G02*
X37845000Y-44200000I0J-250000D01*
G01*
X37845000Y-44700000D01*
G75*
G02*
X37595000Y-44950000I-250000J0D01*
G01*
G37*
G04 #@! TD.AperFunction*
D15*
X65880000Y-114550000D03*
X63880000Y-115500000D03*
X63880000Y-113600000D03*
D16*
X60165000Y-104125000D03*
X60165000Y-105395000D03*
X60165000Y-106665000D03*
X60165000Y-107935000D03*
X60165000Y-109205000D03*
X60165000Y-110475000D03*
X60165000Y-111745000D03*
X60165000Y-113015000D03*
X60165000Y-114285000D03*
X60165000Y-115555000D03*
X50715000Y-115555000D03*
X50715000Y-114285000D03*
X50715000Y-113015000D03*
X50715000Y-111745000D03*
X50715000Y-110475000D03*
X50715000Y-109205000D03*
X50715000Y-107935000D03*
X50715000Y-106665000D03*
X50715000Y-105395000D03*
X50715000Y-104125000D03*
D17*
X24800000Y-90810000D03*
D18*
X27340000Y-90810000D03*
X29880000Y-90810000D03*
X34960000Y-90810000D03*
X37500000Y-90810000D03*
X40040000Y-90810000D03*
X42580000Y-90810000D03*
D19*
X52380000Y-83615000D03*
D20*
X52380000Y-81075000D03*
X52380000Y-78535000D03*
X52380000Y-75995000D03*
X52380000Y-73455000D03*
X52380000Y-70915000D03*
X52380000Y-68375000D03*
X52380000Y-65835000D03*
X52380000Y-63295000D03*
X52380000Y-60755000D03*
X52380000Y-58215000D03*
X52380000Y-55675000D03*
X52380000Y-53135000D03*
X52380000Y-50595000D03*
X52380000Y-48055000D03*
D19*
X67620000Y-83615000D03*
D20*
X67620000Y-81075000D03*
X67620000Y-78535000D03*
X67620000Y-75995000D03*
X67620000Y-73455000D03*
X67620000Y-70915000D03*
X67620000Y-68375000D03*
X67620000Y-65835000D03*
X67620000Y-63295000D03*
X67620000Y-60755000D03*
X67620000Y-58215000D03*
X67620000Y-55675000D03*
X67620000Y-53135000D03*
X67620000Y-50595000D03*
X67620000Y-48055000D03*
D12*
X41880000Y-103300000D03*
X40850000Y-108920000D03*
X24540000Y-106150000D03*
X33160000Y-101590000D03*
D21*
X90500000Y-86000000D03*
X95000000Y-86000000D03*
X90500000Y-92500000D03*
X95000000Y-92500000D03*
G04 #@! TA.AperFunction,SMDPad,CuDef*
G36*
G01*
X85880000Y-90029999D02*
X85880000Y-90930001D01*
G75*
G02*
X85630001Y-91180000I-249999J0D01*
G01*
X85104999Y-91180000D01*
G75*
G02*
X84855000Y-90930001I0J249999D01*
G01*
X84855000Y-90029999D01*
G75*
G02*
X85104999Y-89780000I249999J0D01*
G01*
X85630001Y-89780000D01*
G75*
G02*
X85880000Y-90029999I0J-249999D01*
G01*
G37*
G04 #@! TD.AperFunction*
G04 #@! TA.AperFunction,SMDPad,CuDef*
G36*
G01*
X87705000Y-90029999D02*
X87705000Y-90930001D01*
G75*
G02*
X87455001Y-91180000I-249999J0D01*
G01*
X86929999Y-91180000D01*
G75*
G02*
X86680000Y-90930001I0J249999D01*
G01*
X86680000Y-90029999D01*
G75*
G02*
X86929999Y-89780000I249999J0D01*
G01*
X87455001Y-89780000D01*
G75*
G02*
X87705000Y-90029999I0J-249999D01*
G01*
G37*
G04 #@! TD.AperFunction*
G04 #@! TA.AperFunction,SMDPad,CuDef*
G36*
G01*
X43583750Y-77120000D02*
X44496250Y-77120000D01*
G75*
G02*
X44740000Y-77363750I0J-243750D01*
G01*
X44740000Y-77851250D01*
G75*
G02*
X44496250Y-78095000I-243750J0D01*
G01*
X43583750Y-78095000D01*
G75*
G02*
X43340000Y-77851250I0J243750D01*
G01*
X43340000Y-77363750D01*
G75*
G02*
X43583750Y-77120000I243750J0D01*
G01*
G37*
G04 #@! TD.AperFunction*
G04 #@! TA.AperFunction,SMDPad,CuDef*
G36*
G01*
X43583750Y-75245000D02*
X44496250Y-75245000D01*
G75*
G02*
X44740000Y-75488750I0J-243750D01*
G01*
X44740000Y-75976250D01*
G75*
G02*
X44496250Y-76220000I-243750J0D01*
G01*
X43583750Y-76220000D01*
G75*
G02*
X43340000Y-75976250I0J243750D01*
G01*
X43340000Y-75488750D01*
G75*
G02*
X43583750Y-75245000I243750J0D01*
G01*
G37*
G04 #@! TD.AperFunction*
G04 #@! TA.AperFunction,SMDPad,CuDef*
G36*
G01*
X44046250Y-59190000D02*
X43133750Y-59190000D01*
G75*
G02*
X42890000Y-58946250I0J243750D01*
G01*
X42890000Y-58458750D01*
G75*
G02*
X43133750Y-58215000I243750J0D01*
G01*
X44046250Y-58215000D01*
G75*
G02*
X44290000Y-58458750I0J-243750D01*
G01*
X44290000Y-58946250D01*
G75*
G02*
X44046250Y-59190000I-243750J0D01*
G01*
G37*
G04 #@! TD.AperFunction*
G04 #@! TA.AperFunction,SMDPad,CuDef*
G36*
G01*
X44046250Y-61065000D02*
X43133750Y-61065000D01*
G75*
G02*
X42890000Y-60821250I0J243750D01*
G01*
X42890000Y-60333750D01*
G75*
G02*
X43133750Y-60090000I243750J0D01*
G01*
X44046250Y-60090000D01*
G75*
G02*
X44290000Y-60333750I0J-243750D01*
G01*
X44290000Y-60821250D01*
G75*
G02*
X44046250Y-61065000I-243750J0D01*
G01*
G37*
G04 #@! TD.AperFunction*
G04 #@! TA.AperFunction,SMDPad,CuDef*
G36*
G01*
X34933750Y-115020000D02*
X35846250Y-115020000D01*
G75*
G02*
X36090000Y-115263750I0J-243750D01*
G01*
X36090000Y-115751250D01*
G75*
G02*
X35846250Y-115995000I-243750J0D01*
G01*
X34933750Y-115995000D01*
G75*
G02*
X34690000Y-115751250I0J243750D01*
G01*
X34690000Y-115263750D01*
G75*
G02*
X34933750Y-115020000I243750J0D01*
G01*
G37*
G04 #@! TD.AperFunction*
G04 #@! TA.AperFunction,SMDPad,CuDef*
G36*
G01*
X34933750Y-113145000D02*
X35846250Y-113145000D01*
G75*
G02*
X36090000Y-113388750I0J-243750D01*
G01*
X36090000Y-113876250D01*
G75*
G02*
X35846250Y-114120000I-243750J0D01*
G01*
X34933750Y-114120000D01*
G75*
G02*
X34690000Y-113876250I0J243750D01*
G01*
X34690000Y-113388750D01*
G75*
G02*
X34933750Y-113145000I243750J0D01*
G01*
G37*
G04 #@! TD.AperFunction*
D14*
X30950000Y-108120000D03*
G04 #@! TA.AperFunction,ComponentPad*
G36*
G01*
X34700000Y-107360000D02*
X34700000Y-108880000D01*
G75*
G02*
X34450000Y-109130000I-250000J0D01*
G01*
X33450000Y-109130000D01*
G75*
G02*
X33200000Y-108880000I0J250000D01*
G01*
X33200000Y-107360000D01*
G75*
G02*
X33450000Y-107110000I250000J0D01*
G01*
X34450000Y-107110000D01*
G75*
G02*
X34700000Y-107360000I0J-250000D01*
G01*
G37*
G04 #@! TD.AperFunction*
G04 #@! TA.AperFunction,ComponentPad*
G36*
G01*
X95142000Y-98900000D02*
X95142000Y-100420000D01*
G75*
G02*
X94892000Y-100670000I-250000J0D01*
G01*
X93892000Y-100670000D01*
G75*
G02*
X93642000Y-100420000I0J250000D01*
G01*
X93642000Y-98900000D01*
G75*
G02*
X93892000Y-98650000I250000J0D01*
G01*
X94892000Y-98650000D01*
G75*
G02*
X95142000Y-98900000I0J-250000D01*
G01*
G37*
G04 #@! TD.AperFunction*
X91392000Y-99660000D03*
G04 #@! TA.AperFunction,ComponentPad*
G36*
G01*
X95192000Y-107650000D02*
X95192000Y-109170000D01*
G75*
G02*
X94942000Y-109420000I-250000J0D01*
G01*
X93942000Y-109420000D01*
G75*
G02*
X93692000Y-109170000I0J250000D01*
G01*
X93692000Y-107650000D01*
G75*
G02*
X93942000Y-107400000I250000J0D01*
G01*
X94942000Y-107400000D01*
G75*
G02*
X95192000Y-107650000I0J-250000D01*
G01*
G37*
G04 #@! TD.AperFunction*
X91442000Y-108410000D03*
D12*
X48530000Y-97670000D03*
X53550000Y-97700000D03*
G04 #@! TA.AperFunction,SMDPad,CuDef*
G36*
G01*
X41633750Y-115020000D02*
X42546250Y-115020000D01*
G75*
G02*
X42790000Y-115263750I0J-243750D01*
G01*
X42790000Y-115751250D01*
G75*
G02*
X42546250Y-115995000I-243750J0D01*
G01*
X41633750Y-115995000D01*
G75*
G02*
X41390000Y-115751250I0J243750D01*
G01*
X41390000Y-115263750D01*
G75*
G02*
X41633750Y-115020000I243750J0D01*
G01*
G37*
G04 #@! TD.AperFunction*
G04 #@! TA.AperFunction,SMDPad,CuDef*
G36*
G01*
X41633750Y-113145000D02*
X42546250Y-113145000D01*
G75*
G02*
X42790000Y-113388750I0J-243750D01*
G01*
X42790000Y-113876250D01*
G75*
G02*
X42546250Y-114120000I-243750J0D01*
G01*
X41633750Y-114120000D01*
G75*
G02*
X41390000Y-113876250I0J243750D01*
G01*
X41390000Y-113388750D01*
G75*
G02*
X41633750Y-113145000I243750J0D01*
G01*
G37*
G04 #@! TD.AperFunction*
G04 #@! TA.AperFunction,SMDPad,CuDef*
G36*
G01*
X75923750Y-56000000D02*
X76836250Y-56000000D01*
G75*
G02*
X77080000Y-56243750I0J-243750D01*
G01*
X77080000Y-56731250D01*
G75*
G02*
X76836250Y-56975000I-243750J0D01*
G01*
X75923750Y-56975000D01*
G75*
G02*
X75680000Y-56731250I0J243750D01*
G01*
X75680000Y-56243750D01*
G75*
G02*
X75923750Y-56000000I243750J0D01*
G01*
G37*
G04 #@! TD.AperFunction*
G04 #@! TA.AperFunction,SMDPad,CuDef*
G36*
G01*
X75923750Y-54125000D02*
X76836250Y-54125000D01*
G75*
G02*
X77080000Y-54368750I0J-243750D01*
G01*
X77080000Y-54856250D01*
G75*
G02*
X76836250Y-55100000I-243750J0D01*
G01*
X75923750Y-55100000D01*
G75*
G02*
X75680000Y-54856250I0J243750D01*
G01*
X75680000Y-54368750D01*
G75*
G02*
X75923750Y-54125000I243750J0D01*
G01*
G37*
G04 #@! TD.AperFunction*
G04 #@! TA.AperFunction,SMDPad,CuDef*
G36*
G01*
X75633750Y-76185000D02*
X76546250Y-76185000D01*
G75*
G02*
X76790000Y-76428750I0J-243750D01*
G01*
X76790000Y-76916250D01*
G75*
G02*
X76546250Y-77160000I-243750J0D01*
G01*
X75633750Y-77160000D01*
G75*
G02*
X75390000Y-76916250I0J243750D01*
G01*
X75390000Y-76428750D01*
G75*
G02*
X75633750Y-76185000I243750J0D01*
G01*
G37*
G04 #@! TD.AperFunction*
G04 #@! TA.AperFunction,SMDPad,CuDef*
G36*
G01*
X75633750Y-78060000D02*
X76546250Y-78060000D01*
G75*
G02*
X76790000Y-78303750I0J-243750D01*
G01*
X76790000Y-78791250D01*
G75*
G02*
X76546250Y-79035000I-243750J0D01*
G01*
X75633750Y-79035000D01*
G75*
G02*
X75390000Y-78791250I0J243750D01*
G01*
X75390000Y-78303750D01*
G75*
G02*
X75633750Y-78060000I243750J0D01*
G01*
G37*
G04 #@! TD.AperFunction*
G04 #@! TA.AperFunction,SMDPad,CuDef*
G36*
G01*
X47085000Y-110160000D02*
X48035000Y-110160000D01*
G75*
G02*
X48285000Y-110410000I0J-250000D01*
G01*
X48285000Y-110910000D01*
G75*
G02*
X48035000Y-111160000I-250000J0D01*
G01*
X47085000Y-111160000D01*
G75*
G02*
X46835000Y-110910000I0J250000D01*
G01*
X46835000Y-110410000D01*
G75*
G02*
X47085000Y-110160000I250000J0D01*
G01*
G37*
G04 #@! TD.AperFunction*
G04 #@! TA.AperFunction,SMDPad,CuDef*
G36*
G01*
X47085000Y-108260000D02*
X48035000Y-108260000D01*
G75*
G02*
X48285000Y-108510000I0J-250000D01*
G01*
X48285000Y-109010000D01*
G75*
G02*
X48035000Y-109260000I-250000J0D01*
G01*
X47085000Y-109260000D01*
G75*
G02*
X46835000Y-109010000I0J250000D01*
G01*
X46835000Y-108510000D01*
G75*
G02*
X47085000Y-108260000I250000J0D01*
G01*
G37*
G04 #@! TD.AperFunction*
G04 #@! TA.AperFunction,SMDPad,CuDef*
G36*
G01*
X48065000Y-104830000D02*
X47115000Y-104830000D01*
G75*
G02*
X46865000Y-104580000I0J250000D01*
G01*
X46865000Y-104080000D01*
G75*
G02*
X47115000Y-103830000I250000J0D01*
G01*
X48065000Y-103830000D01*
G75*
G02*
X48315000Y-104080000I0J-250000D01*
G01*
X48315000Y-104580000D01*
G75*
G02*
X48065000Y-104830000I-250000J0D01*
G01*
G37*
G04 #@! TD.AperFunction*
G04 #@! TA.AperFunction,SMDPad,CuDef*
G36*
G01*
X48065000Y-106730000D02*
X47115000Y-106730000D01*
G75*
G02*
X46865000Y-106480000I0J250000D01*
G01*
X46865000Y-105980000D01*
G75*
G02*
X47115000Y-105730000I250000J0D01*
G01*
X48065000Y-105730000D01*
G75*
G02*
X48315000Y-105980000I0J-250000D01*
G01*
X48315000Y-106480000D01*
G75*
G02*
X48065000Y-106730000I-250000J0D01*
G01*
G37*
G04 #@! TD.AperFunction*
X63680000Y-97670000D03*
X83920000Y-97720000D03*
X73800000Y-97720000D03*
X58580000Y-97720000D03*
X68680000Y-97620000D03*
G04 #@! TA.AperFunction,SMDPad,CuDef*
G36*
G01*
X63823750Y-104977500D02*
X64736250Y-104977500D01*
G75*
G02*
X64980000Y-105221250I0J-243750D01*
G01*
X64980000Y-105708750D01*
G75*
G02*
X64736250Y-105952500I-243750J0D01*
G01*
X63823750Y-105952500D01*
G75*
G02*
X63580000Y-105708750I0J243750D01*
G01*
X63580000Y-105221250D01*
G75*
G02*
X63823750Y-104977500I243750J0D01*
G01*
G37*
G04 #@! TD.AperFunction*
G04 #@! TA.AperFunction,SMDPad,CuDef*
G36*
G01*
X63823750Y-106852500D02*
X64736250Y-106852500D01*
G75*
G02*
X64980000Y-107096250I0J-243750D01*
G01*
X64980000Y-107583750D01*
G75*
G02*
X64736250Y-107827500I-243750J0D01*
G01*
X63823750Y-107827500D01*
G75*
G02*
X63580000Y-107583750I0J243750D01*
G01*
X63580000Y-107096250D01*
G75*
G02*
X63823750Y-106852500I243750J0D01*
G01*
G37*
G04 #@! TD.AperFunction*
G04 #@! TA.AperFunction,SMDPad,CuDef*
G36*
G01*
X66522500Y-107886250D02*
X66522500Y-106973750D01*
G75*
G02*
X66766250Y-106730000I243750J0D01*
G01*
X67253750Y-106730000D01*
G75*
G02*
X67497500Y-106973750I0J-243750D01*
G01*
X67497500Y-107886250D01*
G75*
G02*
X67253750Y-108130000I-243750J0D01*
G01*
X66766250Y-108130000D01*
G75*
G02*
X66522500Y-107886250I0J243750D01*
G01*
G37*
G04 #@! TD.AperFunction*
G04 #@! TA.AperFunction,SMDPad,CuDef*
G36*
G01*
X68397500Y-107886250D02*
X68397500Y-106973750D01*
G75*
G02*
X68641250Y-106730000I243750J0D01*
G01*
X69128750Y-106730000D01*
G75*
G02*
X69372500Y-106973750I0J-243750D01*
G01*
X69372500Y-107886250D01*
G75*
G02*
X69128750Y-108130000I-243750J0D01*
G01*
X68641250Y-108130000D01*
G75*
G02*
X68397500Y-107886250I0J243750D01*
G01*
G37*
G04 #@! TD.AperFunction*
D22*
X35400000Y-111840000D03*
D23*
X66540000Y-102680000D03*
X58030000Y-115730000D03*
X62130000Y-110470000D03*
X68900000Y-109110000D03*
D22*
X45910000Y-106280000D03*
X56000000Y-76020000D03*
X75560000Y-38650000D03*
X31540000Y-46730000D03*
X36940000Y-45690000D03*
X54960000Y-38610000D03*
X88170000Y-46650000D03*
X93570000Y-45610000D03*
X36940000Y-63730000D03*
X31540000Y-64770000D03*
X88220000Y-82660000D03*
X93620000Y-81620000D03*
X36840000Y-81920000D03*
X31440000Y-82960000D03*
X88280000Y-64560000D03*
X93680000Y-63520000D03*
X70160000Y-39690000D03*
X49540000Y-45570000D03*
X72280000Y-45570000D03*
X72280000Y-50340000D03*
X72280000Y-68380000D03*
X72270000Y-86350000D03*
X49540000Y-48500000D03*
X49540000Y-66510000D03*
X49540000Y-84610000D03*
X45830000Y-108800000D03*
X83710000Y-90500000D03*
X83730000Y-86360000D03*
X49560000Y-39650000D03*
D23*
X62030000Y-113050000D03*
X62130000Y-111770000D03*
X73970000Y-76750000D03*
X62390000Y-73490000D03*
X74200000Y-54640000D03*
X63510000Y-53110000D03*
X87222500Y-93872500D03*
D22*
X42080000Y-111860000D03*
X76330000Y-52870000D03*
X76090000Y-74950000D03*
X43580000Y-62330000D03*
X75570000Y-34170000D03*
X74800000Y-33120000D03*
X63390000Y-37030000D03*
X63390000Y-33790000D03*
X24770000Y-40830000D03*
X24770000Y-44070000D03*
X36180000Y-40160000D03*
X36950000Y-41210000D03*
X42790000Y-33750000D03*
X42790000Y-36990000D03*
X54200000Y-33080000D03*
X54970000Y-34130000D03*
X81400000Y-40750000D03*
X81400000Y-43990000D03*
X92810000Y-40080000D03*
X93580000Y-41130000D03*
X24770000Y-58870000D03*
X36950000Y-59250000D03*
X24770000Y-62110000D03*
X36180000Y-58200000D03*
X81450000Y-76760000D03*
X93630000Y-77140000D03*
X81450000Y-80000000D03*
X92860000Y-76090000D03*
X24670000Y-80300000D03*
X36080000Y-76390000D03*
X24670000Y-77060000D03*
X36850000Y-77440000D03*
X93690000Y-59040000D03*
X81510000Y-61900000D03*
X81510000Y-58660000D03*
X92920000Y-57990000D03*
X52850000Y-105400000D03*
X52850000Y-104110000D03*
X48570000Y-115550000D03*
X44030000Y-73980000D03*
X47600000Y-102740000D03*
X47550000Y-112260000D03*
X24770000Y-63080000D03*
X24770000Y-45020000D03*
X24670000Y-81340000D03*
X42780000Y-37980000D03*
X63390000Y-38010000D03*
X81400000Y-44960000D03*
X81510000Y-62890000D03*
X81450000Y-80990000D03*
D23*
X62300000Y-104440000D03*
X62270000Y-107380000D03*
X35390000Y-117290000D03*
X42100000Y-117270000D03*
X76400000Y-58230000D03*
X76100000Y-80330000D03*
X43600000Y-56870000D03*
X44040000Y-79360000D03*
X45460000Y-64550000D03*
X45560000Y-75790000D03*
X45560000Y-70650000D03*
X58100000Y-114300000D03*
D22*
X71160000Y-39680000D03*
X32540000Y-46720000D03*
X50560000Y-39640000D03*
X32540000Y-64760000D03*
X89220000Y-82650000D03*
X32440000Y-82950000D03*
X89280000Y-64550000D03*
X89170000Y-46640000D03*
D23*
X50560000Y-44610000D03*
X73300000Y-44610000D03*
X73300000Y-51390000D03*
X73300000Y-69460000D03*
X73300000Y-87410000D03*
X50560000Y-47530000D03*
X50560000Y-83650000D03*
X50560000Y-65580000D03*
X73300000Y-60750000D03*
D22*
X69150000Y-39690000D03*
X30530000Y-46730000D03*
X48550000Y-39650000D03*
X87160000Y-46650000D03*
X30530000Y-64770000D03*
X87210000Y-82660000D03*
X30430000Y-82960000D03*
X87270000Y-64560000D03*
D23*
X48530000Y-49590000D03*
X48550000Y-43550000D03*
X71280000Y-43540000D03*
X71280000Y-49450000D03*
X71280000Y-67520000D03*
X71280000Y-85480000D03*
X48530000Y-85640000D03*
X48530000Y-67560000D03*
D22*
X68140000Y-39680000D03*
X29520000Y-46720000D03*
X47540000Y-39640000D03*
X86150000Y-46640000D03*
X86200000Y-82650000D03*
X29420000Y-82950000D03*
X86260000Y-64550000D03*
D23*
X47540000Y-41560000D03*
X70270000Y-48440000D03*
X70270000Y-66460000D03*
X70270000Y-84430000D03*
X47500000Y-50510000D03*
D22*
X29520000Y-64760000D03*
D23*
X47500000Y-86580000D03*
X47500000Y-68530000D03*
X69585000Y-41555000D03*
X24840000Y-42740000D03*
X33995001Y-46365001D03*
X44640000Y-46370000D03*
X45490000Y-58210000D03*
D22*
X67120000Y-39670000D03*
X28500000Y-46710000D03*
X46520000Y-39630000D03*
X85130000Y-46630000D03*
X28500000Y-64750000D03*
X85180000Y-82640000D03*
X28400000Y-82940000D03*
X85240000Y-64540000D03*
D23*
X46510000Y-42600000D03*
X69250000Y-42600000D03*
X69250000Y-47440000D03*
X69250000Y-65510000D03*
X69250000Y-83430000D03*
X46510000Y-51600000D03*
X46510000Y-87720000D03*
X46530000Y-69660000D03*
X42820000Y-35680000D03*
X45590000Y-55670000D03*
X64630000Y-46910000D03*
X64600000Y-40820000D03*
X24790000Y-60830000D03*
X34240000Y-64600000D03*
X24680000Y-78990000D03*
X34550000Y-82810000D03*
D22*
X26950000Y-38140000D03*
X33940000Y-38130000D03*
X31820000Y-41470000D03*
X31790000Y-42780000D03*
X44970000Y-31060000D03*
X51960000Y-31050000D03*
X49840000Y-34390000D03*
X49810000Y-35700000D03*
X65570000Y-31100000D03*
X72560000Y-31090000D03*
X70440000Y-34430000D03*
X70410000Y-35740000D03*
X83580000Y-38060000D03*
X90570000Y-38050000D03*
X88450000Y-41390000D03*
X88420000Y-42700000D03*
X26950000Y-56180000D03*
X33940000Y-56170000D03*
X31820000Y-59510000D03*
X31790000Y-60820000D03*
X83690000Y-55970000D03*
X90680000Y-55960000D03*
X88560000Y-59300000D03*
X88530000Y-60610000D03*
X26850000Y-74370000D03*
X33840000Y-74360000D03*
X31720000Y-77700000D03*
X31690000Y-79010000D03*
X83630000Y-74070000D03*
X90620000Y-74060000D03*
X88500000Y-77400000D03*
X88470000Y-78710000D03*
D24*
X35390000Y-113632500D02*
X35390000Y-111850000D01*
X35390000Y-111850000D02*
X35400000Y-111840000D01*
X34670000Y-111840000D02*
X30950000Y-108120000D01*
X35400000Y-111840000D02*
X34670000Y-111840000D01*
D25*
X52380000Y-85880000D02*
X45130000Y-93130000D01*
X52380000Y-83615000D02*
X52380000Y-85880000D01*
X45130000Y-93130000D02*
X38390000Y-93130000D01*
X37500000Y-92240000D02*
X37500000Y-90810000D01*
X38390000Y-93130000D02*
X37500000Y-92240000D01*
D26*
X66540000Y-102680000D02*
X67030000Y-103170000D01*
X67030000Y-104440000D02*
X67000000Y-104470000D01*
X67030000Y-103170000D02*
X67030000Y-104440000D01*
X67000000Y-107420000D02*
X67010000Y-107430000D01*
X67000000Y-104470000D02*
X67000000Y-107420000D01*
X60165000Y-109205000D02*
X61755000Y-109205000D01*
X61755000Y-109205000D02*
X62180000Y-108780000D01*
X65660000Y-108780000D02*
X67010000Y-107430000D01*
X62180000Y-108780000D02*
X65660000Y-108780000D01*
X65817500Y-108937500D02*
X65660000Y-108780000D01*
X65817500Y-110260000D02*
X65817500Y-108937500D01*
D24*
X83950000Y-104680000D02*
X76195000Y-104680000D01*
D26*
X56950000Y-99350000D02*
X58580000Y-97720000D01*
X56950000Y-107720000D02*
X56950000Y-99350000D01*
X60165000Y-109205000D02*
X58435000Y-109205000D01*
X58435000Y-109205000D02*
X56950000Y-107720000D01*
X60165000Y-115555000D02*
X58205000Y-115555000D01*
X58205000Y-115555000D02*
X58030000Y-115730000D01*
X68875000Y-107420000D02*
X68885000Y-107430000D01*
X68875000Y-104470000D02*
X68875000Y-107420000D01*
X59015000Y-110475000D02*
X56690000Y-112800000D01*
X60165000Y-110475000D02*
X59015000Y-110475000D01*
X56690000Y-114390000D02*
X58030000Y-115730000D01*
X56690000Y-112800000D02*
X56690000Y-114390000D01*
X60165000Y-115555000D02*
X61185000Y-115555000D01*
X61185000Y-115555000D02*
X62580000Y-116950000D01*
X62580000Y-116950000D02*
X65010000Y-116950000D01*
X65880000Y-116080000D02*
X65880000Y-114550000D01*
X65010000Y-116950000D02*
X65880000Y-116080000D01*
X60165000Y-110475000D02*
X62125000Y-110475000D01*
X62125000Y-110475000D02*
X62130000Y-110470000D01*
X63732500Y-110470000D02*
X63942500Y-110260000D01*
X62130000Y-110470000D02*
X63732500Y-110470000D01*
X68900000Y-107445000D02*
X68885000Y-107430000D01*
X68900000Y-109110000D02*
X68900000Y-107445000D01*
D24*
X75960000Y-107690000D02*
X75950000Y-107680000D01*
X83715000Y-107690000D02*
X75960000Y-107690000D01*
X69135000Y-107680000D02*
X68885000Y-107430000D01*
X75950000Y-107680000D02*
X69135000Y-107680000D01*
X68875000Y-104470000D02*
X68875000Y-103725000D01*
D26*
X68875000Y-102645000D02*
X68875000Y-104470000D01*
X73800000Y-97720000D02*
X68875000Y-102645000D01*
X45910000Y-97736998D02*
X45900000Y-97726998D01*
D24*
X45910000Y-106280000D02*
X45910000Y-97736998D01*
X45900000Y-97726998D02*
X45900000Y-96520000D01*
X45900000Y-96520000D02*
X56000000Y-86420000D01*
X56000000Y-86420000D02*
X56000000Y-76020000D01*
X48025000Y-106665000D02*
X47590000Y-106230000D01*
X50715000Y-106665000D02*
X48025000Y-106665000D01*
X45960000Y-106230000D02*
X45910000Y-106280000D01*
X47590000Y-106230000D02*
X45960000Y-106230000D01*
X31430000Y-82820000D02*
X31430000Y-83314974D01*
X32725026Y-84610000D02*
X49410000Y-84610000D01*
X31430000Y-83314974D02*
X32725026Y-84610000D01*
X31540000Y-64770000D02*
X31540000Y-65264974D01*
X32835026Y-66560000D02*
X49520000Y-66560000D01*
X31540000Y-65264974D02*
X32835026Y-66560000D01*
X88230000Y-82670000D02*
X88230000Y-83164974D01*
X88230000Y-83164974D02*
X85034974Y-86360000D01*
D26*
X75560000Y-38650000D02*
X75560000Y-37417500D01*
X72596786Y-37416786D02*
X72596786Y-37674283D01*
X72596786Y-37024283D02*
X72596786Y-37416786D01*
D24*
X75560000Y-37417500D02*
X72597500Y-37417500D01*
X72597500Y-37417500D02*
X72596786Y-37416786D01*
X33977500Y-44457500D02*
X33976786Y-44456786D01*
X36940000Y-44457500D02*
X33977500Y-44457500D01*
D26*
X33976786Y-44064283D02*
X33976786Y-44456786D01*
X33976786Y-44456786D02*
X33976786Y-44714283D01*
X36940000Y-45690000D02*
X36940000Y-44457500D01*
D24*
X31540000Y-46730000D02*
X31540000Y-44920000D01*
X51997500Y-37377500D02*
X51996786Y-37376786D01*
X54960000Y-37377500D02*
X51997500Y-37377500D01*
D26*
X51996786Y-36984283D02*
X51996786Y-37376786D01*
X51996786Y-37376786D02*
X51996786Y-37634283D01*
X54960000Y-38610000D02*
X54960000Y-37377500D01*
D24*
X90607500Y-44377500D02*
X90606786Y-44376786D01*
X93570000Y-44377500D02*
X90607500Y-44377500D01*
D26*
X90606786Y-43984283D02*
X90606786Y-44376786D01*
X90606786Y-44376786D02*
X90606786Y-44634283D01*
X93570000Y-45610000D02*
X93570000Y-44377500D01*
D24*
X88170000Y-46650000D02*
X88170000Y-44840000D01*
D26*
X33976786Y-62496786D02*
X33976786Y-62754283D01*
D24*
X33977500Y-62497500D02*
X33976786Y-62496786D01*
X31540000Y-64770000D02*
X31540000Y-62960000D01*
D26*
X36940000Y-63730000D02*
X36940000Y-62497500D01*
D24*
X36940000Y-62497500D02*
X33977500Y-62497500D01*
D26*
X33976786Y-62104283D02*
X33976786Y-62496786D01*
D24*
X88220000Y-82660000D02*
X88220000Y-80850000D01*
D26*
X90656786Y-79994283D02*
X90656786Y-80386786D01*
X93620000Y-81620000D02*
X93620000Y-80387500D01*
D24*
X90657500Y-80387500D02*
X90656786Y-80386786D01*
X93620000Y-80387500D02*
X90657500Y-80387500D01*
D26*
X90656786Y-80386786D02*
X90656786Y-80644283D01*
X36840000Y-81920000D02*
X36840000Y-80687500D01*
D24*
X36840000Y-80687500D02*
X33877500Y-80687500D01*
D26*
X33876786Y-80686786D02*
X33876786Y-80944283D01*
D24*
X31440000Y-82960000D02*
X31440000Y-81150000D01*
X33877500Y-80687500D02*
X33876786Y-80686786D01*
D26*
X33876786Y-80294283D02*
X33876786Y-80686786D01*
X93680000Y-63520000D02*
X93680000Y-62287500D01*
X90716786Y-62286786D02*
X90716786Y-62544283D01*
D24*
X93680000Y-62287500D02*
X90717500Y-62287500D01*
D26*
X90716786Y-61894283D02*
X90716786Y-62286786D01*
D24*
X90717500Y-62287500D02*
X90716786Y-62286786D01*
X88280000Y-64560000D02*
X88280000Y-62750000D01*
X70160000Y-39690000D02*
X70160000Y-37880000D01*
X84974974Y-50340000D02*
X72280000Y-50340000D01*
X88170000Y-47144974D02*
X84974974Y-50340000D01*
X88170000Y-46650000D02*
X88170000Y-47144974D01*
X88300000Y-65194974D02*
X85104974Y-68390000D01*
X88300000Y-64700000D02*
X88300000Y-65194974D01*
X72290000Y-68390000D02*
X72280000Y-68380000D01*
X85104974Y-68390000D02*
X72290000Y-68390000D01*
X72340000Y-86360000D02*
X72280000Y-86360000D01*
X72280000Y-86360000D02*
X72270000Y-86350000D01*
X31540000Y-47224974D02*
X32835026Y-48520000D01*
X31540000Y-46730000D02*
X31540000Y-47224974D01*
X32835026Y-48520000D02*
X49520000Y-48520000D01*
X49520000Y-48520000D02*
X49540000Y-48500000D01*
X49520000Y-66530000D02*
X49540000Y-66510000D01*
X49520000Y-66560000D02*
X49520000Y-66530000D01*
X49410000Y-84610000D02*
X49540000Y-84610000D01*
X54540000Y-50180000D02*
X54540000Y-45570000D01*
X49540000Y-45570000D02*
X54540000Y-45570000D01*
X54540000Y-45570000D02*
X72280000Y-45570000D01*
X85367500Y-90480000D02*
X83730000Y-90480000D01*
X83730000Y-90480000D02*
X83710000Y-90500000D01*
X85034974Y-86360000D02*
X83730000Y-86360000D01*
X83730000Y-86360000D02*
X72340000Y-86360000D01*
X45830000Y-108800000D02*
X44450000Y-107420000D01*
X44450000Y-107420000D02*
X44450000Y-96380000D01*
D26*
X54630000Y-50270000D02*
X54540000Y-50180000D01*
D24*
X31693214Y-80686786D02*
X31440000Y-80940000D01*
X33876786Y-80686786D02*
X31693214Y-80686786D01*
X31440000Y-81150000D02*
X31440000Y-80940000D01*
X32002500Y-62497500D02*
X33977500Y-62497500D01*
X31540000Y-62960000D02*
X32002500Y-62497500D01*
X32002500Y-44457500D02*
X33977500Y-44457500D01*
X31540000Y-44920000D02*
X32002500Y-44457500D01*
X49783214Y-37376786D02*
X51996786Y-37376786D01*
X49560000Y-39650000D02*
X49560000Y-37600000D01*
X49560000Y-37600000D02*
X49783214Y-37376786D01*
X70623214Y-37416786D02*
X72596786Y-37416786D01*
X70160000Y-37880000D02*
X70623214Y-37416786D01*
X88632500Y-44377500D02*
X90607500Y-44377500D01*
X88170000Y-44840000D02*
X88632500Y-44377500D01*
X88743214Y-62286786D02*
X90716786Y-62286786D01*
X88280000Y-62750000D02*
X88743214Y-62286786D01*
X88682500Y-80387500D02*
X90657500Y-80387500D01*
X88220000Y-80850000D02*
X88682500Y-80387500D01*
X54540000Y-50180000D02*
X54540000Y-50570000D01*
X54540000Y-50570000D02*
X54515000Y-50595000D01*
X54515000Y-50595000D02*
X53775000Y-50595000D01*
X52380000Y-50595000D02*
X53775000Y-50595000D01*
X48385000Y-107935000D02*
X47560000Y-108760000D01*
X50715000Y-107935000D02*
X48385000Y-107935000D01*
X45870000Y-108760000D02*
X45830000Y-108800000D01*
X47560000Y-108760000D02*
X45870000Y-108760000D01*
X54540000Y-86290000D02*
X44450000Y-96380000D01*
X54540000Y-50570000D02*
X54540000Y-86290000D01*
D26*
X60165000Y-113015000D02*
X61995000Y-113015000D01*
X61995000Y-113015000D02*
X62030000Y-113050000D01*
X62030000Y-113050000D02*
X62030000Y-115030000D01*
X62500000Y-115500000D02*
X63880000Y-115500000D01*
X62030000Y-115030000D02*
X62500000Y-115500000D01*
X76185000Y-113690000D02*
X83940000Y-113690000D01*
X60165000Y-111745000D02*
X62105000Y-111745000D01*
X62105000Y-111745000D02*
X62130000Y-111770000D01*
X62130000Y-111770000D02*
X62480000Y-111770000D01*
X63880000Y-113170000D02*
X63880000Y-113600000D01*
X62480000Y-111770000D02*
X63880000Y-113170000D01*
X76185000Y-110690000D02*
X83940000Y-110690000D01*
X53550000Y-97700000D02*
X53800000Y-97700000D01*
X53800000Y-97700000D02*
X54880000Y-98780000D01*
X51865000Y-111745000D02*
X50715000Y-111745000D01*
X55950000Y-107660000D02*
X51865000Y-111745000D01*
X73945000Y-76725000D02*
X73970000Y-76750000D01*
X55950000Y-100100000D02*
X53550000Y-97700000D01*
X55950000Y-107660000D02*
X55950000Y-100100000D01*
X70915000Y-76750000D02*
X67620000Y-73455000D01*
X73970000Y-76750000D02*
X70915000Y-76750000D01*
X53550000Y-97700000D02*
X53550000Y-94840000D01*
X53550000Y-94840000D02*
X62390000Y-86000000D01*
X62390000Y-86000000D02*
X62390000Y-73490000D01*
X52825000Y-109205000D02*
X50715000Y-109205000D01*
X54790000Y-107240000D02*
X52825000Y-109205000D01*
X67620000Y-53135000D02*
X72695000Y-53135000D01*
X72695000Y-53135000D02*
X74200000Y-54640000D01*
X54790000Y-103930000D02*
X54790000Y-107240000D01*
X48530000Y-97670000D02*
X54790000Y-103930000D01*
X48530000Y-97670000D02*
X61090000Y-85110000D01*
X61090000Y-85110000D02*
X61090000Y-71770000D01*
X61090000Y-71770000D02*
X61090000Y-55530000D01*
X61090000Y-55530000D02*
X63510000Y-53110000D01*
D24*
X91442000Y-99710000D02*
X91392000Y-99660000D01*
X91442000Y-108410000D02*
X91442000Y-99710000D01*
X63690000Y-69765000D02*
X67620000Y-65835000D01*
X63690000Y-85870000D02*
X63690000Y-69765000D01*
X80090000Y-90600000D02*
X68420000Y-90600000D01*
X68420000Y-90600000D02*
X63690000Y-85870000D01*
X87222500Y-93872500D02*
X83362500Y-93872500D01*
X83362500Y-93872500D02*
X80090000Y-90600000D01*
X94442000Y-99710000D02*
X94392000Y-99660000D01*
X94442000Y-108410000D02*
X94442000Y-99710000D01*
X67620000Y-68375000D02*
X64770000Y-71225000D01*
X64770000Y-71225000D02*
X64770000Y-85360000D01*
X64770000Y-85360000D02*
X68820000Y-89410000D01*
X94392000Y-99660000D02*
X94392000Y-98700000D01*
X87192500Y-92262500D02*
X87192500Y-90480000D01*
X68820000Y-89410000D02*
X80760000Y-89410000D01*
X83612500Y-92262500D02*
X87192500Y-92262500D01*
X80760000Y-89410000D02*
X83612500Y-92262500D01*
X87192500Y-92262500D02*
X87436500Y-92262500D01*
X94392000Y-99218000D02*
X94392000Y-99660000D01*
X87436500Y-92262500D02*
X94392000Y-99218000D01*
X42090000Y-113632500D02*
X42090000Y-111870000D01*
X42090000Y-111870000D02*
X42080000Y-111860000D01*
X76380000Y-54612500D02*
X76380000Y-52920000D01*
X76380000Y-52920000D02*
X76330000Y-52870000D01*
X76090000Y-76672500D02*
X76090000Y-74950000D01*
X43590000Y-60577500D02*
X43590000Y-62320000D01*
X43590000Y-62320000D02*
X43580000Y-62330000D01*
D26*
X75560000Y-34180000D02*
X75570000Y-34170000D01*
X75560000Y-35542500D02*
X75560000Y-34180000D01*
X65580000Y-37680000D02*
X65580000Y-37030000D01*
X74790000Y-33130000D02*
X74800000Y-33120000D01*
X72580000Y-33130000D02*
X74790000Y-33130000D01*
X65580000Y-37030000D02*
X63390000Y-37030000D01*
X63400000Y-33780000D02*
X63390000Y-33790000D01*
X65580000Y-33780000D02*
X63400000Y-33780000D01*
X26960000Y-40820000D02*
X24780000Y-40820000D01*
X24780000Y-40820000D02*
X24770000Y-40830000D01*
X26960000Y-44070000D02*
X24770000Y-44070000D01*
X33960000Y-40170000D02*
X36170000Y-40170000D01*
X36170000Y-40170000D02*
X36180000Y-40160000D01*
X26960000Y-44720000D02*
X26960000Y-44070000D01*
X36940000Y-42582500D02*
X36940000Y-41220000D01*
X36940000Y-41220000D02*
X36950000Y-41210000D01*
X44980000Y-33740000D02*
X42800000Y-33740000D01*
X42800000Y-33740000D02*
X42790000Y-33750000D01*
X44980000Y-36990000D02*
X42790000Y-36990000D01*
X51980000Y-33090000D02*
X54190000Y-33090000D01*
X54190000Y-33090000D02*
X54200000Y-33080000D01*
X44980000Y-37640000D02*
X44980000Y-36990000D01*
X54960000Y-35502500D02*
X54960000Y-34140000D01*
X54960000Y-34140000D02*
X54970000Y-34130000D01*
X83590000Y-40740000D02*
X81410000Y-40740000D01*
X81410000Y-40740000D02*
X81400000Y-40750000D01*
X83590000Y-43990000D02*
X81400000Y-43990000D01*
X90590000Y-40090000D02*
X92800000Y-40090000D01*
X92800000Y-40090000D02*
X92810000Y-40080000D01*
X83590000Y-44640000D02*
X83590000Y-43990000D01*
X93570000Y-42502500D02*
X93570000Y-41140000D01*
X93570000Y-41140000D02*
X93580000Y-41130000D01*
X26960000Y-62760000D02*
X26960000Y-62110000D01*
X26960000Y-62110000D02*
X24770000Y-62110000D01*
X26960000Y-58860000D02*
X24780000Y-58860000D01*
X33960000Y-58210000D02*
X36170000Y-58210000D01*
X24780000Y-58860000D02*
X24770000Y-58870000D01*
X36170000Y-58210000D02*
X36180000Y-58200000D01*
X36940000Y-60622500D02*
X36940000Y-59260000D01*
X36940000Y-59260000D02*
X36950000Y-59250000D01*
X83640000Y-80000000D02*
X81450000Y-80000000D01*
X90640000Y-76100000D02*
X92850000Y-76100000D01*
X83640000Y-76750000D02*
X81460000Y-76750000D01*
X83640000Y-80650000D02*
X83640000Y-80000000D01*
X93620000Y-78512500D02*
X93620000Y-77150000D01*
X92850000Y-76100000D02*
X92860000Y-76090000D01*
X93620000Y-77150000D02*
X93630000Y-77140000D01*
X81460000Y-76750000D02*
X81450000Y-76760000D01*
X33860000Y-76400000D02*
X36070000Y-76400000D01*
X26860000Y-77050000D02*
X24680000Y-77050000D01*
X36840000Y-78812500D02*
X36840000Y-77450000D01*
X36840000Y-77450000D02*
X36850000Y-77440000D01*
X24680000Y-77050000D02*
X24670000Y-77060000D01*
X26860000Y-80300000D02*
X24670000Y-80300000D01*
X26860000Y-80950000D02*
X26860000Y-80300000D01*
X36070000Y-76400000D02*
X36080000Y-76390000D01*
X81520000Y-58650000D02*
X81510000Y-58660000D01*
X83700000Y-62550000D02*
X83700000Y-61900000D01*
X90700000Y-58000000D02*
X92910000Y-58000000D01*
X83700000Y-61900000D02*
X81510000Y-61900000D01*
X93680000Y-59050000D02*
X93690000Y-59040000D01*
X83700000Y-58650000D02*
X81520000Y-58650000D01*
X92910000Y-58000000D02*
X92920000Y-57990000D01*
X93680000Y-60412500D02*
X93680000Y-59050000D01*
X50715000Y-105395000D02*
X52845000Y-105395000D01*
X52845000Y-105395000D02*
X52850000Y-105400000D01*
X50715000Y-104125000D02*
X52835000Y-104125000D01*
X52835000Y-104125000D02*
X52850000Y-104110000D01*
X50715000Y-104125000D02*
X50715000Y-105395000D01*
X50715000Y-115555000D02*
X48575000Y-115555000D01*
X48575000Y-115555000D02*
X48570000Y-115550000D01*
D24*
X44040000Y-75732500D02*
X44040000Y-73990000D01*
X44040000Y-73990000D02*
X44030000Y-73980000D01*
D26*
X47590000Y-104330000D02*
X47590000Y-102750000D01*
X47590000Y-102750000D02*
X47600000Y-102740000D01*
X47560000Y-110660000D02*
X47560000Y-112250000D01*
X47560000Y-112250000D02*
X47550000Y-112260000D01*
X26910000Y-62745000D02*
X25105000Y-62745000D01*
X25105000Y-62745000D02*
X24770000Y-63080000D01*
X26295000Y-44695000D02*
X26290000Y-44690000D01*
X26870000Y-44695000D02*
X26295000Y-44695000D01*
X26290000Y-44690000D02*
X25100000Y-44690000D01*
X25100000Y-44690000D02*
X24770000Y-45020000D01*
X26800000Y-80945000D02*
X25065000Y-80945000D01*
X25065000Y-80945000D02*
X24670000Y-81340000D01*
X44910000Y-37645000D02*
X43785000Y-37645000D01*
X43785000Y-37645000D02*
X43780000Y-37650000D01*
X43780000Y-37650000D02*
X43110000Y-37650000D01*
X43110000Y-37650000D02*
X42780000Y-37980000D01*
X65510000Y-37685000D02*
X63715000Y-37685000D01*
X63715000Y-37685000D02*
X63390000Y-38010000D01*
X83530000Y-44635000D02*
X81725000Y-44635000D01*
X81725000Y-44635000D02*
X81400000Y-44960000D01*
X83640000Y-62555000D02*
X81845000Y-62555000D01*
X81845000Y-62555000D02*
X81510000Y-62890000D01*
X83580000Y-80615000D02*
X81825000Y-80615000D01*
X81825000Y-80615000D02*
X81450000Y-80990000D01*
X60165000Y-105395000D02*
X61345000Y-105395000D01*
X61345000Y-105395000D02*
X62300000Y-104440000D01*
X64280000Y-105465000D02*
X63560000Y-104745000D01*
X63560000Y-104745000D02*
X63560000Y-104640000D01*
X63360000Y-104440000D02*
X62300000Y-104440000D01*
X63560000Y-104640000D02*
X63360000Y-104440000D01*
X64280000Y-102020000D02*
X68680000Y-97620000D01*
X64280000Y-105465000D02*
X64280000Y-102020000D01*
X60165000Y-106665000D02*
X58645000Y-106665000D01*
X58645000Y-106665000D02*
X57970000Y-105990000D01*
X60165000Y-104125000D02*
X58605000Y-104125000D01*
X57970000Y-104760000D02*
X57970000Y-105990000D01*
X58605000Y-104125000D02*
X57970000Y-104760000D01*
X60165000Y-106665000D02*
X61555000Y-106665000D01*
X61555000Y-106665000D02*
X62270000Y-107380000D01*
X62310000Y-107340000D02*
X62270000Y-107380000D01*
X64280000Y-107340000D02*
X62310000Y-107340000D01*
X60165000Y-101185000D02*
X63680000Y-97670000D01*
X60165000Y-104125000D02*
X60165000Y-101185000D01*
D24*
X35390000Y-117290000D02*
X35390000Y-115507500D01*
X42090000Y-115507500D02*
X42090000Y-117260000D01*
X42090000Y-117260000D02*
X42100000Y-117270000D01*
X76400000Y-56507500D02*
X76380000Y-56487500D01*
X76400000Y-58230000D02*
X76400000Y-56507500D01*
X76090000Y-78547500D02*
X76090000Y-80320000D01*
X76090000Y-80320000D02*
X76100000Y-80330000D01*
X43600000Y-58692500D02*
X43590000Y-58702500D01*
X43600000Y-56920000D02*
X43600000Y-58692500D01*
X44040000Y-77607500D02*
X44040000Y-79360000D01*
D26*
X51095000Y-64550000D02*
X52380000Y-65835000D01*
X45460000Y-64550000D02*
X51095000Y-64550000D01*
X50105000Y-70650000D02*
X52380000Y-68375000D01*
X45560000Y-70650000D02*
X50105000Y-70650000D01*
X60165000Y-114285000D02*
X58115000Y-114285000D01*
X58115000Y-114285000D02*
X58100000Y-114300000D01*
X89230000Y-82660000D02*
X89230000Y-83154974D01*
X89230000Y-83154974D02*
X84974974Y-87410000D01*
X84974974Y-87410000D02*
X73360000Y-87410000D01*
X71160000Y-39680000D02*
X71160000Y-39090000D01*
X71160000Y-39090000D02*
X71920000Y-38330000D01*
X71920000Y-38330000D02*
X72580000Y-38330000D01*
X33300000Y-45370000D02*
X33960000Y-45370000D01*
X32540000Y-46130000D02*
X33300000Y-45370000D01*
X32540000Y-46720000D02*
X32540000Y-46130000D01*
X51320000Y-38290000D02*
X51980000Y-38290000D01*
X50560000Y-39050000D02*
X51320000Y-38290000D01*
X50560000Y-39640000D02*
X50560000Y-39050000D01*
X32540000Y-64170000D02*
X33300000Y-63410000D01*
X32540000Y-64760000D02*
X32540000Y-64170000D01*
X33300000Y-63410000D02*
X33960000Y-63410000D01*
X89220000Y-82060000D02*
X89980000Y-81300000D01*
X89980000Y-81300000D02*
X90640000Y-81300000D01*
X89220000Y-82650000D02*
X89220000Y-82060000D01*
X32440000Y-82950000D02*
X32440000Y-82360000D01*
X32440000Y-82360000D02*
X33200000Y-81600000D01*
X33200000Y-81600000D02*
X33860000Y-81600000D01*
X89280000Y-63960000D02*
X90040000Y-63200000D01*
X89280000Y-64550000D02*
X89280000Y-63960000D01*
X90040000Y-63200000D02*
X90700000Y-63200000D01*
X89170000Y-46640000D02*
X89170000Y-46050000D01*
X89170000Y-46050000D02*
X89930000Y-45290000D01*
X89930000Y-45290000D02*
X90590000Y-45290000D01*
X50560000Y-44610000D02*
X73300000Y-44610000D01*
X84914974Y-51390000D02*
X73300000Y-51390000D01*
X89170000Y-47134974D02*
X84914974Y-51390000D01*
X89170000Y-46640000D02*
X89170000Y-47134974D01*
X73320000Y-69440000D02*
X73300000Y-69460000D01*
X89300000Y-65184974D02*
X85044974Y-69440000D01*
X89300000Y-64690000D02*
X89300000Y-65184974D01*
X85044974Y-69440000D02*
X73320000Y-69440000D01*
X73360000Y-87410000D02*
X73300000Y-87410000D01*
X32540000Y-46720000D02*
X33370000Y-47550000D01*
X50540000Y-47550000D02*
X50560000Y-47530000D01*
X33370000Y-47550000D02*
X50540000Y-47550000D01*
X50550000Y-83640000D02*
X50560000Y-83650000D01*
X33260000Y-83640000D02*
X50550000Y-83640000D01*
X32430000Y-82810000D02*
X33260000Y-83640000D01*
X32540000Y-64760000D02*
X33370000Y-65590000D01*
X50550000Y-65590000D02*
X50560000Y-65580000D01*
X33370000Y-65590000D02*
X50550000Y-65590000D01*
X73295000Y-60755000D02*
X73300000Y-60750000D01*
X67620000Y-60755000D02*
X73295000Y-60755000D01*
X30410000Y-83750000D02*
X32290000Y-85630000D01*
X30410000Y-83324974D02*
X30410000Y-83750000D01*
X30420000Y-83314974D02*
X30410000Y-83324974D01*
X32290000Y-85630000D02*
X48370000Y-85630000D01*
X30420000Y-82820000D02*
X30420000Y-83314974D01*
X87220000Y-82670000D02*
X84400000Y-85490000D01*
X84400000Y-85490000D02*
X71360000Y-85490000D01*
X87290000Y-64700000D02*
X84470000Y-67520000D01*
X84470000Y-67520000D02*
X71430000Y-67520000D01*
X69150000Y-39690000D02*
X69150000Y-35290000D01*
X69150000Y-35290000D02*
X68290000Y-34430000D01*
X68290000Y-34430000D02*
X65580000Y-34430000D01*
X65671775Y-34499273D02*
X66608185Y-34499273D01*
X65596785Y-34424283D02*
X65671775Y-34499273D01*
X29670000Y-41470000D02*
X26960000Y-41470000D01*
X30530000Y-42330000D02*
X29670000Y-41470000D01*
X30530000Y-46730000D02*
X30530000Y-42330000D01*
X44996785Y-34384283D02*
X45071775Y-34459273D01*
X45071775Y-34459273D02*
X46008185Y-34459273D01*
X47690000Y-34390000D02*
X44980000Y-34390000D01*
X48550000Y-35250000D02*
X47690000Y-34390000D01*
X48550000Y-39650000D02*
X48550000Y-35250000D01*
X83606785Y-41384283D02*
X83681775Y-41459273D01*
X83681775Y-41459273D02*
X84618185Y-41459273D01*
X86300000Y-41390000D02*
X83590000Y-41390000D01*
X87160000Y-42250000D02*
X86300000Y-41390000D01*
X87160000Y-46650000D02*
X87160000Y-42250000D01*
X29670000Y-59510000D02*
X26960000Y-59510000D01*
X30530000Y-64770000D02*
X30530000Y-60370000D01*
X30530000Y-60370000D02*
X29670000Y-59510000D01*
X87210000Y-78260000D02*
X86350000Y-77400000D01*
X87210000Y-82660000D02*
X87210000Y-78260000D01*
X86350000Y-77400000D02*
X83640000Y-77400000D01*
X26876785Y-77694283D02*
X26951775Y-77769273D01*
X29570000Y-77700000D02*
X26860000Y-77700000D01*
X26951775Y-77769273D02*
X27888185Y-77769273D01*
X30430000Y-82960000D02*
X30430000Y-78560000D01*
X30430000Y-78560000D02*
X29570000Y-77700000D01*
X87270000Y-60160000D02*
X86410000Y-59300000D01*
X83716785Y-59294283D02*
X83791775Y-59369273D01*
X83791775Y-59369273D02*
X84728185Y-59369273D01*
X87270000Y-64560000D02*
X87270000Y-60160000D01*
X86410000Y-59300000D02*
X83700000Y-59300000D01*
X71270000Y-43550000D02*
X71280000Y-43540000D01*
X48550000Y-43550000D02*
X71270000Y-43550000D01*
X87160000Y-46650000D02*
X84340000Y-49470000D01*
X71300000Y-49470000D02*
X71280000Y-49450000D01*
X84340000Y-49470000D02*
X71300000Y-49470000D01*
X71430000Y-67520000D02*
X71280000Y-67520000D01*
X71360000Y-85490000D02*
X71290000Y-85490000D01*
X71290000Y-85490000D02*
X71280000Y-85480000D01*
X30530000Y-47224974D02*
X30520000Y-47234974D01*
X30530000Y-46730000D02*
X30530000Y-47224974D01*
X30520000Y-47234974D02*
X30520000Y-47660000D01*
X30520000Y-47660000D02*
X32400000Y-49540000D01*
X48480000Y-49540000D02*
X48530000Y-49590000D01*
X32400000Y-49540000D02*
X48480000Y-49540000D01*
X48370000Y-85630000D02*
X48520000Y-85630000D01*
X48520000Y-85630000D02*
X48530000Y-85640000D01*
X48510000Y-67580000D02*
X48530000Y-67560000D01*
X32400000Y-67580000D02*
X48510000Y-67580000D01*
X30520000Y-65700000D02*
X32400000Y-67580000D01*
X30530000Y-64770000D02*
X30530000Y-65264974D01*
X30530000Y-65264974D02*
X30520000Y-65274974D01*
X30520000Y-65274974D02*
X30520000Y-65700000D01*
X70135000Y-50595000D02*
X71280000Y-49450000D01*
X67620000Y-50595000D02*
X70135000Y-50595000D01*
X32050000Y-86600000D02*
X47390000Y-86600000D01*
X29410000Y-82810000D02*
X29410000Y-83960000D01*
X29410000Y-83960000D02*
X32050000Y-86600000D01*
X32160000Y-68550000D02*
X47500000Y-68550000D01*
X29520000Y-64760000D02*
X29520000Y-65910000D01*
X29520000Y-65910000D02*
X32160000Y-68550000D01*
X84440000Y-84430000D02*
X70360000Y-84430000D01*
X86210000Y-82660000D02*
X84440000Y-84430000D01*
X84510000Y-66460000D02*
X70430000Y-66460000D01*
X86280000Y-64690000D02*
X84510000Y-66460000D01*
X68140000Y-39680000D02*
X68140000Y-35850000D01*
X68140000Y-35850000D02*
X67370000Y-35080000D01*
X67370000Y-35080000D02*
X65580000Y-35080000D01*
X65596786Y-35074284D02*
X66533196Y-35074284D01*
X26976786Y-42114284D02*
X27913196Y-42114284D01*
X28750000Y-42120000D02*
X26960000Y-42120000D01*
X29520000Y-42890000D02*
X28750000Y-42120000D01*
X29520000Y-46720000D02*
X29520000Y-42890000D01*
X44996786Y-35034284D02*
X45933196Y-35034284D01*
X46770000Y-35040000D02*
X44980000Y-35040000D01*
X47540000Y-35810000D02*
X46770000Y-35040000D01*
X47540000Y-39640000D02*
X47540000Y-35810000D01*
X83606786Y-42034284D02*
X84543196Y-42034284D01*
X85380000Y-42040000D02*
X83590000Y-42040000D01*
X86150000Y-42810000D02*
X85380000Y-42040000D01*
X86150000Y-46640000D02*
X86150000Y-42810000D01*
X26976786Y-60154284D02*
X27913196Y-60154284D01*
X85430000Y-78050000D02*
X83640000Y-78050000D01*
X83656786Y-78044284D02*
X84593196Y-78044284D01*
X86200000Y-78820000D02*
X85430000Y-78050000D01*
X86200000Y-82650000D02*
X86200000Y-78820000D01*
X28650000Y-78350000D02*
X26860000Y-78350000D01*
X29420000Y-79120000D02*
X28650000Y-78350000D01*
X29420000Y-82950000D02*
X29420000Y-79120000D01*
X26876786Y-78344284D02*
X27813196Y-78344284D01*
X86260000Y-60720000D02*
X85490000Y-59950000D01*
X83716786Y-59944284D02*
X84653196Y-59944284D01*
X85490000Y-59950000D02*
X83700000Y-59950000D01*
X86260000Y-64550000D02*
X86260000Y-60720000D01*
X51945000Y-47620000D02*
X52380000Y-48055000D01*
X86150000Y-46640000D02*
X84380000Y-48410000D01*
X70300000Y-48410000D02*
X70270000Y-48440000D01*
X84380000Y-48410000D02*
X70300000Y-48410000D01*
X70430000Y-66460000D02*
X70270000Y-66460000D01*
X70360000Y-84430000D02*
X70270000Y-84430000D01*
X29520000Y-46720000D02*
X29520000Y-47870000D01*
X29520000Y-47870000D02*
X32160000Y-50510000D01*
X32160000Y-50510000D02*
X47500000Y-50510000D01*
X29520000Y-60930000D02*
X28750000Y-60160000D01*
X28750000Y-60160000D02*
X26960000Y-60160000D01*
X29520000Y-64760000D02*
X29520000Y-60930000D01*
X47390000Y-86600000D02*
X47480000Y-86600000D01*
X47480000Y-86600000D02*
X47500000Y-86580000D01*
X47500000Y-68550000D02*
X47500000Y-68530000D01*
X49925000Y-50510000D02*
X47500000Y-50510000D01*
X52380000Y-48055000D02*
X49925000Y-50510000D01*
X69580000Y-41560000D02*
X69585000Y-41555000D01*
X47540000Y-41560000D02*
X69580000Y-41560000D01*
X26870000Y-42745000D02*
X24845000Y-42745000D01*
X24845000Y-42745000D02*
X24840000Y-42740000D01*
X33995001Y-46365001D02*
X44635001Y-46365001D01*
X44635001Y-46365001D02*
X44640000Y-46370000D01*
X52375000Y-58210000D02*
X52380000Y-58215000D01*
X45490000Y-58210000D02*
X52375000Y-58210000D01*
X28390000Y-84410000D02*
X31680000Y-87700000D01*
X28390000Y-82800000D02*
X28390000Y-84410000D01*
X31680000Y-87700000D02*
X46390000Y-87700000D01*
X28500000Y-66360000D02*
X31790000Y-69650000D01*
X28500000Y-64750000D02*
X28500000Y-66360000D01*
X67120000Y-39670000D02*
X67120000Y-36590000D01*
X67120000Y-36590000D02*
X66910000Y-36380000D01*
X66910000Y-36380000D02*
X65580000Y-36380000D01*
X65596785Y-36374283D02*
X66533195Y-36374283D01*
X26976785Y-43414283D02*
X27913195Y-43414283D01*
X28290000Y-43420000D02*
X26960000Y-43420000D01*
X28500000Y-43630000D02*
X28290000Y-43420000D01*
X28500000Y-46710000D02*
X28500000Y-43630000D01*
X44996785Y-36334283D02*
X45933195Y-36334283D01*
X46310000Y-36340000D02*
X44980000Y-36340000D01*
X46520000Y-36550000D02*
X46310000Y-36340000D01*
X46520000Y-39630000D02*
X46520000Y-36550000D01*
X83606785Y-43334283D02*
X84543195Y-43334283D01*
X84920000Y-43340000D02*
X83590000Y-43340000D01*
X85130000Y-43550000D02*
X84920000Y-43340000D01*
X85130000Y-46630000D02*
X85130000Y-43550000D01*
X28500000Y-61670000D02*
X28290000Y-61460000D01*
X28290000Y-61460000D02*
X26960000Y-61460000D01*
X26976785Y-61454283D02*
X27913195Y-61454283D01*
X28500000Y-64750000D02*
X28500000Y-61670000D01*
X83656785Y-79344283D02*
X84593195Y-79344283D01*
X85180000Y-82640000D02*
X85180000Y-79560000D01*
X84970000Y-79350000D02*
X83640000Y-79350000D01*
X85180000Y-79560000D02*
X84970000Y-79350000D01*
X28400000Y-79860000D02*
X28190000Y-79650000D01*
X28190000Y-79650000D02*
X26860000Y-79650000D01*
X28400000Y-82940000D02*
X28400000Y-79860000D01*
X26876785Y-79644283D02*
X27813195Y-79644283D01*
X85240000Y-61460000D02*
X85030000Y-61250000D01*
X85240000Y-64540000D02*
X85240000Y-61460000D01*
X85030000Y-61250000D02*
X83700000Y-61250000D01*
X83716785Y-61244283D02*
X84653195Y-61244283D01*
X46510000Y-42600000D02*
X69250000Y-42600000D01*
X85130000Y-46630000D02*
X84310000Y-47450000D01*
X69260000Y-47450000D02*
X69250000Y-47440000D01*
X84310000Y-47450000D02*
X69260000Y-47450000D01*
X85260000Y-64680000D02*
X84440000Y-65500000D01*
X84440000Y-65500000D02*
X69260000Y-65500000D01*
X69260000Y-65500000D02*
X69250000Y-65510000D01*
X69290000Y-83470000D02*
X69250000Y-83430000D01*
X84370000Y-83470000D02*
X69290000Y-83470000D01*
X85190000Y-82650000D02*
X84370000Y-83470000D01*
X28500000Y-46710000D02*
X28500000Y-48320000D01*
X28500000Y-48320000D02*
X31790000Y-51610000D01*
X46500000Y-51610000D02*
X46510000Y-51600000D01*
X31790000Y-51610000D02*
X46500000Y-51610000D01*
X46390000Y-87700000D02*
X46490000Y-87700000D01*
X46490000Y-87700000D02*
X46510000Y-87720000D01*
X46520000Y-69650000D02*
X46530000Y-69660000D01*
X46300000Y-69650000D02*
X46520000Y-69650000D01*
X46300000Y-69650000D02*
X46500000Y-69650000D01*
X31790000Y-69650000D02*
X46300000Y-69650000D01*
X68635000Y-48055000D02*
X69250000Y-47440000D01*
X67620000Y-48055000D02*
X68635000Y-48055000D01*
X44910000Y-35695000D02*
X42835000Y-35695000D01*
X42835000Y-35695000D02*
X42820000Y-35680000D01*
X45590000Y-55670000D02*
X52375000Y-55670000D01*
X52375000Y-55670000D02*
X52380000Y-55675000D01*
X67620000Y-58215000D02*
X64650000Y-55245000D01*
X64650000Y-55245000D02*
X64650000Y-46930000D01*
X64650000Y-46930000D02*
X64630000Y-46910000D01*
X64600000Y-40820000D02*
X62300000Y-38520000D01*
X62300000Y-38520000D02*
X62300000Y-36470000D01*
X63035000Y-35735000D02*
X65510000Y-35735000D01*
X62300000Y-36470000D02*
X63035000Y-35735000D01*
X77825000Y-42685000D02*
X83530000Y-42685000D01*
X73960000Y-46550000D02*
X77825000Y-42685000D01*
X66150000Y-54205000D02*
X66145000Y-54205000D01*
X67620000Y-55675000D02*
X66150000Y-54205000D01*
X65780000Y-47570000D02*
X66800000Y-46550000D01*
X66145000Y-54205000D02*
X65780000Y-53840000D01*
X65780000Y-53840000D02*
X65780000Y-47570000D01*
X66800000Y-46550000D02*
X73960000Y-46550000D01*
X26910000Y-60795000D02*
X24825000Y-60795000D01*
X24825000Y-60795000D02*
X24790000Y-60830000D01*
X45545000Y-63295000D02*
X52380000Y-63295000D01*
X44250000Y-64590000D02*
X45545000Y-63295000D01*
X44250000Y-64590000D02*
X34250000Y-64590000D01*
X34250000Y-64590000D02*
X34240000Y-64600000D01*
X83640000Y-60605000D02*
X76545000Y-60605000D01*
X73855000Y-63295000D02*
X67620000Y-63295000D01*
X76545000Y-60605000D02*
X73855000Y-63295000D01*
X26800000Y-78995000D02*
X24685000Y-78995000D01*
X24685000Y-78995000D02*
X24680000Y-78990000D01*
X34600000Y-82860000D02*
X37820000Y-82860000D01*
X37820000Y-82860000D02*
X40760000Y-79920000D01*
X40760000Y-79920000D02*
X40760000Y-72870000D01*
X40760000Y-72870000D02*
X40760000Y-72220000D01*
X40760000Y-72220000D02*
X41180000Y-71800000D01*
X41180000Y-71800000D02*
X44710000Y-71800000D01*
X51495000Y-71800000D02*
X52380000Y-70915000D01*
X44710000Y-71800000D02*
X51495000Y-71800000D01*
X82355998Y-78665000D02*
X82350998Y-78660000D01*
X83580000Y-78665000D02*
X82355998Y-78665000D01*
X82350998Y-78660000D02*
X81550000Y-78660000D01*
X81550000Y-78660000D02*
X79400000Y-76510000D01*
X79400000Y-76510000D02*
X79400000Y-72080000D01*
X78235000Y-70915000D02*
X67620000Y-70915000D01*
X79400000Y-72080000D02*
X78235000Y-70915000D01*
X90500000Y-86000000D02*
X90500000Y-92500000D01*
X65770000Y-80385000D02*
X67620000Y-78535000D01*
X65770000Y-84930000D02*
X65770000Y-80385000D01*
X69280000Y-88440000D02*
X65770000Y-84930000D01*
X90500000Y-86000000D02*
X88060000Y-88440000D01*
X88060000Y-88440000D02*
X69280000Y-88440000D01*
X26960000Y-39520000D02*
X26960000Y-38150000D01*
X26960000Y-38150000D02*
X26950000Y-38140000D01*
X26950000Y-38140000D02*
X26950000Y-38000000D01*
X26950000Y-38000000D02*
X27360000Y-37590000D01*
X28280000Y-37590000D02*
X30260000Y-35610000D01*
X27360000Y-37590000D02*
X28280000Y-37590000D01*
X33960000Y-39520000D02*
X33960000Y-38150000D01*
X33960000Y-38150000D02*
X33940000Y-38130000D01*
X26960000Y-40170000D02*
X25380000Y-40170000D01*
X25380000Y-40170000D02*
X25090000Y-39880000D01*
X25090000Y-39880000D02*
X25090000Y-39040000D01*
X25090000Y-39040000D02*
X25830000Y-38300000D01*
X25830000Y-38300000D02*
X25830000Y-37250000D01*
X27260000Y-35820000D02*
X27260000Y-35610000D01*
X25830000Y-37250000D02*
X27260000Y-35820000D01*
X36260000Y-35610000D02*
X35970000Y-35610000D01*
X35970000Y-35610000D02*
X34300000Y-37280000D01*
X34300000Y-37280000D02*
X32910000Y-37280000D01*
X32910000Y-37280000D02*
X32120000Y-38070000D01*
X32120000Y-38070000D02*
X32120000Y-40410000D01*
X32530000Y-40820000D02*
X33960000Y-40820000D01*
X32120000Y-40410000D02*
X32530000Y-40820000D01*
X33976785Y-42114282D02*
X33976786Y-41464283D01*
X33960000Y-41470000D02*
X31820000Y-41470000D01*
X33960000Y-43420000D02*
X33960000Y-42770000D01*
X33976785Y-42764283D02*
X33976786Y-43414283D01*
X33960000Y-42770000D02*
X31800000Y-42770000D01*
X31800000Y-42770000D02*
X31790000Y-42780000D01*
X44980000Y-32440000D02*
X44980000Y-31070000D01*
X44980000Y-31070000D02*
X44970000Y-31060000D01*
X44970000Y-31060000D02*
X44970000Y-30920000D01*
X44970000Y-30920000D02*
X45380000Y-30510000D01*
X46300000Y-30510000D02*
X48280000Y-28530000D01*
X45380000Y-30510000D02*
X46300000Y-30510000D01*
X51980000Y-32440000D02*
X51980000Y-31070000D01*
X51980000Y-31070000D02*
X51960000Y-31050000D01*
X44980000Y-33090000D02*
X43400000Y-33090000D01*
X43400000Y-33090000D02*
X43110000Y-32800000D01*
X43110000Y-32800000D02*
X43110000Y-31960000D01*
X43110000Y-31960000D02*
X43850000Y-31220000D01*
X43850000Y-31220000D02*
X43850000Y-30170000D01*
X45280000Y-28740000D02*
X45280000Y-28530000D01*
X43850000Y-30170000D02*
X45280000Y-28740000D01*
X54280000Y-28530000D02*
X53990000Y-28530000D01*
X53990000Y-28530000D02*
X52320000Y-30200000D01*
X52320000Y-30200000D02*
X50930000Y-30200000D01*
X50930000Y-30200000D02*
X50140000Y-30990000D01*
X50140000Y-30990000D02*
X50140000Y-33330000D01*
X50550000Y-33740000D02*
X51980000Y-33740000D01*
X50140000Y-33330000D02*
X50550000Y-33740000D01*
X51996785Y-35034282D02*
X51996786Y-34384283D01*
X51980000Y-34390000D02*
X49840000Y-34390000D01*
X51980000Y-36340000D02*
X51980000Y-35690000D01*
X51996785Y-35684283D02*
X51996786Y-36334283D01*
X51980000Y-35690000D02*
X49820000Y-35690000D01*
X49820000Y-35690000D02*
X49810000Y-35700000D01*
X65980000Y-30550000D02*
X66900000Y-30550000D01*
X66900000Y-30550000D02*
X68880000Y-28570000D01*
X65570000Y-30960000D02*
X65980000Y-30550000D01*
X65570000Y-31100000D02*
X65570000Y-30960000D01*
X65580000Y-31110000D02*
X65570000Y-31100000D01*
X65580000Y-32480000D02*
X65580000Y-31110000D01*
X72580000Y-31110000D02*
X72560000Y-31090000D01*
X72580000Y-32480000D02*
X72580000Y-31110000D01*
X64450000Y-30210000D02*
X65880000Y-28780000D01*
X65880000Y-28780000D02*
X65880000Y-28570000D01*
X64450000Y-31260000D02*
X64450000Y-30210000D01*
X63710000Y-32000000D02*
X64450000Y-31260000D01*
X63710000Y-32840000D02*
X63710000Y-32000000D01*
X64000000Y-33130000D02*
X63710000Y-32840000D01*
X65580000Y-33130000D02*
X64000000Y-33130000D01*
X70740000Y-33370000D02*
X71150000Y-33780000D01*
X71150000Y-33780000D02*
X72580000Y-33780000D01*
X70740000Y-31030000D02*
X70740000Y-33370000D01*
X71530000Y-30240000D02*
X70740000Y-31030000D01*
X72920000Y-30240000D02*
X71530000Y-30240000D01*
X74590000Y-28570000D02*
X72920000Y-30240000D01*
X74880000Y-28570000D02*
X74590000Y-28570000D01*
X72580000Y-34430000D02*
X70440000Y-34430000D01*
X72596785Y-35074282D02*
X72596786Y-34424283D01*
X70420000Y-35730000D02*
X70410000Y-35740000D01*
X72580000Y-35730000D02*
X70420000Y-35730000D01*
X72596785Y-35724283D02*
X72596786Y-36374283D01*
X72580000Y-36380000D02*
X72580000Y-35730000D01*
X83590000Y-39440000D02*
X83590000Y-38070000D01*
X83590000Y-38070000D02*
X83580000Y-38060000D01*
X83580000Y-38060000D02*
X83580000Y-37920000D01*
X83580000Y-37920000D02*
X83990000Y-37510000D01*
X84910000Y-37510000D02*
X86890000Y-35530000D01*
X83990000Y-37510000D02*
X84910000Y-37510000D01*
X90590000Y-39440000D02*
X90590000Y-38070000D01*
X90590000Y-38070000D02*
X90570000Y-38050000D01*
X83590000Y-40090000D02*
X82010000Y-40090000D01*
X82010000Y-40090000D02*
X81720000Y-39800000D01*
X81720000Y-39800000D02*
X81720000Y-38960000D01*
X81720000Y-38960000D02*
X82460000Y-38220000D01*
X82460000Y-38220000D02*
X82460000Y-37170000D01*
X83890000Y-35740000D02*
X83890000Y-35530000D01*
X82460000Y-37170000D02*
X83890000Y-35740000D01*
X92890000Y-35530000D02*
X92600000Y-35530000D01*
X92600000Y-35530000D02*
X90930000Y-37200000D01*
X90930000Y-37200000D02*
X89540000Y-37200000D01*
X89540000Y-37200000D02*
X88750000Y-37990000D01*
X88750000Y-37990000D02*
X88750000Y-40330000D01*
X89160000Y-40740000D02*
X90590000Y-40740000D01*
X88750000Y-40330000D02*
X89160000Y-40740000D01*
X90606785Y-42034282D02*
X90606786Y-41384283D01*
X90590000Y-41390000D02*
X88450000Y-41390000D01*
X90590000Y-43340000D02*
X90590000Y-42690000D01*
X90606785Y-42684283D02*
X90606786Y-43334283D01*
X90590000Y-42690000D02*
X88430000Y-42690000D01*
X88430000Y-42690000D02*
X88420000Y-42700000D01*
X26950000Y-56040000D02*
X27360000Y-55630000D01*
X27360000Y-55630000D02*
X28280000Y-55630000D01*
X26960000Y-56190000D02*
X26950000Y-56180000D01*
X28280000Y-55630000D02*
X30260000Y-53650000D01*
X26950000Y-56180000D02*
X26950000Y-56040000D01*
X26960000Y-57560000D02*
X26960000Y-56190000D01*
X33960000Y-57560000D02*
X33960000Y-56190000D01*
X33960000Y-56190000D02*
X33940000Y-56170000D01*
X25380000Y-58210000D02*
X25090000Y-57920000D01*
X25830000Y-56340000D02*
X25830000Y-55290000D01*
X25090000Y-57920000D02*
X25090000Y-57080000D01*
X25090000Y-57080000D02*
X25830000Y-56340000D01*
X25830000Y-55290000D02*
X27260000Y-53860000D01*
X27260000Y-53860000D02*
X27260000Y-53650000D01*
X26960000Y-58210000D02*
X25380000Y-58210000D01*
X34300000Y-55320000D02*
X32910000Y-55320000D01*
X32120000Y-58450000D02*
X32530000Y-58860000D01*
X32910000Y-55320000D02*
X32120000Y-56110000D01*
X36260000Y-53650000D02*
X35970000Y-53650000D01*
X32120000Y-56110000D02*
X32120000Y-58450000D01*
X32530000Y-58860000D02*
X33960000Y-58860000D01*
X35970000Y-53650000D02*
X34300000Y-55320000D01*
X33960000Y-59510000D02*
X31820000Y-59510000D01*
X33976785Y-60154282D02*
X33976786Y-59504283D01*
X31800000Y-60810000D02*
X31790000Y-60820000D01*
X33976785Y-60804283D02*
X33976786Y-61454283D01*
X33960000Y-60810000D02*
X31800000Y-60810000D01*
X33960000Y-61460000D02*
X33960000Y-60810000D01*
X84100000Y-55420000D02*
X85020000Y-55420000D01*
X83700000Y-57350000D02*
X83700000Y-55980000D01*
X83690000Y-55970000D02*
X83690000Y-55830000D01*
X83700000Y-55980000D02*
X83690000Y-55970000D01*
X83690000Y-55830000D02*
X84100000Y-55420000D01*
X85020000Y-55420000D02*
X87000000Y-53440000D01*
X90700000Y-55980000D02*
X90680000Y-55960000D01*
X90700000Y-57350000D02*
X90700000Y-55980000D01*
X83700000Y-58000000D02*
X82120000Y-58000000D01*
X82570000Y-55080000D02*
X84000000Y-53650000D01*
X81830000Y-56870000D02*
X82570000Y-56130000D01*
X81830000Y-57710000D02*
X81830000Y-56870000D01*
X82570000Y-56130000D02*
X82570000Y-55080000D01*
X84000000Y-53650000D02*
X84000000Y-53440000D01*
X82120000Y-58000000D02*
X81830000Y-57710000D01*
X88860000Y-58240000D02*
X89270000Y-58650000D01*
X91040000Y-55110000D02*
X89650000Y-55110000D01*
X89650000Y-55110000D02*
X88860000Y-55900000D01*
X92710000Y-53440000D02*
X91040000Y-55110000D01*
X93000000Y-53440000D02*
X92710000Y-53440000D01*
X88860000Y-55900000D02*
X88860000Y-58240000D01*
X89270000Y-58650000D02*
X90700000Y-58650000D01*
X90716785Y-59944282D02*
X90716786Y-59294283D01*
X90700000Y-59300000D02*
X88560000Y-59300000D01*
X90700000Y-60600000D02*
X88540000Y-60600000D01*
X90716785Y-60594283D02*
X90716786Y-61244283D01*
X90700000Y-61250000D02*
X90700000Y-60600000D01*
X88540000Y-60600000D02*
X88530000Y-60610000D01*
X26860000Y-75750000D02*
X26860000Y-74380000D01*
X26850000Y-74370000D02*
X26850000Y-74230000D01*
X26850000Y-74230000D02*
X27260000Y-73820000D01*
X26860000Y-74380000D02*
X26850000Y-74370000D01*
X27260000Y-73820000D02*
X28180000Y-73820000D01*
X28180000Y-73820000D02*
X30160000Y-71840000D01*
X33860000Y-75750000D02*
X33860000Y-74380000D01*
X33860000Y-74380000D02*
X33840000Y-74360000D01*
X25730000Y-74530000D02*
X25730000Y-73480000D01*
X24990000Y-76110000D02*
X24990000Y-75270000D01*
X25280000Y-76400000D02*
X24990000Y-76110000D01*
X27160000Y-72050000D02*
X27160000Y-71840000D01*
X26860000Y-76400000D02*
X25280000Y-76400000D01*
X25730000Y-73480000D02*
X27160000Y-72050000D01*
X24990000Y-75270000D02*
X25730000Y-74530000D01*
X32430000Y-77050000D02*
X33860000Y-77050000D01*
X32020000Y-76640000D02*
X32430000Y-77050000D01*
X35870000Y-71840000D02*
X34200000Y-73510000D01*
X34200000Y-73510000D02*
X32810000Y-73510000D01*
X32810000Y-73510000D02*
X32020000Y-74300000D01*
X36160000Y-71840000D02*
X35870000Y-71840000D01*
X32020000Y-74300000D02*
X32020000Y-76640000D01*
X33876785Y-78344282D02*
X33876786Y-77694283D01*
X33860000Y-77700000D02*
X31720000Y-77700000D01*
X31700000Y-79000000D02*
X31690000Y-79010000D01*
X33860000Y-79000000D02*
X31700000Y-79000000D01*
X33876785Y-78994283D02*
X33876786Y-79644283D01*
X33860000Y-79650000D02*
X33860000Y-79000000D01*
X83630000Y-73930000D02*
X84040000Y-73520000D01*
X83640000Y-75450000D02*
X83640000Y-74080000D01*
X83630000Y-74070000D02*
X83630000Y-73930000D01*
X84960000Y-73520000D02*
X86940000Y-71540000D01*
X83640000Y-74080000D02*
X83630000Y-74070000D01*
X84040000Y-73520000D02*
X84960000Y-73520000D01*
X90640000Y-74080000D02*
X90620000Y-74060000D01*
X90640000Y-75450000D02*
X90640000Y-74080000D01*
X82510000Y-74230000D02*
X82510000Y-73180000D01*
X81770000Y-74970000D02*
X82510000Y-74230000D01*
X83940000Y-71750000D02*
X83940000Y-71540000D01*
X81770000Y-75810000D02*
X81770000Y-74970000D01*
X82510000Y-73180000D02*
X83940000Y-71750000D01*
X83640000Y-76100000D02*
X82060000Y-76100000D01*
X82060000Y-76100000D02*
X81770000Y-75810000D01*
X89590000Y-73210000D02*
X88800000Y-74000000D01*
X92940000Y-71540000D02*
X92650000Y-71540000D01*
X90980000Y-73210000D02*
X89590000Y-73210000D01*
X88800000Y-74000000D02*
X88800000Y-76340000D01*
X92650000Y-71540000D02*
X90980000Y-73210000D01*
X88800000Y-76340000D02*
X89210000Y-76750000D01*
X89210000Y-76750000D02*
X90640000Y-76750000D01*
X90640000Y-77400000D02*
X88500000Y-77400000D01*
X90656785Y-78044282D02*
X90656786Y-77394283D01*
X88480000Y-78700000D02*
X88470000Y-78710000D01*
X90640000Y-79350000D02*
X90640000Y-78700000D01*
X90640000Y-78700000D02*
X88480000Y-78700000D01*
X90656785Y-78694283D02*
X90656786Y-79344283D01*
M02*
