G04 #@! TF.GenerationSoftware,KiCad,Pcbnew,5.1.7-a382d34a8~88~ubuntu18.04.1*
G04 #@! TF.CreationDate,2021-03-07T00:42:37-06:00*
G04 #@! TF.ProjectId,RTDTemp,52544454-656d-4702-9e6b-696361645f70,1.0.0*
G04 #@! TF.SameCoordinates,Original*
G04 #@! TF.FileFunction,Soldermask,Top*
G04 #@! TF.FilePolarity,Negative*
%FSLAX46Y46*%
G04 Gerber Fmt 4.6, Leading zero omitted, Abs format (unit mm)*
G04 Created by KiCad (PCBNEW 5.1.7-a382d34a8~88~ubuntu18.04.1) date 2021-03-07 00:42:37*
%MOMM*%
%LPD*%
G01*
G04 APERTURE LIST*
%ADD10O,2.100000X2.100000*%
%ADD11C,3.200000*%
%ADD12C,1.670000*%
%ADD13O,2.420000X1.900000*%
%ADD14O,1.900000X2.420000*%
%ADD15C,1.908000*%
%ADD16C,1.930000*%
%ADD17C,2.400000*%
%ADD18C,3.400000*%
G04 APERTURE END LIST*
G36*
G01*
X66505000Y-109703750D02*
X66505000Y-110816250D01*
G75*
G02*
X66161250Y-111160000I-343750J0D01*
G01*
X65473750Y-111160000D01*
G75*
G02*
X65130000Y-110816250I0J343750D01*
G01*
X65130000Y-109703750D01*
G75*
G02*
X65473750Y-109360000I343750J0D01*
G01*
X66161250Y-109360000D01*
G75*
G02*
X66505000Y-109703750I0J-343750D01*
G01*
G37*
G36*
G01*
X64630000Y-109703750D02*
X64630000Y-110816250D01*
G75*
G02*
X64286250Y-111160000I-343750J0D01*
G01*
X63598750Y-111160000D01*
G75*
G02*
X63255000Y-110816250I0J343750D01*
G01*
X63255000Y-109703750D01*
G75*
G02*
X63598750Y-109360000I343750J0D01*
G01*
X64286250Y-109360000D01*
G75*
G02*
X64630000Y-109703750I0J-343750D01*
G01*
G37*
G36*
G01*
X70420000Y-114390000D02*
X70420000Y-116090000D01*
G75*
G02*
X70220000Y-116290000I-200000J0D01*
G01*
X68520000Y-116290000D01*
G75*
G02*
X68320000Y-116090000I0J200000D01*
G01*
X68320000Y-114390000D01*
G75*
G02*
X68520000Y-114190000I200000J0D01*
G01*
X70220000Y-114190000D01*
G75*
G02*
X70420000Y-114390000I0J-200000D01*
G01*
G37*
D10*
X69370000Y-112700000D03*
D11*
X78870000Y-97700000D03*
G36*
G01*
X68187500Y-105026250D02*
X68187500Y-103913750D01*
G75*
G02*
X68531250Y-103570000I343750J0D01*
G01*
X69218750Y-103570000D01*
G75*
G02*
X69562500Y-103913750I0J-343750D01*
G01*
X69562500Y-105026250D01*
G75*
G02*
X69218750Y-105370000I-343750J0D01*
G01*
X68531250Y-105370000D01*
G75*
G02*
X68187500Y-105026250I0J343750D01*
G01*
G37*
G36*
G01*
X66312500Y-105026250D02*
X66312500Y-103913750D01*
G75*
G02*
X66656250Y-103570000I343750J0D01*
G01*
X67343750Y-103570000D01*
G75*
G02*
X67687500Y-103913750I0J-343750D01*
G01*
X67687500Y-105026250D01*
G75*
G02*
X67343750Y-105370000I-343750J0D01*
G01*
X66656250Y-105370000D01*
G75*
G02*
X66312500Y-105026250I0J343750D01*
G01*
G37*
D12*
X77910000Y-101680000D03*
X77910000Y-116680000D03*
G36*
G01*
X75056666Y-103730000D02*
X76843334Y-103730000D01*
G75*
G02*
X77160000Y-104046666I0J-316666D01*
G01*
X77160000Y-105313334D01*
G75*
G02*
X76843334Y-105630000I-316666J0D01*
G01*
X75056666Y-105630000D01*
G75*
G02*
X74740000Y-105313334I0J316666D01*
G01*
X74740000Y-104046666D01*
G75*
G02*
X75056666Y-103730000I316666J0D01*
G01*
G37*
D13*
X75950000Y-107680000D03*
X75950000Y-110680000D03*
X75950000Y-113680000D03*
D12*
X85675000Y-101690000D03*
X85675000Y-116690000D03*
G36*
G01*
X82821666Y-103740000D02*
X84608334Y-103740000D01*
G75*
G02*
X84925000Y-104056666I0J-316666D01*
G01*
X84925000Y-105323334D01*
G75*
G02*
X84608334Y-105640000I-316666J0D01*
G01*
X82821666Y-105640000D01*
G75*
G02*
X82505000Y-105323334I0J316666D01*
G01*
X82505000Y-104056666D01*
G75*
G02*
X82821666Y-103740000I316666J0D01*
G01*
G37*
D13*
X83715000Y-107690000D03*
X83715000Y-110690000D03*
X83715000Y-113690000D03*
G36*
G01*
X46060000Y-38070000D02*
X46060000Y-38520000D01*
G75*
G02*
X45835000Y-38745000I-225000J0D01*
G01*
X43985000Y-38745000D01*
G75*
G02*
X43760000Y-38520000I0J225000D01*
G01*
X43760000Y-38070000D01*
G75*
G02*
X43985000Y-37845000I225000J0D01*
G01*
X45835000Y-37845000D01*
G75*
G02*
X46060000Y-38070000I0J-225000D01*
G01*
G37*
G36*
G01*
X46060000Y-37420000D02*
X46060000Y-37870000D01*
G75*
G02*
X45835000Y-38095000I-225000J0D01*
G01*
X43985000Y-38095000D01*
G75*
G02*
X43760000Y-37870000I0J225000D01*
G01*
X43760000Y-37420000D01*
G75*
G02*
X43985000Y-37195000I225000J0D01*
G01*
X45835000Y-37195000D01*
G75*
G02*
X46060000Y-37420000I0J-225000D01*
G01*
G37*
G36*
G01*
X46060000Y-36770000D02*
X46060000Y-37220000D01*
G75*
G02*
X45835000Y-37445000I-225000J0D01*
G01*
X43985000Y-37445000D01*
G75*
G02*
X43760000Y-37220000I0J225000D01*
G01*
X43760000Y-36770000D01*
G75*
G02*
X43985000Y-36545000I225000J0D01*
G01*
X45835000Y-36545000D01*
G75*
G02*
X46060000Y-36770000I0J-225000D01*
G01*
G37*
G36*
G01*
X46060000Y-36120000D02*
X46060000Y-36570000D01*
G75*
G02*
X45835000Y-36795000I-225000J0D01*
G01*
X43985000Y-36795000D01*
G75*
G02*
X43760000Y-36570000I0J225000D01*
G01*
X43760000Y-36120000D01*
G75*
G02*
X43985000Y-35895000I225000J0D01*
G01*
X45835000Y-35895000D01*
G75*
G02*
X46060000Y-36120000I0J-225000D01*
G01*
G37*
G36*
G01*
X46060000Y-35470000D02*
X46060000Y-35920000D01*
G75*
G02*
X45835000Y-36145000I-225000J0D01*
G01*
X43985000Y-36145000D01*
G75*
G02*
X43760000Y-35920000I0J225000D01*
G01*
X43760000Y-35470000D01*
G75*
G02*
X43985000Y-35245000I225000J0D01*
G01*
X45835000Y-35245000D01*
G75*
G02*
X46060000Y-35470000I0J-225000D01*
G01*
G37*
G36*
G01*
X46060000Y-34820000D02*
X46060000Y-35270000D01*
G75*
G02*
X45835000Y-35495000I-225000J0D01*
G01*
X43985000Y-35495000D01*
G75*
G02*
X43760000Y-35270000I0J225000D01*
G01*
X43760000Y-34820000D01*
G75*
G02*
X43985000Y-34595000I225000J0D01*
G01*
X45835000Y-34595000D01*
G75*
G02*
X46060000Y-34820000I0J-225000D01*
G01*
G37*
G36*
G01*
X46060000Y-34170000D02*
X46060000Y-34620000D01*
G75*
G02*
X45835000Y-34845000I-225000J0D01*
G01*
X43985000Y-34845000D01*
G75*
G02*
X43760000Y-34620000I0J225000D01*
G01*
X43760000Y-34170000D01*
G75*
G02*
X43985000Y-33945000I225000J0D01*
G01*
X45835000Y-33945000D01*
G75*
G02*
X46060000Y-34170000I0J-225000D01*
G01*
G37*
G36*
G01*
X46060000Y-33520000D02*
X46060000Y-33970000D01*
G75*
G02*
X45835000Y-34195000I-225000J0D01*
G01*
X43985000Y-34195000D01*
G75*
G02*
X43760000Y-33970000I0J225000D01*
G01*
X43760000Y-33520000D01*
G75*
G02*
X43985000Y-33295000I225000J0D01*
G01*
X45835000Y-33295000D01*
G75*
G02*
X46060000Y-33520000I0J-225000D01*
G01*
G37*
G36*
G01*
X46060000Y-32870000D02*
X46060000Y-33320000D01*
G75*
G02*
X45835000Y-33545000I-225000J0D01*
G01*
X43985000Y-33545000D01*
G75*
G02*
X43760000Y-33320000I0J225000D01*
G01*
X43760000Y-32870000D01*
G75*
G02*
X43985000Y-32645000I225000J0D01*
G01*
X45835000Y-32645000D01*
G75*
G02*
X46060000Y-32870000I0J-225000D01*
G01*
G37*
G36*
G01*
X46060000Y-32220000D02*
X46060000Y-32670000D01*
G75*
G02*
X45835000Y-32895000I-225000J0D01*
G01*
X43985000Y-32895000D01*
G75*
G02*
X43760000Y-32670000I0J225000D01*
G01*
X43760000Y-32220000D01*
G75*
G02*
X43985000Y-31995000I225000J0D01*
G01*
X45835000Y-31995000D01*
G75*
G02*
X46060000Y-32220000I0J-225000D01*
G01*
G37*
G36*
G01*
X53060000Y-32220000D02*
X53060000Y-32670000D01*
G75*
G02*
X52835000Y-32895000I-225000J0D01*
G01*
X50985000Y-32895000D01*
G75*
G02*
X50760000Y-32670000I0J225000D01*
G01*
X50760000Y-32220000D01*
G75*
G02*
X50985000Y-31995000I225000J0D01*
G01*
X52835000Y-31995000D01*
G75*
G02*
X53060000Y-32220000I0J-225000D01*
G01*
G37*
G36*
G01*
X53060000Y-32870000D02*
X53060000Y-33320000D01*
G75*
G02*
X52835000Y-33545000I-225000J0D01*
G01*
X50985000Y-33545000D01*
G75*
G02*
X50760000Y-33320000I0J225000D01*
G01*
X50760000Y-32870000D01*
G75*
G02*
X50985000Y-32645000I225000J0D01*
G01*
X52835000Y-32645000D01*
G75*
G02*
X53060000Y-32870000I0J-225000D01*
G01*
G37*
G36*
G01*
X53060000Y-33520000D02*
X53060000Y-33970000D01*
G75*
G02*
X52835000Y-34195000I-225000J0D01*
G01*
X50985000Y-34195000D01*
G75*
G02*
X50760000Y-33970000I0J225000D01*
G01*
X50760000Y-33520000D01*
G75*
G02*
X50985000Y-33295000I225000J0D01*
G01*
X52835000Y-33295000D01*
G75*
G02*
X53060000Y-33520000I0J-225000D01*
G01*
G37*
G36*
G01*
X53060000Y-34170000D02*
X53060000Y-34620000D01*
G75*
G02*
X52835000Y-34845000I-225000J0D01*
G01*
X50985000Y-34845000D01*
G75*
G02*
X50760000Y-34620000I0J225000D01*
G01*
X50760000Y-34170000D01*
G75*
G02*
X50985000Y-33945000I225000J0D01*
G01*
X52835000Y-33945000D01*
G75*
G02*
X53060000Y-34170000I0J-225000D01*
G01*
G37*
G36*
G01*
X53060000Y-34820000D02*
X53060000Y-35270000D01*
G75*
G02*
X52835000Y-35495000I-225000J0D01*
G01*
X50985000Y-35495000D01*
G75*
G02*
X50760000Y-35270000I0J225000D01*
G01*
X50760000Y-34820000D01*
G75*
G02*
X50985000Y-34595000I225000J0D01*
G01*
X52835000Y-34595000D01*
G75*
G02*
X53060000Y-34820000I0J-225000D01*
G01*
G37*
G36*
G01*
X53060000Y-35470000D02*
X53060000Y-35920000D01*
G75*
G02*
X52835000Y-36145000I-225000J0D01*
G01*
X50985000Y-36145000D01*
G75*
G02*
X50760000Y-35920000I0J225000D01*
G01*
X50760000Y-35470000D01*
G75*
G02*
X50985000Y-35245000I225000J0D01*
G01*
X52835000Y-35245000D01*
G75*
G02*
X53060000Y-35470000I0J-225000D01*
G01*
G37*
G36*
G01*
X53060000Y-36120000D02*
X53060000Y-36570000D01*
G75*
G02*
X52835000Y-36795000I-225000J0D01*
G01*
X50985000Y-36795000D01*
G75*
G02*
X50760000Y-36570000I0J225000D01*
G01*
X50760000Y-36120000D01*
G75*
G02*
X50985000Y-35895000I225000J0D01*
G01*
X52835000Y-35895000D01*
G75*
G02*
X53060000Y-36120000I0J-225000D01*
G01*
G37*
G36*
G01*
X53060000Y-36770000D02*
X53060000Y-37220000D01*
G75*
G02*
X52835000Y-37445000I-225000J0D01*
G01*
X50985000Y-37445000D01*
G75*
G02*
X50760000Y-37220000I0J225000D01*
G01*
X50760000Y-36770000D01*
G75*
G02*
X50985000Y-36545000I225000J0D01*
G01*
X52835000Y-36545000D01*
G75*
G02*
X53060000Y-36770000I0J-225000D01*
G01*
G37*
G36*
G01*
X53060000Y-37420000D02*
X53060000Y-37870000D01*
G75*
G02*
X52835000Y-38095000I-225000J0D01*
G01*
X50985000Y-38095000D01*
G75*
G02*
X50760000Y-37870000I0J225000D01*
G01*
X50760000Y-37420000D01*
G75*
G02*
X50985000Y-37195000I225000J0D01*
G01*
X52835000Y-37195000D01*
G75*
G02*
X53060000Y-37420000I0J-225000D01*
G01*
G37*
G36*
G01*
X53060000Y-38070000D02*
X53060000Y-38520000D01*
G75*
G02*
X52835000Y-38745000I-225000J0D01*
G01*
X50985000Y-38745000D01*
G75*
G02*
X50760000Y-38520000I0J225000D01*
G01*
X50760000Y-38070000D01*
G75*
G02*
X50985000Y-37845000I225000J0D01*
G01*
X52835000Y-37845000D01*
G75*
G02*
X53060000Y-38070000I0J-225000D01*
G01*
G37*
G36*
G01*
X91730000Y-81040000D02*
X91730000Y-81490000D01*
G75*
G02*
X91505000Y-81715000I-225000J0D01*
G01*
X89655000Y-81715000D01*
G75*
G02*
X89430000Y-81490000I0J225000D01*
G01*
X89430000Y-81040000D01*
G75*
G02*
X89655000Y-80815000I225000J0D01*
G01*
X91505000Y-80815000D01*
G75*
G02*
X91730000Y-81040000I0J-225000D01*
G01*
G37*
G36*
G01*
X91730000Y-80390000D02*
X91730000Y-80840000D01*
G75*
G02*
X91505000Y-81065000I-225000J0D01*
G01*
X89655000Y-81065000D01*
G75*
G02*
X89430000Y-80840000I0J225000D01*
G01*
X89430000Y-80390000D01*
G75*
G02*
X89655000Y-80165000I225000J0D01*
G01*
X91505000Y-80165000D01*
G75*
G02*
X91730000Y-80390000I0J-225000D01*
G01*
G37*
G36*
G01*
X91730000Y-79740000D02*
X91730000Y-80190000D01*
G75*
G02*
X91505000Y-80415000I-225000J0D01*
G01*
X89655000Y-80415000D01*
G75*
G02*
X89430000Y-80190000I0J225000D01*
G01*
X89430000Y-79740000D01*
G75*
G02*
X89655000Y-79515000I225000J0D01*
G01*
X91505000Y-79515000D01*
G75*
G02*
X91730000Y-79740000I0J-225000D01*
G01*
G37*
G36*
G01*
X91730000Y-79090000D02*
X91730000Y-79540000D01*
G75*
G02*
X91505000Y-79765000I-225000J0D01*
G01*
X89655000Y-79765000D01*
G75*
G02*
X89430000Y-79540000I0J225000D01*
G01*
X89430000Y-79090000D01*
G75*
G02*
X89655000Y-78865000I225000J0D01*
G01*
X91505000Y-78865000D01*
G75*
G02*
X91730000Y-79090000I0J-225000D01*
G01*
G37*
G36*
G01*
X91730000Y-78440000D02*
X91730000Y-78890000D01*
G75*
G02*
X91505000Y-79115000I-225000J0D01*
G01*
X89655000Y-79115000D01*
G75*
G02*
X89430000Y-78890000I0J225000D01*
G01*
X89430000Y-78440000D01*
G75*
G02*
X89655000Y-78215000I225000J0D01*
G01*
X91505000Y-78215000D01*
G75*
G02*
X91730000Y-78440000I0J-225000D01*
G01*
G37*
G36*
G01*
X91730000Y-77790000D02*
X91730000Y-78240000D01*
G75*
G02*
X91505000Y-78465000I-225000J0D01*
G01*
X89655000Y-78465000D01*
G75*
G02*
X89430000Y-78240000I0J225000D01*
G01*
X89430000Y-77790000D01*
G75*
G02*
X89655000Y-77565000I225000J0D01*
G01*
X91505000Y-77565000D01*
G75*
G02*
X91730000Y-77790000I0J-225000D01*
G01*
G37*
G36*
G01*
X91730000Y-77140000D02*
X91730000Y-77590000D01*
G75*
G02*
X91505000Y-77815000I-225000J0D01*
G01*
X89655000Y-77815000D01*
G75*
G02*
X89430000Y-77590000I0J225000D01*
G01*
X89430000Y-77140000D01*
G75*
G02*
X89655000Y-76915000I225000J0D01*
G01*
X91505000Y-76915000D01*
G75*
G02*
X91730000Y-77140000I0J-225000D01*
G01*
G37*
G36*
G01*
X91730000Y-76490000D02*
X91730000Y-76940000D01*
G75*
G02*
X91505000Y-77165000I-225000J0D01*
G01*
X89655000Y-77165000D01*
G75*
G02*
X89430000Y-76940000I0J225000D01*
G01*
X89430000Y-76490000D01*
G75*
G02*
X89655000Y-76265000I225000J0D01*
G01*
X91505000Y-76265000D01*
G75*
G02*
X91730000Y-76490000I0J-225000D01*
G01*
G37*
G36*
G01*
X91730000Y-75840000D02*
X91730000Y-76290000D01*
G75*
G02*
X91505000Y-76515000I-225000J0D01*
G01*
X89655000Y-76515000D01*
G75*
G02*
X89430000Y-76290000I0J225000D01*
G01*
X89430000Y-75840000D01*
G75*
G02*
X89655000Y-75615000I225000J0D01*
G01*
X91505000Y-75615000D01*
G75*
G02*
X91730000Y-75840000I0J-225000D01*
G01*
G37*
G36*
G01*
X91730000Y-75190000D02*
X91730000Y-75640000D01*
G75*
G02*
X91505000Y-75865000I-225000J0D01*
G01*
X89655000Y-75865000D01*
G75*
G02*
X89430000Y-75640000I0J225000D01*
G01*
X89430000Y-75190000D01*
G75*
G02*
X89655000Y-74965000I225000J0D01*
G01*
X91505000Y-74965000D01*
G75*
G02*
X91730000Y-75190000I0J-225000D01*
G01*
G37*
G36*
G01*
X84730000Y-75190000D02*
X84730000Y-75640000D01*
G75*
G02*
X84505000Y-75865000I-225000J0D01*
G01*
X82655000Y-75865000D01*
G75*
G02*
X82430000Y-75640000I0J225000D01*
G01*
X82430000Y-75190000D01*
G75*
G02*
X82655000Y-74965000I225000J0D01*
G01*
X84505000Y-74965000D01*
G75*
G02*
X84730000Y-75190000I0J-225000D01*
G01*
G37*
G36*
G01*
X84730000Y-75840000D02*
X84730000Y-76290000D01*
G75*
G02*
X84505000Y-76515000I-225000J0D01*
G01*
X82655000Y-76515000D01*
G75*
G02*
X82430000Y-76290000I0J225000D01*
G01*
X82430000Y-75840000D01*
G75*
G02*
X82655000Y-75615000I225000J0D01*
G01*
X84505000Y-75615000D01*
G75*
G02*
X84730000Y-75840000I0J-225000D01*
G01*
G37*
G36*
G01*
X84730000Y-76490000D02*
X84730000Y-76940000D01*
G75*
G02*
X84505000Y-77165000I-225000J0D01*
G01*
X82655000Y-77165000D01*
G75*
G02*
X82430000Y-76940000I0J225000D01*
G01*
X82430000Y-76490000D01*
G75*
G02*
X82655000Y-76265000I225000J0D01*
G01*
X84505000Y-76265000D01*
G75*
G02*
X84730000Y-76490000I0J-225000D01*
G01*
G37*
G36*
G01*
X84730000Y-77140000D02*
X84730000Y-77590000D01*
G75*
G02*
X84505000Y-77815000I-225000J0D01*
G01*
X82655000Y-77815000D01*
G75*
G02*
X82430000Y-77590000I0J225000D01*
G01*
X82430000Y-77140000D01*
G75*
G02*
X82655000Y-76915000I225000J0D01*
G01*
X84505000Y-76915000D01*
G75*
G02*
X84730000Y-77140000I0J-225000D01*
G01*
G37*
G36*
G01*
X84730000Y-77790000D02*
X84730000Y-78240000D01*
G75*
G02*
X84505000Y-78465000I-225000J0D01*
G01*
X82655000Y-78465000D01*
G75*
G02*
X82430000Y-78240000I0J225000D01*
G01*
X82430000Y-77790000D01*
G75*
G02*
X82655000Y-77565000I225000J0D01*
G01*
X84505000Y-77565000D01*
G75*
G02*
X84730000Y-77790000I0J-225000D01*
G01*
G37*
G36*
G01*
X84730000Y-78440000D02*
X84730000Y-78890000D01*
G75*
G02*
X84505000Y-79115000I-225000J0D01*
G01*
X82655000Y-79115000D01*
G75*
G02*
X82430000Y-78890000I0J225000D01*
G01*
X82430000Y-78440000D01*
G75*
G02*
X82655000Y-78215000I225000J0D01*
G01*
X84505000Y-78215000D01*
G75*
G02*
X84730000Y-78440000I0J-225000D01*
G01*
G37*
G36*
G01*
X84730000Y-79090000D02*
X84730000Y-79540000D01*
G75*
G02*
X84505000Y-79765000I-225000J0D01*
G01*
X82655000Y-79765000D01*
G75*
G02*
X82430000Y-79540000I0J225000D01*
G01*
X82430000Y-79090000D01*
G75*
G02*
X82655000Y-78865000I225000J0D01*
G01*
X84505000Y-78865000D01*
G75*
G02*
X84730000Y-79090000I0J-225000D01*
G01*
G37*
G36*
G01*
X84730000Y-79740000D02*
X84730000Y-80190000D01*
G75*
G02*
X84505000Y-80415000I-225000J0D01*
G01*
X82655000Y-80415000D01*
G75*
G02*
X82430000Y-80190000I0J225000D01*
G01*
X82430000Y-79740000D01*
G75*
G02*
X82655000Y-79515000I225000J0D01*
G01*
X84505000Y-79515000D01*
G75*
G02*
X84730000Y-79740000I0J-225000D01*
G01*
G37*
G36*
G01*
X84730000Y-80390000D02*
X84730000Y-80840000D01*
G75*
G02*
X84505000Y-81065000I-225000J0D01*
G01*
X82655000Y-81065000D01*
G75*
G02*
X82430000Y-80840000I0J225000D01*
G01*
X82430000Y-80390000D01*
G75*
G02*
X82655000Y-80165000I225000J0D01*
G01*
X84505000Y-80165000D01*
G75*
G02*
X84730000Y-80390000I0J-225000D01*
G01*
G37*
G36*
G01*
X84730000Y-81040000D02*
X84730000Y-81490000D01*
G75*
G02*
X84505000Y-81715000I-225000J0D01*
G01*
X82655000Y-81715000D01*
G75*
G02*
X82430000Y-81490000I0J225000D01*
G01*
X82430000Y-81040000D01*
G75*
G02*
X82655000Y-80815000I225000J0D01*
G01*
X84505000Y-80815000D01*
G75*
G02*
X84730000Y-81040000I0J-225000D01*
G01*
G37*
D14*
X83900000Y-71500000D03*
X86900000Y-71500000D03*
X89900000Y-71500000D03*
G36*
G01*
X93850000Y-70606666D02*
X93850000Y-72393334D01*
G75*
G02*
X93533334Y-72710000I-316666J0D01*
G01*
X92266666Y-72710000D01*
G75*
G02*
X91950000Y-72393334I0J316666D01*
G01*
X91950000Y-70606666D01*
G75*
G02*
X92266666Y-70290000I316666J0D01*
G01*
X93533334Y-70290000D01*
G75*
G02*
X93850000Y-70606666I0J-316666D01*
G01*
G37*
D12*
X80900000Y-73460000D03*
X95900000Y-73460000D03*
G36*
G01*
X94325000Y-81070000D02*
X93175000Y-81070000D01*
G75*
G02*
X92825000Y-80720000I0J350000D01*
G01*
X92825000Y-80020000D01*
G75*
G02*
X93175000Y-79670000I350000J0D01*
G01*
X94325000Y-79670000D01*
G75*
G02*
X94675000Y-80020000I0J-350000D01*
G01*
X94675000Y-80720000D01*
G75*
G02*
X94325000Y-81070000I-350000J0D01*
G01*
G37*
G36*
G01*
X94325000Y-79170000D02*
X93175000Y-79170000D01*
G75*
G02*
X92825000Y-78820000I0J350000D01*
G01*
X92825000Y-78120000D01*
G75*
G02*
X93175000Y-77770000I350000J0D01*
G01*
X94325000Y-77770000D01*
G75*
G02*
X94675000Y-78120000I0J-350000D01*
G01*
X94675000Y-78820000D01*
G75*
G02*
X94325000Y-79170000I-350000J0D01*
G01*
G37*
G36*
G01*
X27950000Y-81370000D02*
X27950000Y-81820000D01*
G75*
G02*
X27725000Y-82045000I-225000J0D01*
G01*
X25875000Y-82045000D01*
G75*
G02*
X25650000Y-81820000I0J225000D01*
G01*
X25650000Y-81370000D01*
G75*
G02*
X25875000Y-81145000I225000J0D01*
G01*
X27725000Y-81145000D01*
G75*
G02*
X27950000Y-81370000I0J-225000D01*
G01*
G37*
G36*
G01*
X27950000Y-80720000D02*
X27950000Y-81170000D01*
G75*
G02*
X27725000Y-81395000I-225000J0D01*
G01*
X25875000Y-81395000D01*
G75*
G02*
X25650000Y-81170000I0J225000D01*
G01*
X25650000Y-80720000D01*
G75*
G02*
X25875000Y-80495000I225000J0D01*
G01*
X27725000Y-80495000D01*
G75*
G02*
X27950000Y-80720000I0J-225000D01*
G01*
G37*
G36*
G01*
X27950000Y-80070000D02*
X27950000Y-80520000D01*
G75*
G02*
X27725000Y-80745000I-225000J0D01*
G01*
X25875000Y-80745000D01*
G75*
G02*
X25650000Y-80520000I0J225000D01*
G01*
X25650000Y-80070000D01*
G75*
G02*
X25875000Y-79845000I225000J0D01*
G01*
X27725000Y-79845000D01*
G75*
G02*
X27950000Y-80070000I0J-225000D01*
G01*
G37*
G36*
G01*
X27950000Y-79420000D02*
X27950000Y-79870000D01*
G75*
G02*
X27725000Y-80095000I-225000J0D01*
G01*
X25875000Y-80095000D01*
G75*
G02*
X25650000Y-79870000I0J225000D01*
G01*
X25650000Y-79420000D01*
G75*
G02*
X25875000Y-79195000I225000J0D01*
G01*
X27725000Y-79195000D01*
G75*
G02*
X27950000Y-79420000I0J-225000D01*
G01*
G37*
G36*
G01*
X27950000Y-78770000D02*
X27950000Y-79220000D01*
G75*
G02*
X27725000Y-79445000I-225000J0D01*
G01*
X25875000Y-79445000D01*
G75*
G02*
X25650000Y-79220000I0J225000D01*
G01*
X25650000Y-78770000D01*
G75*
G02*
X25875000Y-78545000I225000J0D01*
G01*
X27725000Y-78545000D01*
G75*
G02*
X27950000Y-78770000I0J-225000D01*
G01*
G37*
G36*
G01*
X27950000Y-78120000D02*
X27950000Y-78570000D01*
G75*
G02*
X27725000Y-78795000I-225000J0D01*
G01*
X25875000Y-78795000D01*
G75*
G02*
X25650000Y-78570000I0J225000D01*
G01*
X25650000Y-78120000D01*
G75*
G02*
X25875000Y-77895000I225000J0D01*
G01*
X27725000Y-77895000D01*
G75*
G02*
X27950000Y-78120000I0J-225000D01*
G01*
G37*
G36*
G01*
X27950000Y-77470000D02*
X27950000Y-77920000D01*
G75*
G02*
X27725000Y-78145000I-225000J0D01*
G01*
X25875000Y-78145000D01*
G75*
G02*
X25650000Y-77920000I0J225000D01*
G01*
X25650000Y-77470000D01*
G75*
G02*
X25875000Y-77245000I225000J0D01*
G01*
X27725000Y-77245000D01*
G75*
G02*
X27950000Y-77470000I0J-225000D01*
G01*
G37*
G36*
G01*
X27950000Y-76820000D02*
X27950000Y-77270000D01*
G75*
G02*
X27725000Y-77495000I-225000J0D01*
G01*
X25875000Y-77495000D01*
G75*
G02*
X25650000Y-77270000I0J225000D01*
G01*
X25650000Y-76820000D01*
G75*
G02*
X25875000Y-76595000I225000J0D01*
G01*
X27725000Y-76595000D01*
G75*
G02*
X27950000Y-76820000I0J-225000D01*
G01*
G37*
G36*
G01*
X27950000Y-76170000D02*
X27950000Y-76620000D01*
G75*
G02*
X27725000Y-76845000I-225000J0D01*
G01*
X25875000Y-76845000D01*
G75*
G02*
X25650000Y-76620000I0J225000D01*
G01*
X25650000Y-76170000D01*
G75*
G02*
X25875000Y-75945000I225000J0D01*
G01*
X27725000Y-75945000D01*
G75*
G02*
X27950000Y-76170000I0J-225000D01*
G01*
G37*
G36*
G01*
X27950000Y-75520000D02*
X27950000Y-75970000D01*
G75*
G02*
X27725000Y-76195000I-225000J0D01*
G01*
X25875000Y-76195000D01*
G75*
G02*
X25650000Y-75970000I0J225000D01*
G01*
X25650000Y-75520000D01*
G75*
G02*
X25875000Y-75295000I225000J0D01*
G01*
X27725000Y-75295000D01*
G75*
G02*
X27950000Y-75520000I0J-225000D01*
G01*
G37*
G36*
G01*
X34950000Y-75520000D02*
X34950000Y-75970000D01*
G75*
G02*
X34725000Y-76195000I-225000J0D01*
G01*
X32875000Y-76195000D01*
G75*
G02*
X32650000Y-75970000I0J225000D01*
G01*
X32650000Y-75520000D01*
G75*
G02*
X32875000Y-75295000I225000J0D01*
G01*
X34725000Y-75295000D01*
G75*
G02*
X34950000Y-75520000I0J-225000D01*
G01*
G37*
G36*
G01*
X34950000Y-76170000D02*
X34950000Y-76620000D01*
G75*
G02*
X34725000Y-76845000I-225000J0D01*
G01*
X32875000Y-76845000D01*
G75*
G02*
X32650000Y-76620000I0J225000D01*
G01*
X32650000Y-76170000D01*
G75*
G02*
X32875000Y-75945000I225000J0D01*
G01*
X34725000Y-75945000D01*
G75*
G02*
X34950000Y-76170000I0J-225000D01*
G01*
G37*
G36*
G01*
X34950000Y-76820000D02*
X34950000Y-77270000D01*
G75*
G02*
X34725000Y-77495000I-225000J0D01*
G01*
X32875000Y-77495000D01*
G75*
G02*
X32650000Y-77270000I0J225000D01*
G01*
X32650000Y-76820000D01*
G75*
G02*
X32875000Y-76595000I225000J0D01*
G01*
X34725000Y-76595000D01*
G75*
G02*
X34950000Y-76820000I0J-225000D01*
G01*
G37*
G36*
G01*
X34950000Y-77470000D02*
X34950000Y-77920000D01*
G75*
G02*
X34725000Y-78145000I-225000J0D01*
G01*
X32875000Y-78145000D01*
G75*
G02*
X32650000Y-77920000I0J225000D01*
G01*
X32650000Y-77470000D01*
G75*
G02*
X32875000Y-77245000I225000J0D01*
G01*
X34725000Y-77245000D01*
G75*
G02*
X34950000Y-77470000I0J-225000D01*
G01*
G37*
G36*
G01*
X34950000Y-78120000D02*
X34950000Y-78570000D01*
G75*
G02*
X34725000Y-78795000I-225000J0D01*
G01*
X32875000Y-78795000D01*
G75*
G02*
X32650000Y-78570000I0J225000D01*
G01*
X32650000Y-78120000D01*
G75*
G02*
X32875000Y-77895000I225000J0D01*
G01*
X34725000Y-77895000D01*
G75*
G02*
X34950000Y-78120000I0J-225000D01*
G01*
G37*
G36*
G01*
X34950000Y-78770000D02*
X34950000Y-79220000D01*
G75*
G02*
X34725000Y-79445000I-225000J0D01*
G01*
X32875000Y-79445000D01*
G75*
G02*
X32650000Y-79220000I0J225000D01*
G01*
X32650000Y-78770000D01*
G75*
G02*
X32875000Y-78545000I225000J0D01*
G01*
X34725000Y-78545000D01*
G75*
G02*
X34950000Y-78770000I0J-225000D01*
G01*
G37*
G36*
G01*
X34950000Y-79420000D02*
X34950000Y-79870000D01*
G75*
G02*
X34725000Y-80095000I-225000J0D01*
G01*
X32875000Y-80095000D01*
G75*
G02*
X32650000Y-79870000I0J225000D01*
G01*
X32650000Y-79420000D01*
G75*
G02*
X32875000Y-79195000I225000J0D01*
G01*
X34725000Y-79195000D01*
G75*
G02*
X34950000Y-79420000I0J-225000D01*
G01*
G37*
G36*
G01*
X34950000Y-80070000D02*
X34950000Y-80520000D01*
G75*
G02*
X34725000Y-80745000I-225000J0D01*
G01*
X32875000Y-80745000D01*
G75*
G02*
X32650000Y-80520000I0J225000D01*
G01*
X32650000Y-80070000D01*
G75*
G02*
X32875000Y-79845000I225000J0D01*
G01*
X34725000Y-79845000D01*
G75*
G02*
X34950000Y-80070000I0J-225000D01*
G01*
G37*
G36*
G01*
X34950000Y-80720000D02*
X34950000Y-81170000D01*
G75*
G02*
X34725000Y-81395000I-225000J0D01*
G01*
X32875000Y-81395000D01*
G75*
G02*
X32650000Y-81170000I0J225000D01*
G01*
X32650000Y-80720000D01*
G75*
G02*
X32875000Y-80495000I225000J0D01*
G01*
X34725000Y-80495000D01*
G75*
G02*
X34950000Y-80720000I0J-225000D01*
G01*
G37*
G36*
G01*
X34950000Y-81370000D02*
X34950000Y-81820000D01*
G75*
G02*
X34725000Y-82045000I-225000J0D01*
G01*
X32875000Y-82045000D01*
G75*
G02*
X32650000Y-81820000I0J225000D01*
G01*
X32650000Y-81370000D01*
G75*
G02*
X32875000Y-81145000I225000J0D01*
G01*
X34725000Y-81145000D01*
G75*
G02*
X34950000Y-81370000I0J-225000D01*
G01*
G37*
X39160000Y-73800000D03*
X24160000Y-73800000D03*
G36*
G01*
X37110000Y-70946666D02*
X37110000Y-72733334D01*
G75*
G02*
X36793334Y-73050000I-316666J0D01*
G01*
X35526666Y-73050000D01*
G75*
G02*
X35210000Y-72733334I0J316666D01*
G01*
X35210000Y-70946666D01*
G75*
G02*
X35526666Y-70630000I316666J0D01*
G01*
X36793334Y-70630000D01*
G75*
G02*
X37110000Y-70946666I0J-316666D01*
G01*
G37*
D14*
X33160000Y-71840000D03*
X30160000Y-71840000D03*
X27160000Y-71840000D03*
G36*
G01*
X37545000Y-79450000D02*
X36395000Y-79450000D01*
G75*
G02*
X36045000Y-79100000I0J350000D01*
G01*
X36045000Y-78400000D01*
G75*
G02*
X36395000Y-78050000I350000J0D01*
G01*
X37545000Y-78050000D01*
G75*
G02*
X37895000Y-78400000I0J-350000D01*
G01*
X37895000Y-79100000D01*
G75*
G02*
X37545000Y-79450000I-350000J0D01*
G01*
G37*
G36*
G01*
X37545000Y-81350000D02*
X36395000Y-81350000D01*
G75*
G02*
X36045000Y-81000000I0J350000D01*
G01*
X36045000Y-80300000D01*
G75*
G02*
X36395000Y-79950000I350000J0D01*
G01*
X37545000Y-79950000D01*
G75*
G02*
X37895000Y-80300000I0J-350000D01*
G01*
X37895000Y-81000000D01*
G75*
G02*
X37545000Y-81350000I-350000J0D01*
G01*
G37*
G36*
G01*
X84790000Y-62980000D02*
X84790000Y-63430000D01*
G75*
G02*
X84565000Y-63655000I-225000J0D01*
G01*
X82715000Y-63655000D01*
G75*
G02*
X82490000Y-63430000I0J225000D01*
G01*
X82490000Y-62980000D01*
G75*
G02*
X82715000Y-62755000I225000J0D01*
G01*
X84565000Y-62755000D01*
G75*
G02*
X84790000Y-62980000I0J-225000D01*
G01*
G37*
G36*
G01*
X84790000Y-62330000D02*
X84790000Y-62780000D01*
G75*
G02*
X84565000Y-63005000I-225000J0D01*
G01*
X82715000Y-63005000D01*
G75*
G02*
X82490000Y-62780000I0J225000D01*
G01*
X82490000Y-62330000D01*
G75*
G02*
X82715000Y-62105000I225000J0D01*
G01*
X84565000Y-62105000D01*
G75*
G02*
X84790000Y-62330000I0J-225000D01*
G01*
G37*
G36*
G01*
X84790000Y-61680000D02*
X84790000Y-62130000D01*
G75*
G02*
X84565000Y-62355000I-225000J0D01*
G01*
X82715000Y-62355000D01*
G75*
G02*
X82490000Y-62130000I0J225000D01*
G01*
X82490000Y-61680000D01*
G75*
G02*
X82715000Y-61455000I225000J0D01*
G01*
X84565000Y-61455000D01*
G75*
G02*
X84790000Y-61680000I0J-225000D01*
G01*
G37*
G36*
G01*
X84790000Y-61030000D02*
X84790000Y-61480000D01*
G75*
G02*
X84565000Y-61705000I-225000J0D01*
G01*
X82715000Y-61705000D01*
G75*
G02*
X82490000Y-61480000I0J225000D01*
G01*
X82490000Y-61030000D01*
G75*
G02*
X82715000Y-60805000I225000J0D01*
G01*
X84565000Y-60805000D01*
G75*
G02*
X84790000Y-61030000I0J-225000D01*
G01*
G37*
G36*
G01*
X84790000Y-60380000D02*
X84790000Y-60830000D01*
G75*
G02*
X84565000Y-61055000I-225000J0D01*
G01*
X82715000Y-61055000D01*
G75*
G02*
X82490000Y-60830000I0J225000D01*
G01*
X82490000Y-60380000D01*
G75*
G02*
X82715000Y-60155000I225000J0D01*
G01*
X84565000Y-60155000D01*
G75*
G02*
X84790000Y-60380000I0J-225000D01*
G01*
G37*
G36*
G01*
X84790000Y-59730000D02*
X84790000Y-60180000D01*
G75*
G02*
X84565000Y-60405000I-225000J0D01*
G01*
X82715000Y-60405000D01*
G75*
G02*
X82490000Y-60180000I0J225000D01*
G01*
X82490000Y-59730000D01*
G75*
G02*
X82715000Y-59505000I225000J0D01*
G01*
X84565000Y-59505000D01*
G75*
G02*
X84790000Y-59730000I0J-225000D01*
G01*
G37*
G36*
G01*
X84790000Y-59080000D02*
X84790000Y-59530000D01*
G75*
G02*
X84565000Y-59755000I-225000J0D01*
G01*
X82715000Y-59755000D01*
G75*
G02*
X82490000Y-59530000I0J225000D01*
G01*
X82490000Y-59080000D01*
G75*
G02*
X82715000Y-58855000I225000J0D01*
G01*
X84565000Y-58855000D01*
G75*
G02*
X84790000Y-59080000I0J-225000D01*
G01*
G37*
G36*
G01*
X84790000Y-58430000D02*
X84790000Y-58880000D01*
G75*
G02*
X84565000Y-59105000I-225000J0D01*
G01*
X82715000Y-59105000D01*
G75*
G02*
X82490000Y-58880000I0J225000D01*
G01*
X82490000Y-58430000D01*
G75*
G02*
X82715000Y-58205000I225000J0D01*
G01*
X84565000Y-58205000D01*
G75*
G02*
X84790000Y-58430000I0J-225000D01*
G01*
G37*
G36*
G01*
X84790000Y-57780000D02*
X84790000Y-58230000D01*
G75*
G02*
X84565000Y-58455000I-225000J0D01*
G01*
X82715000Y-58455000D01*
G75*
G02*
X82490000Y-58230000I0J225000D01*
G01*
X82490000Y-57780000D01*
G75*
G02*
X82715000Y-57555000I225000J0D01*
G01*
X84565000Y-57555000D01*
G75*
G02*
X84790000Y-57780000I0J-225000D01*
G01*
G37*
G36*
G01*
X84790000Y-57130000D02*
X84790000Y-57580000D01*
G75*
G02*
X84565000Y-57805000I-225000J0D01*
G01*
X82715000Y-57805000D01*
G75*
G02*
X82490000Y-57580000I0J225000D01*
G01*
X82490000Y-57130000D01*
G75*
G02*
X82715000Y-56905000I225000J0D01*
G01*
X84565000Y-56905000D01*
G75*
G02*
X84790000Y-57130000I0J-225000D01*
G01*
G37*
G36*
G01*
X91790000Y-57130000D02*
X91790000Y-57580000D01*
G75*
G02*
X91565000Y-57805000I-225000J0D01*
G01*
X89715000Y-57805000D01*
G75*
G02*
X89490000Y-57580000I0J225000D01*
G01*
X89490000Y-57130000D01*
G75*
G02*
X89715000Y-56905000I225000J0D01*
G01*
X91565000Y-56905000D01*
G75*
G02*
X91790000Y-57130000I0J-225000D01*
G01*
G37*
G36*
G01*
X91790000Y-57780000D02*
X91790000Y-58230000D01*
G75*
G02*
X91565000Y-58455000I-225000J0D01*
G01*
X89715000Y-58455000D01*
G75*
G02*
X89490000Y-58230000I0J225000D01*
G01*
X89490000Y-57780000D01*
G75*
G02*
X89715000Y-57555000I225000J0D01*
G01*
X91565000Y-57555000D01*
G75*
G02*
X91790000Y-57780000I0J-225000D01*
G01*
G37*
G36*
G01*
X91790000Y-58430000D02*
X91790000Y-58880000D01*
G75*
G02*
X91565000Y-59105000I-225000J0D01*
G01*
X89715000Y-59105000D01*
G75*
G02*
X89490000Y-58880000I0J225000D01*
G01*
X89490000Y-58430000D01*
G75*
G02*
X89715000Y-58205000I225000J0D01*
G01*
X91565000Y-58205000D01*
G75*
G02*
X91790000Y-58430000I0J-225000D01*
G01*
G37*
G36*
G01*
X91790000Y-59080000D02*
X91790000Y-59530000D01*
G75*
G02*
X91565000Y-59755000I-225000J0D01*
G01*
X89715000Y-59755000D01*
G75*
G02*
X89490000Y-59530000I0J225000D01*
G01*
X89490000Y-59080000D01*
G75*
G02*
X89715000Y-58855000I225000J0D01*
G01*
X91565000Y-58855000D01*
G75*
G02*
X91790000Y-59080000I0J-225000D01*
G01*
G37*
G36*
G01*
X91790000Y-59730000D02*
X91790000Y-60180000D01*
G75*
G02*
X91565000Y-60405000I-225000J0D01*
G01*
X89715000Y-60405000D01*
G75*
G02*
X89490000Y-60180000I0J225000D01*
G01*
X89490000Y-59730000D01*
G75*
G02*
X89715000Y-59505000I225000J0D01*
G01*
X91565000Y-59505000D01*
G75*
G02*
X91790000Y-59730000I0J-225000D01*
G01*
G37*
G36*
G01*
X91790000Y-60380000D02*
X91790000Y-60830000D01*
G75*
G02*
X91565000Y-61055000I-225000J0D01*
G01*
X89715000Y-61055000D01*
G75*
G02*
X89490000Y-60830000I0J225000D01*
G01*
X89490000Y-60380000D01*
G75*
G02*
X89715000Y-60155000I225000J0D01*
G01*
X91565000Y-60155000D01*
G75*
G02*
X91790000Y-60380000I0J-225000D01*
G01*
G37*
G36*
G01*
X91790000Y-61030000D02*
X91790000Y-61480000D01*
G75*
G02*
X91565000Y-61705000I-225000J0D01*
G01*
X89715000Y-61705000D01*
G75*
G02*
X89490000Y-61480000I0J225000D01*
G01*
X89490000Y-61030000D01*
G75*
G02*
X89715000Y-60805000I225000J0D01*
G01*
X91565000Y-60805000D01*
G75*
G02*
X91790000Y-61030000I0J-225000D01*
G01*
G37*
G36*
G01*
X91790000Y-61680000D02*
X91790000Y-62130000D01*
G75*
G02*
X91565000Y-62355000I-225000J0D01*
G01*
X89715000Y-62355000D01*
G75*
G02*
X89490000Y-62130000I0J225000D01*
G01*
X89490000Y-61680000D01*
G75*
G02*
X89715000Y-61455000I225000J0D01*
G01*
X91565000Y-61455000D01*
G75*
G02*
X91790000Y-61680000I0J-225000D01*
G01*
G37*
G36*
G01*
X91790000Y-62330000D02*
X91790000Y-62780000D01*
G75*
G02*
X91565000Y-63005000I-225000J0D01*
G01*
X89715000Y-63005000D01*
G75*
G02*
X89490000Y-62780000I0J225000D01*
G01*
X89490000Y-62330000D01*
G75*
G02*
X89715000Y-62105000I225000J0D01*
G01*
X91565000Y-62105000D01*
G75*
G02*
X91790000Y-62330000I0J-225000D01*
G01*
G37*
G36*
G01*
X91790000Y-62980000D02*
X91790000Y-63430000D01*
G75*
G02*
X91565000Y-63655000I-225000J0D01*
G01*
X89715000Y-63655000D01*
G75*
G02*
X89490000Y-63430000I0J225000D01*
G01*
X89490000Y-62980000D01*
G75*
G02*
X89715000Y-62755000I225000J0D01*
G01*
X91565000Y-62755000D01*
G75*
G02*
X91790000Y-62980000I0J-225000D01*
G01*
G37*
D12*
X96000000Y-55390000D03*
X81000000Y-55390000D03*
G36*
G01*
X93950000Y-52536666D02*
X93950000Y-54323334D01*
G75*
G02*
X93633334Y-54640000I-316666J0D01*
G01*
X92366666Y-54640000D01*
G75*
G02*
X92050000Y-54323334I0J316666D01*
G01*
X92050000Y-52536666D01*
G75*
G02*
X92366666Y-52220000I316666J0D01*
G01*
X93633334Y-52220000D01*
G75*
G02*
X93950000Y-52536666I0J-316666D01*
G01*
G37*
D14*
X90000000Y-53430000D03*
X87000000Y-53430000D03*
X84000000Y-53430000D03*
G36*
G01*
X94385000Y-61060000D02*
X93235000Y-61060000D01*
G75*
G02*
X92885000Y-60710000I0J350000D01*
G01*
X92885000Y-60010000D01*
G75*
G02*
X93235000Y-59660000I350000J0D01*
G01*
X94385000Y-59660000D01*
G75*
G02*
X94735000Y-60010000I0J-350000D01*
G01*
X94735000Y-60710000D01*
G75*
G02*
X94385000Y-61060000I-350000J0D01*
G01*
G37*
G36*
G01*
X94385000Y-62960000D02*
X93235000Y-62960000D01*
G75*
G02*
X92885000Y-62610000I0J350000D01*
G01*
X92885000Y-61910000D01*
G75*
G02*
X93235000Y-61560000I350000J0D01*
G01*
X94385000Y-61560000D01*
G75*
G02*
X94735000Y-61910000I0J-350000D01*
G01*
X94735000Y-62610000D01*
G75*
G02*
X94385000Y-62960000I-350000J0D01*
G01*
G37*
G36*
G01*
X28060000Y-63170000D02*
X28060000Y-63620000D01*
G75*
G02*
X27835000Y-63845000I-225000J0D01*
G01*
X25985000Y-63845000D01*
G75*
G02*
X25760000Y-63620000I0J225000D01*
G01*
X25760000Y-63170000D01*
G75*
G02*
X25985000Y-62945000I225000J0D01*
G01*
X27835000Y-62945000D01*
G75*
G02*
X28060000Y-63170000I0J-225000D01*
G01*
G37*
G36*
G01*
X28060000Y-62520000D02*
X28060000Y-62970000D01*
G75*
G02*
X27835000Y-63195000I-225000J0D01*
G01*
X25985000Y-63195000D01*
G75*
G02*
X25760000Y-62970000I0J225000D01*
G01*
X25760000Y-62520000D01*
G75*
G02*
X25985000Y-62295000I225000J0D01*
G01*
X27835000Y-62295000D01*
G75*
G02*
X28060000Y-62520000I0J-225000D01*
G01*
G37*
G36*
G01*
X28060000Y-61870000D02*
X28060000Y-62320000D01*
G75*
G02*
X27835000Y-62545000I-225000J0D01*
G01*
X25985000Y-62545000D01*
G75*
G02*
X25760000Y-62320000I0J225000D01*
G01*
X25760000Y-61870000D01*
G75*
G02*
X25985000Y-61645000I225000J0D01*
G01*
X27835000Y-61645000D01*
G75*
G02*
X28060000Y-61870000I0J-225000D01*
G01*
G37*
G36*
G01*
X28060000Y-61220000D02*
X28060000Y-61670000D01*
G75*
G02*
X27835000Y-61895000I-225000J0D01*
G01*
X25985000Y-61895000D01*
G75*
G02*
X25760000Y-61670000I0J225000D01*
G01*
X25760000Y-61220000D01*
G75*
G02*
X25985000Y-60995000I225000J0D01*
G01*
X27835000Y-60995000D01*
G75*
G02*
X28060000Y-61220000I0J-225000D01*
G01*
G37*
G36*
G01*
X28060000Y-60570000D02*
X28060000Y-61020000D01*
G75*
G02*
X27835000Y-61245000I-225000J0D01*
G01*
X25985000Y-61245000D01*
G75*
G02*
X25760000Y-61020000I0J225000D01*
G01*
X25760000Y-60570000D01*
G75*
G02*
X25985000Y-60345000I225000J0D01*
G01*
X27835000Y-60345000D01*
G75*
G02*
X28060000Y-60570000I0J-225000D01*
G01*
G37*
G36*
G01*
X28060000Y-59920000D02*
X28060000Y-60370000D01*
G75*
G02*
X27835000Y-60595000I-225000J0D01*
G01*
X25985000Y-60595000D01*
G75*
G02*
X25760000Y-60370000I0J225000D01*
G01*
X25760000Y-59920000D01*
G75*
G02*
X25985000Y-59695000I225000J0D01*
G01*
X27835000Y-59695000D01*
G75*
G02*
X28060000Y-59920000I0J-225000D01*
G01*
G37*
G36*
G01*
X28060000Y-59270000D02*
X28060000Y-59720000D01*
G75*
G02*
X27835000Y-59945000I-225000J0D01*
G01*
X25985000Y-59945000D01*
G75*
G02*
X25760000Y-59720000I0J225000D01*
G01*
X25760000Y-59270000D01*
G75*
G02*
X25985000Y-59045000I225000J0D01*
G01*
X27835000Y-59045000D01*
G75*
G02*
X28060000Y-59270000I0J-225000D01*
G01*
G37*
G36*
G01*
X28060000Y-58620000D02*
X28060000Y-59070000D01*
G75*
G02*
X27835000Y-59295000I-225000J0D01*
G01*
X25985000Y-59295000D01*
G75*
G02*
X25760000Y-59070000I0J225000D01*
G01*
X25760000Y-58620000D01*
G75*
G02*
X25985000Y-58395000I225000J0D01*
G01*
X27835000Y-58395000D01*
G75*
G02*
X28060000Y-58620000I0J-225000D01*
G01*
G37*
G36*
G01*
X28060000Y-57970000D02*
X28060000Y-58420000D01*
G75*
G02*
X27835000Y-58645000I-225000J0D01*
G01*
X25985000Y-58645000D01*
G75*
G02*
X25760000Y-58420000I0J225000D01*
G01*
X25760000Y-57970000D01*
G75*
G02*
X25985000Y-57745000I225000J0D01*
G01*
X27835000Y-57745000D01*
G75*
G02*
X28060000Y-57970000I0J-225000D01*
G01*
G37*
G36*
G01*
X28060000Y-57320000D02*
X28060000Y-57770000D01*
G75*
G02*
X27835000Y-57995000I-225000J0D01*
G01*
X25985000Y-57995000D01*
G75*
G02*
X25760000Y-57770000I0J225000D01*
G01*
X25760000Y-57320000D01*
G75*
G02*
X25985000Y-57095000I225000J0D01*
G01*
X27835000Y-57095000D01*
G75*
G02*
X28060000Y-57320000I0J-225000D01*
G01*
G37*
G36*
G01*
X35060000Y-57320000D02*
X35060000Y-57770000D01*
G75*
G02*
X34835000Y-57995000I-225000J0D01*
G01*
X32985000Y-57995000D01*
G75*
G02*
X32760000Y-57770000I0J225000D01*
G01*
X32760000Y-57320000D01*
G75*
G02*
X32985000Y-57095000I225000J0D01*
G01*
X34835000Y-57095000D01*
G75*
G02*
X35060000Y-57320000I0J-225000D01*
G01*
G37*
G36*
G01*
X35060000Y-57970000D02*
X35060000Y-58420000D01*
G75*
G02*
X34835000Y-58645000I-225000J0D01*
G01*
X32985000Y-58645000D01*
G75*
G02*
X32760000Y-58420000I0J225000D01*
G01*
X32760000Y-57970000D01*
G75*
G02*
X32985000Y-57745000I225000J0D01*
G01*
X34835000Y-57745000D01*
G75*
G02*
X35060000Y-57970000I0J-225000D01*
G01*
G37*
G36*
G01*
X35060000Y-58620000D02*
X35060000Y-59070000D01*
G75*
G02*
X34835000Y-59295000I-225000J0D01*
G01*
X32985000Y-59295000D01*
G75*
G02*
X32760000Y-59070000I0J225000D01*
G01*
X32760000Y-58620000D01*
G75*
G02*
X32985000Y-58395000I225000J0D01*
G01*
X34835000Y-58395000D01*
G75*
G02*
X35060000Y-58620000I0J-225000D01*
G01*
G37*
G36*
G01*
X35060000Y-59270000D02*
X35060000Y-59720000D01*
G75*
G02*
X34835000Y-59945000I-225000J0D01*
G01*
X32985000Y-59945000D01*
G75*
G02*
X32760000Y-59720000I0J225000D01*
G01*
X32760000Y-59270000D01*
G75*
G02*
X32985000Y-59045000I225000J0D01*
G01*
X34835000Y-59045000D01*
G75*
G02*
X35060000Y-59270000I0J-225000D01*
G01*
G37*
G36*
G01*
X35060000Y-59920000D02*
X35060000Y-60370000D01*
G75*
G02*
X34835000Y-60595000I-225000J0D01*
G01*
X32985000Y-60595000D01*
G75*
G02*
X32760000Y-60370000I0J225000D01*
G01*
X32760000Y-59920000D01*
G75*
G02*
X32985000Y-59695000I225000J0D01*
G01*
X34835000Y-59695000D01*
G75*
G02*
X35060000Y-59920000I0J-225000D01*
G01*
G37*
G36*
G01*
X35060000Y-60570000D02*
X35060000Y-61020000D01*
G75*
G02*
X34835000Y-61245000I-225000J0D01*
G01*
X32985000Y-61245000D01*
G75*
G02*
X32760000Y-61020000I0J225000D01*
G01*
X32760000Y-60570000D01*
G75*
G02*
X32985000Y-60345000I225000J0D01*
G01*
X34835000Y-60345000D01*
G75*
G02*
X35060000Y-60570000I0J-225000D01*
G01*
G37*
G36*
G01*
X35060000Y-61220000D02*
X35060000Y-61670000D01*
G75*
G02*
X34835000Y-61895000I-225000J0D01*
G01*
X32985000Y-61895000D01*
G75*
G02*
X32760000Y-61670000I0J225000D01*
G01*
X32760000Y-61220000D01*
G75*
G02*
X32985000Y-60995000I225000J0D01*
G01*
X34835000Y-60995000D01*
G75*
G02*
X35060000Y-61220000I0J-225000D01*
G01*
G37*
G36*
G01*
X35060000Y-61870000D02*
X35060000Y-62320000D01*
G75*
G02*
X34835000Y-62545000I-225000J0D01*
G01*
X32985000Y-62545000D01*
G75*
G02*
X32760000Y-62320000I0J225000D01*
G01*
X32760000Y-61870000D01*
G75*
G02*
X32985000Y-61645000I225000J0D01*
G01*
X34835000Y-61645000D01*
G75*
G02*
X35060000Y-61870000I0J-225000D01*
G01*
G37*
G36*
G01*
X35060000Y-62520000D02*
X35060000Y-62970000D01*
G75*
G02*
X34835000Y-63195000I-225000J0D01*
G01*
X32985000Y-63195000D01*
G75*
G02*
X32760000Y-62970000I0J225000D01*
G01*
X32760000Y-62520000D01*
G75*
G02*
X32985000Y-62295000I225000J0D01*
G01*
X34835000Y-62295000D01*
G75*
G02*
X35060000Y-62520000I0J-225000D01*
G01*
G37*
G36*
G01*
X35060000Y-63170000D02*
X35060000Y-63620000D01*
G75*
G02*
X34835000Y-63845000I-225000J0D01*
G01*
X32985000Y-63845000D01*
G75*
G02*
X32760000Y-63620000I0J225000D01*
G01*
X32760000Y-63170000D01*
G75*
G02*
X32985000Y-62945000I225000J0D01*
G01*
X34835000Y-62945000D01*
G75*
G02*
X35060000Y-63170000I0J-225000D01*
G01*
G37*
D12*
X39270000Y-55600000D03*
X24270000Y-55600000D03*
G36*
G01*
X37220000Y-52746666D02*
X37220000Y-54533334D01*
G75*
G02*
X36903334Y-54850000I-316666J0D01*
G01*
X35636666Y-54850000D01*
G75*
G02*
X35320000Y-54533334I0J316666D01*
G01*
X35320000Y-52746666D01*
G75*
G02*
X35636666Y-52430000I316666J0D01*
G01*
X36903334Y-52430000D01*
G75*
G02*
X37220000Y-52746666I0J-316666D01*
G01*
G37*
D14*
X33270000Y-53640000D03*
X30270000Y-53640000D03*
X27270000Y-53640000D03*
G36*
G01*
X37645000Y-61260000D02*
X36495000Y-61260000D01*
G75*
G02*
X36145000Y-60910000I0J350000D01*
G01*
X36145000Y-60210000D01*
G75*
G02*
X36495000Y-59860000I350000J0D01*
G01*
X37645000Y-59860000D01*
G75*
G02*
X37995000Y-60210000I0J-350000D01*
G01*
X37995000Y-60910000D01*
G75*
G02*
X37645000Y-61260000I-350000J0D01*
G01*
G37*
G36*
G01*
X37645000Y-63160000D02*
X36495000Y-63160000D01*
G75*
G02*
X36145000Y-62810000I0J350000D01*
G01*
X36145000Y-62110000D01*
G75*
G02*
X36495000Y-61760000I350000J0D01*
G01*
X37645000Y-61760000D01*
G75*
G02*
X37995000Y-62110000I0J-350000D01*
G01*
X37995000Y-62810000D01*
G75*
G02*
X37645000Y-63160000I-350000J0D01*
G01*
G37*
G36*
G01*
X91680000Y-45060000D02*
X91680000Y-45510000D01*
G75*
G02*
X91455000Y-45735000I-225000J0D01*
G01*
X89605000Y-45735000D01*
G75*
G02*
X89380000Y-45510000I0J225000D01*
G01*
X89380000Y-45060000D01*
G75*
G02*
X89605000Y-44835000I225000J0D01*
G01*
X91455000Y-44835000D01*
G75*
G02*
X91680000Y-45060000I0J-225000D01*
G01*
G37*
G36*
G01*
X91680000Y-44410000D02*
X91680000Y-44860000D01*
G75*
G02*
X91455000Y-45085000I-225000J0D01*
G01*
X89605000Y-45085000D01*
G75*
G02*
X89380000Y-44860000I0J225000D01*
G01*
X89380000Y-44410000D01*
G75*
G02*
X89605000Y-44185000I225000J0D01*
G01*
X91455000Y-44185000D01*
G75*
G02*
X91680000Y-44410000I0J-225000D01*
G01*
G37*
G36*
G01*
X91680000Y-43760000D02*
X91680000Y-44210000D01*
G75*
G02*
X91455000Y-44435000I-225000J0D01*
G01*
X89605000Y-44435000D01*
G75*
G02*
X89380000Y-44210000I0J225000D01*
G01*
X89380000Y-43760000D01*
G75*
G02*
X89605000Y-43535000I225000J0D01*
G01*
X91455000Y-43535000D01*
G75*
G02*
X91680000Y-43760000I0J-225000D01*
G01*
G37*
G36*
G01*
X91680000Y-43110000D02*
X91680000Y-43560000D01*
G75*
G02*
X91455000Y-43785000I-225000J0D01*
G01*
X89605000Y-43785000D01*
G75*
G02*
X89380000Y-43560000I0J225000D01*
G01*
X89380000Y-43110000D01*
G75*
G02*
X89605000Y-42885000I225000J0D01*
G01*
X91455000Y-42885000D01*
G75*
G02*
X91680000Y-43110000I0J-225000D01*
G01*
G37*
G36*
G01*
X91680000Y-42460000D02*
X91680000Y-42910000D01*
G75*
G02*
X91455000Y-43135000I-225000J0D01*
G01*
X89605000Y-43135000D01*
G75*
G02*
X89380000Y-42910000I0J225000D01*
G01*
X89380000Y-42460000D01*
G75*
G02*
X89605000Y-42235000I225000J0D01*
G01*
X91455000Y-42235000D01*
G75*
G02*
X91680000Y-42460000I0J-225000D01*
G01*
G37*
G36*
G01*
X91680000Y-41810000D02*
X91680000Y-42260000D01*
G75*
G02*
X91455000Y-42485000I-225000J0D01*
G01*
X89605000Y-42485000D01*
G75*
G02*
X89380000Y-42260000I0J225000D01*
G01*
X89380000Y-41810000D01*
G75*
G02*
X89605000Y-41585000I225000J0D01*
G01*
X91455000Y-41585000D01*
G75*
G02*
X91680000Y-41810000I0J-225000D01*
G01*
G37*
G36*
G01*
X91680000Y-41160000D02*
X91680000Y-41610000D01*
G75*
G02*
X91455000Y-41835000I-225000J0D01*
G01*
X89605000Y-41835000D01*
G75*
G02*
X89380000Y-41610000I0J225000D01*
G01*
X89380000Y-41160000D01*
G75*
G02*
X89605000Y-40935000I225000J0D01*
G01*
X91455000Y-40935000D01*
G75*
G02*
X91680000Y-41160000I0J-225000D01*
G01*
G37*
G36*
G01*
X91680000Y-40510000D02*
X91680000Y-40960000D01*
G75*
G02*
X91455000Y-41185000I-225000J0D01*
G01*
X89605000Y-41185000D01*
G75*
G02*
X89380000Y-40960000I0J225000D01*
G01*
X89380000Y-40510000D01*
G75*
G02*
X89605000Y-40285000I225000J0D01*
G01*
X91455000Y-40285000D01*
G75*
G02*
X91680000Y-40510000I0J-225000D01*
G01*
G37*
G36*
G01*
X91680000Y-39860000D02*
X91680000Y-40310000D01*
G75*
G02*
X91455000Y-40535000I-225000J0D01*
G01*
X89605000Y-40535000D01*
G75*
G02*
X89380000Y-40310000I0J225000D01*
G01*
X89380000Y-39860000D01*
G75*
G02*
X89605000Y-39635000I225000J0D01*
G01*
X91455000Y-39635000D01*
G75*
G02*
X91680000Y-39860000I0J-225000D01*
G01*
G37*
G36*
G01*
X91680000Y-39210000D02*
X91680000Y-39660000D01*
G75*
G02*
X91455000Y-39885000I-225000J0D01*
G01*
X89605000Y-39885000D01*
G75*
G02*
X89380000Y-39660000I0J225000D01*
G01*
X89380000Y-39210000D01*
G75*
G02*
X89605000Y-38985000I225000J0D01*
G01*
X91455000Y-38985000D01*
G75*
G02*
X91680000Y-39210000I0J-225000D01*
G01*
G37*
G36*
G01*
X84680000Y-39210000D02*
X84680000Y-39660000D01*
G75*
G02*
X84455000Y-39885000I-225000J0D01*
G01*
X82605000Y-39885000D01*
G75*
G02*
X82380000Y-39660000I0J225000D01*
G01*
X82380000Y-39210000D01*
G75*
G02*
X82605000Y-38985000I225000J0D01*
G01*
X84455000Y-38985000D01*
G75*
G02*
X84680000Y-39210000I0J-225000D01*
G01*
G37*
G36*
G01*
X84680000Y-39860000D02*
X84680000Y-40310000D01*
G75*
G02*
X84455000Y-40535000I-225000J0D01*
G01*
X82605000Y-40535000D01*
G75*
G02*
X82380000Y-40310000I0J225000D01*
G01*
X82380000Y-39860000D01*
G75*
G02*
X82605000Y-39635000I225000J0D01*
G01*
X84455000Y-39635000D01*
G75*
G02*
X84680000Y-39860000I0J-225000D01*
G01*
G37*
G36*
G01*
X84680000Y-40510000D02*
X84680000Y-40960000D01*
G75*
G02*
X84455000Y-41185000I-225000J0D01*
G01*
X82605000Y-41185000D01*
G75*
G02*
X82380000Y-40960000I0J225000D01*
G01*
X82380000Y-40510000D01*
G75*
G02*
X82605000Y-40285000I225000J0D01*
G01*
X84455000Y-40285000D01*
G75*
G02*
X84680000Y-40510000I0J-225000D01*
G01*
G37*
G36*
G01*
X84680000Y-41160000D02*
X84680000Y-41610000D01*
G75*
G02*
X84455000Y-41835000I-225000J0D01*
G01*
X82605000Y-41835000D01*
G75*
G02*
X82380000Y-41610000I0J225000D01*
G01*
X82380000Y-41160000D01*
G75*
G02*
X82605000Y-40935000I225000J0D01*
G01*
X84455000Y-40935000D01*
G75*
G02*
X84680000Y-41160000I0J-225000D01*
G01*
G37*
G36*
G01*
X84680000Y-41810000D02*
X84680000Y-42260000D01*
G75*
G02*
X84455000Y-42485000I-225000J0D01*
G01*
X82605000Y-42485000D01*
G75*
G02*
X82380000Y-42260000I0J225000D01*
G01*
X82380000Y-41810000D01*
G75*
G02*
X82605000Y-41585000I225000J0D01*
G01*
X84455000Y-41585000D01*
G75*
G02*
X84680000Y-41810000I0J-225000D01*
G01*
G37*
G36*
G01*
X84680000Y-42460000D02*
X84680000Y-42910000D01*
G75*
G02*
X84455000Y-43135000I-225000J0D01*
G01*
X82605000Y-43135000D01*
G75*
G02*
X82380000Y-42910000I0J225000D01*
G01*
X82380000Y-42460000D01*
G75*
G02*
X82605000Y-42235000I225000J0D01*
G01*
X84455000Y-42235000D01*
G75*
G02*
X84680000Y-42460000I0J-225000D01*
G01*
G37*
G36*
G01*
X84680000Y-43110000D02*
X84680000Y-43560000D01*
G75*
G02*
X84455000Y-43785000I-225000J0D01*
G01*
X82605000Y-43785000D01*
G75*
G02*
X82380000Y-43560000I0J225000D01*
G01*
X82380000Y-43110000D01*
G75*
G02*
X82605000Y-42885000I225000J0D01*
G01*
X84455000Y-42885000D01*
G75*
G02*
X84680000Y-43110000I0J-225000D01*
G01*
G37*
G36*
G01*
X84680000Y-43760000D02*
X84680000Y-44210000D01*
G75*
G02*
X84455000Y-44435000I-225000J0D01*
G01*
X82605000Y-44435000D01*
G75*
G02*
X82380000Y-44210000I0J225000D01*
G01*
X82380000Y-43760000D01*
G75*
G02*
X82605000Y-43535000I225000J0D01*
G01*
X84455000Y-43535000D01*
G75*
G02*
X84680000Y-43760000I0J-225000D01*
G01*
G37*
G36*
G01*
X84680000Y-44410000D02*
X84680000Y-44860000D01*
G75*
G02*
X84455000Y-45085000I-225000J0D01*
G01*
X82605000Y-45085000D01*
G75*
G02*
X82380000Y-44860000I0J225000D01*
G01*
X82380000Y-44410000D01*
G75*
G02*
X82605000Y-44185000I225000J0D01*
G01*
X84455000Y-44185000D01*
G75*
G02*
X84680000Y-44410000I0J-225000D01*
G01*
G37*
G36*
G01*
X84680000Y-45060000D02*
X84680000Y-45510000D01*
G75*
G02*
X84455000Y-45735000I-225000J0D01*
G01*
X82605000Y-45735000D01*
G75*
G02*
X82380000Y-45510000I0J225000D01*
G01*
X82380000Y-45060000D01*
G75*
G02*
X82605000Y-44835000I225000J0D01*
G01*
X84455000Y-44835000D01*
G75*
G02*
X84680000Y-45060000I0J-225000D01*
G01*
G37*
X83890000Y-35530000D03*
X86890000Y-35530000D03*
X89890000Y-35530000D03*
G36*
G01*
X93840000Y-34636666D02*
X93840000Y-36423334D01*
G75*
G02*
X93523334Y-36740000I-316666J0D01*
G01*
X92256666Y-36740000D01*
G75*
G02*
X91940000Y-36423334I0J316666D01*
G01*
X91940000Y-34636666D01*
G75*
G02*
X92256666Y-34320000I316666J0D01*
G01*
X93523334Y-34320000D01*
G75*
G02*
X93840000Y-34636666I0J-316666D01*
G01*
G37*
D12*
X80890000Y-37490000D03*
X95890000Y-37490000D03*
G36*
G01*
X94285000Y-45050000D02*
X93135000Y-45050000D01*
G75*
G02*
X92785000Y-44700000I0J350000D01*
G01*
X92785000Y-44000000D01*
G75*
G02*
X93135000Y-43650000I350000J0D01*
G01*
X94285000Y-43650000D01*
G75*
G02*
X94635000Y-44000000I0J-350000D01*
G01*
X94635000Y-44700000D01*
G75*
G02*
X94285000Y-45050000I-350000J0D01*
G01*
G37*
G36*
G01*
X94285000Y-43150000D02*
X93135000Y-43150000D01*
G75*
G02*
X92785000Y-42800000I0J350000D01*
G01*
X92785000Y-42100000D01*
G75*
G02*
X93135000Y-41750000I350000J0D01*
G01*
X94285000Y-41750000D01*
G75*
G02*
X94635000Y-42100000I0J-350000D01*
G01*
X94635000Y-42800000D01*
G75*
G02*
X94285000Y-43150000I-350000J0D01*
G01*
G37*
G36*
G01*
X66660000Y-38110000D02*
X66660000Y-38560000D01*
G75*
G02*
X66435000Y-38785000I-225000J0D01*
G01*
X64585000Y-38785000D01*
G75*
G02*
X64360000Y-38560000I0J225000D01*
G01*
X64360000Y-38110000D01*
G75*
G02*
X64585000Y-37885000I225000J0D01*
G01*
X66435000Y-37885000D01*
G75*
G02*
X66660000Y-38110000I0J-225000D01*
G01*
G37*
G36*
G01*
X66660000Y-37460000D02*
X66660000Y-37910000D01*
G75*
G02*
X66435000Y-38135000I-225000J0D01*
G01*
X64585000Y-38135000D01*
G75*
G02*
X64360000Y-37910000I0J225000D01*
G01*
X64360000Y-37460000D01*
G75*
G02*
X64585000Y-37235000I225000J0D01*
G01*
X66435000Y-37235000D01*
G75*
G02*
X66660000Y-37460000I0J-225000D01*
G01*
G37*
G36*
G01*
X66660000Y-36810000D02*
X66660000Y-37260000D01*
G75*
G02*
X66435000Y-37485000I-225000J0D01*
G01*
X64585000Y-37485000D01*
G75*
G02*
X64360000Y-37260000I0J225000D01*
G01*
X64360000Y-36810000D01*
G75*
G02*
X64585000Y-36585000I225000J0D01*
G01*
X66435000Y-36585000D01*
G75*
G02*
X66660000Y-36810000I0J-225000D01*
G01*
G37*
G36*
G01*
X66660000Y-36160000D02*
X66660000Y-36610000D01*
G75*
G02*
X66435000Y-36835000I-225000J0D01*
G01*
X64585000Y-36835000D01*
G75*
G02*
X64360000Y-36610000I0J225000D01*
G01*
X64360000Y-36160000D01*
G75*
G02*
X64585000Y-35935000I225000J0D01*
G01*
X66435000Y-35935000D01*
G75*
G02*
X66660000Y-36160000I0J-225000D01*
G01*
G37*
G36*
G01*
X66660000Y-35510000D02*
X66660000Y-35960000D01*
G75*
G02*
X66435000Y-36185000I-225000J0D01*
G01*
X64585000Y-36185000D01*
G75*
G02*
X64360000Y-35960000I0J225000D01*
G01*
X64360000Y-35510000D01*
G75*
G02*
X64585000Y-35285000I225000J0D01*
G01*
X66435000Y-35285000D01*
G75*
G02*
X66660000Y-35510000I0J-225000D01*
G01*
G37*
G36*
G01*
X66660000Y-34860000D02*
X66660000Y-35310000D01*
G75*
G02*
X66435000Y-35535000I-225000J0D01*
G01*
X64585000Y-35535000D01*
G75*
G02*
X64360000Y-35310000I0J225000D01*
G01*
X64360000Y-34860000D01*
G75*
G02*
X64585000Y-34635000I225000J0D01*
G01*
X66435000Y-34635000D01*
G75*
G02*
X66660000Y-34860000I0J-225000D01*
G01*
G37*
G36*
G01*
X66660000Y-34210000D02*
X66660000Y-34660000D01*
G75*
G02*
X66435000Y-34885000I-225000J0D01*
G01*
X64585000Y-34885000D01*
G75*
G02*
X64360000Y-34660000I0J225000D01*
G01*
X64360000Y-34210000D01*
G75*
G02*
X64585000Y-33985000I225000J0D01*
G01*
X66435000Y-33985000D01*
G75*
G02*
X66660000Y-34210000I0J-225000D01*
G01*
G37*
G36*
G01*
X66660000Y-33560000D02*
X66660000Y-34010000D01*
G75*
G02*
X66435000Y-34235000I-225000J0D01*
G01*
X64585000Y-34235000D01*
G75*
G02*
X64360000Y-34010000I0J225000D01*
G01*
X64360000Y-33560000D01*
G75*
G02*
X64585000Y-33335000I225000J0D01*
G01*
X66435000Y-33335000D01*
G75*
G02*
X66660000Y-33560000I0J-225000D01*
G01*
G37*
G36*
G01*
X66660000Y-32910000D02*
X66660000Y-33360000D01*
G75*
G02*
X66435000Y-33585000I-225000J0D01*
G01*
X64585000Y-33585000D01*
G75*
G02*
X64360000Y-33360000I0J225000D01*
G01*
X64360000Y-32910000D01*
G75*
G02*
X64585000Y-32685000I225000J0D01*
G01*
X66435000Y-32685000D01*
G75*
G02*
X66660000Y-32910000I0J-225000D01*
G01*
G37*
G36*
G01*
X66660000Y-32260000D02*
X66660000Y-32710000D01*
G75*
G02*
X66435000Y-32935000I-225000J0D01*
G01*
X64585000Y-32935000D01*
G75*
G02*
X64360000Y-32710000I0J225000D01*
G01*
X64360000Y-32260000D01*
G75*
G02*
X64585000Y-32035000I225000J0D01*
G01*
X66435000Y-32035000D01*
G75*
G02*
X66660000Y-32260000I0J-225000D01*
G01*
G37*
G36*
G01*
X73660000Y-32260000D02*
X73660000Y-32710000D01*
G75*
G02*
X73435000Y-32935000I-225000J0D01*
G01*
X71585000Y-32935000D01*
G75*
G02*
X71360000Y-32710000I0J225000D01*
G01*
X71360000Y-32260000D01*
G75*
G02*
X71585000Y-32035000I225000J0D01*
G01*
X73435000Y-32035000D01*
G75*
G02*
X73660000Y-32260000I0J-225000D01*
G01*
G37*
G36*
G01*
X73660000Y-32910000D02*
X73660000Y-33360000D01*
G75*
G02*
X73435000Y-33585000I-225000J0D01*
G01*
X71585000Y-33585000D01*
G75*
G02*
X71360000Y-33360000I0J225000D01*
G01*
X71360000Y-32910000D01*
G75*
G02*
X71585000Y-32685000I225000J0D01*
G01*
X73435000Y-32685000D01*
G75*
G02*
X73660000Y-32910000I0J-225000D01*
G01*
G37*
G36*
G01*
X73660000Y-33560000D02*
X73660000Y-34010000D01*
G75*
G02*
X73435000Y-34235000I-225000J0D01*
G01*
X71585000Y-34235000D01*
G75*
G02*
X71360000Y-34010000I0J225000D01*
G01*
X71360000Y-33560000D01*
G75*
G02*
X71585000Y-33335000I225000J0D01*
G01*
X73435000Y-33335000D01*
G75*
G02*
X73660000Y-33560000I0J-225000D01*
G01*
G37*
G36*
G01*
X73660000Y-34210000D02*
X73660000Y-34660000D01*
G75*
G02*
X73435000Y-34885000I-225000J0D01*
G01*
X71585000Y-34885000D01*
G75*
G02*
X71360000Y-34660000I0J225000D01*
G01*
X71360000Y-34210000D01*
G75*
G02*
X71585000Y-33985000I225000J0D01*
G01*
X73435000Y-33985000D01*
G75*
G02*
X73660000Y-34210000I0J-225000D01*
G01*
G37*
G36*
G01*
X73660000Y-34860000D02*
X73660000Y-35310000D01*
G75*
G02*
X73435000Y-35535000I-225000J0D01*
G01*
X71585000Y-35535000D01*
G75*
G02*
X71360000Y-35310000I0J225000D01*
G01*
X71360000Y-34860000D01*
G75*
G02*
X71585000Y-34635000I225000J0D01*
G01*
X73435000Y-34635000D01*
G75*
G02*
X73660000Y-34860000I0J-225000D01*
G01*
G37*
G36*
G01*
X73660000Y-35510000D02*
X73660000Y-35960000D01*
G75*
G02*
X73435000Y-36185000I-225000J0D01*
G01*
X71585000Y-36185000D01*
G75*
G02*
X71360000Y-35960000I0J225000D01*
G01*
X71360000Y-35510000D01*
G75*
G02*
X71585000Y-35285000I225000J0D01*
G01*
X73435000Y-35285000D01*
G75*
G02*
X73660000Y-35510000I0J-225000D01*
G01*
G37*
G36*
G01*
X73660000Y-36160000D02*
X73660000Y-36610000D01*
G75*
G02*
X73435000Y-36835000I-225000J0D01*
G01*
X71585000Y-36835000D01*
G75*
G02*
X71360000Y-36610000I0J225000D01*
G01*
X71360000Y-36160000D01*
G75*
G02*
X71585000Y-35935000I225000J0D01*
G01*
X73435000Y-35935000D01*
G75*
G02*
X73660000Y-36160000I0J-225000D01*
G01*
G37*
G36*
G01*
X73660000Y-36810000D02*
X73660000Y-37260000D01*
G75*
G02*
X73435000Y-37485000I-225000J0D01*
G01*
X71585000Y-37485000D01*
G75*
G02*
X71360000Y-37260000I0J225000D01*
G01*
X71360000Y-36810000D01*
G75*
G02*
X71585000Y-36585000I225000J0D01*
G01*
X73435000Y-36585000D01*
G75*
G02*
X73660000Y-36810000I0J-225000D01*
G01*
G37*
G36*
G01*
X73660000Y-37460000D02*
X73660000Y-37910000D01*
G75*
G02*
X73435000Y-38135000I-225000J0D01*
G01*
X71585000Y-38135000D01*
G75*
G02*
X71360000Y-37910000I0J225000D01*
G01*
X71360000Y-37460000D01*
G75*
G02*
X71585000Y-37235000I225000J0D01*
G01*
X73435000Y-37235000D01*
G75*
G02*
X73660000Y-37460000I0J-225000D01*
G01*
G37*
G36*
G01*
X73660000Y-38110000D02*
X73660000Y-38560000D01*
G75*
G02*
X73435000Y-38785000I-225000J0D01*
G01*
X71585000Y-38785000D01*
G75*
G02*
X71360000Y-38560000I0J225000D01*
G01*
X71360000Y-38110000D01*
G75*
G02*
X71585000Y-37885000I225000J0D01*
G01*
X73435000Y-37885000D01*
G75*
G02*
X73660000Y-38110000I0J-225000D01*
G01*
G37*
X77880000Y-30540000D03*
X62880000Y-30540000D03*
G36*
G01*
X75830000Y-27686666D02*
X75830000Y-29473334D01*
G75*
G02*
X75513334Y-29790000I-316666J0D01*
G01*
X74246666Y-29790000D01*
G75*
G02*
X73930000Y-29473334I0J316666D01*
G01*
X73930000Y-27686666D01*
G75*
G02*
X74246666Y-27370000I316666J0D01*
G01*
X75513334Y-27370000D01*
G75*
G02*
X75830000Y-27686666I0J-316666D01*
G01*
G37*
D14*
X71880000Y-28580000D03*
X68880000Y-28580000D03*
X65880000Y-28580000D03*
G36*
G01*
X76265000Y-36180000D02*
X75115000Y-36180000D01*
G75*
G02*
X74765000Y-35830000I0J350000D01*
G01*
X74765000Y-35130000D01*
G75*
G02*
X75115000Y-34780000I350000J0D01*
G01*
X76265000Y-34780000D01*
G75*
G02*
X76615000Y-35130000I0J-350000D01*
G01*
X76615000Y-35830000D01*
G75*
G02*
X76265000Y-36180000I-350000J0D01*
G01*
G37*
G36*
G01*
X76265000Y-38080000D02*
X75115000Y-38080000D01*
G75*
G02*
X74765000Y-37730000I0J350000D01*
G01*
X74765000Y-37030000D01*
G75*
G02*
X75115000Y-36680000I350000J0D01*
G01*
X76265000Y-36680000D01*
G75*
G02*
X76615000Y-37030000I0J-350000D01*
G01*
X76615000Y-37730000D01*
G75*
G02*
X76265000Y-38080000I-350000J0D01*
G01*
G37*
D12*
X57290000Y-30510000D03*
X42290000Y-30510000D03*
G36*
G01*
X55240000Y-27656666D02*
X55240000Y-29443334D01*
G75*
G02*
X54923334Y-29760000I-316666J0D01*
G01*
X53656666Y-29760000D01*
G75*
G02*
X53340000Y-29443334I0J316666D01*
G01*
X53340000Y-27656666D01*
G75*
G02*
X53656666Y-27340000I316666J0D01*
G01*
X54923334Y-27340000D01*
G75*
G02*
X55240000Y-27656666I0J-316666D01*
G01*
G37*
D14*
X51290000Y-28550000D03*
X48290000Y-28550000D03*
X45290000Y-28550000D03*
G36*
G01*
X55665000Y-36120000D02*
X54515000Y-36120000D01*
G75*
G02*
X54165000Y-35770000I0J350000D01*
G01*
X54165000Y-35070000D01*
G75*
G02*
X54515000Y-34720000I350000J0D01*
G01*
X55665000Y-34720000D01*
G75*
G02*
X56015000Y-35070000I0J-350000D01*
G01*
X56015000Y-35770000D01*
G75*
G02*
X55665000Y-36120000I-350000J0D01*
G01*
G37*
G36*
G01*
X55665000Y-38020000D02*
X54515000Y-38020000D01*
G75*
G02*
X54165000Y-37670000I0J350000D01*
G01*
X54165000Y-36970000D01*
G75*
G02*
X54515000Y-36620000I350000J0D01*
G01*
X55665000Y-36620000D01*
G75*
G02*
X56015000Y-36970000I0J-350000D01*
G01*
X56015000Y-37670000D01*
G75*
G02*
X55665000Y-38020000I-350000J0D01*
G01*
G37*
G36*
G01*
X28020000Y-45120000D02*
X28020000Y-45570000D01*
G75*
G02*
X27795000Y-45795000I-225000J0D01*
G01*
X25945000Y-45795000D01*
G75*
G02*
X25720000Y-45570000I0J225000D01*
G01*
X25720000Y-45120000D01*
G75*
G02*
X25945000Y-44895000I225000J0D01*
G01*
X27795000Y-44895000D01*
G75*
G02*
X28020000Y-45120000I0J-225000D01*
G01*
G37*
G36*
G01*
X28020000Y-44470000D02*
X28020000Y-44920000D01*
G75*
G02*
X27795000Y-45145000I-225000J0D01*
G01*
X25945000Y-45145000D01*
G75*
G02*
X25720000Y-44920000I0J225000D01*
G01*
X25720000Y-44470000D01*
G75*
G02*
X25945000Y-44245000I225000J0D01*
G01*
X27795000Y-44245000D01*
G75*
G02*
X28020000Y-44470000I0J-225000D01*
G01*
G37*
G36*
G01*
X28020000Y-43820000D02*
X28020000Y-44270000D01*
G75*
G02*
X27795000Y-44495000I-225000J0D01*
G01*
X25945000Y-44495000D01*
G75*
G02*
X25720000Y-44270000I0J225000D01*
G01*
X25720000Y-43820000D01*
G75*
G02*
X25945000Y-43595000I225000J0D01*
G01*
X27795000Y-43595000D01*
G75*
G02*
X28020000Y-43820000I0J-225000D01*
G01*
G37*
G36*
G01*
X28020000Y-43170000D02*
X28020000Y-43620000D01*
G75*
G02*
X27795000Y-43845000I-225000J0D01*
G01*
X25945000Y-43845000D01*
G75*
G02*
X25720000Y-43620000I0J225000D01*
G01*
X25720000Y-43170000D01*
G75*
G02*
X25945000Y-42945000I225000J0D01*
G01*
X27795000Y-42945000D01*
G75*
G02*
X28020000Y-43170000I0J-225000D01*
G01*
G37*
G36*
G01*
X28020000Y-42520000D02*
X28020000Y-42970000D01*
G75*
G02*
X27795000Y-43195000I-225000J0D01*
G01*
X25945000Y-43195000D01*
G75*
G02*
X25720000Y-42970000I0J225000D01*
G01*
X25720000Y-42520000D01*
G75*
G02*
X25945000Y-42295000I225000J0D01*
G01*
X27795000Y-42295000D01*
G75*
G02*
X28020000Y-42520000I0J-225000D01*
G01*
G37*
G36*
G01*
X28020000Y-41870000D02*
X28020000Y-42320000D01*
G75*
G02*
X27795000Y-42545000I-225000J0D01*
G01*
X25945000Y-42545000D01*
G75*
G02*
X25720000Y-42320000I0J225000D01*
G01*
X25720000Y-41870000D01*
G75*
G02*
X25945000Y-41645000I225000J0D01*
G01*
X27795000Y-41645000D01*
G75*
G02*
X28020000Y-41870000I0J-225000D01*
G01*
G37*
G36*
G01*
X28020000Y-41220000D02*
X28020000Y-41670000D01*
G75*
G02*
X27795000Y-41895000I-225000J0D01*
G01*
X25945000Y-41895000D01*
G75*
G02*
X25720000Y-41670000I0J225000D01*
G01*
X25720000Y-41220000D01*
G75*
G02*
X25945000Y-40995000I225000J0D01*
G01*
X27795000Y-40995000D01*
G75*
G02*
X28020000Y-41220000I0J-225000D01*
G01*
G37*
G36*
G01*
X28020000Y-40570000D02*
X28020000Y-41020000D01*
G75*
G02*
X27795000Y-41245000I-225000J0D01*
G01*
X25945000Y-41245000D01*
G75*
G02*
X25720000Y-41020000I0J225000D01*
G01*
X25720000Y-40570000D01*
G75*
G02*
X25945000Y-40345000I225000J0D01*
G01*
X27795000Y-40345000D01*
G75*
G02*
X28020000Y-40570000I0J-225000D01*
G01*
G37*
G36*
G01*
X28020000Y-39920000D02*
X28020000Y-40370000D01*
G75*
G02*
X27795000Y-40595000I-225000J0D01*
G01*
X25945000Y-40595000D01*
G75*
G02*
X25720000Y-40370000I0J225000D01*
G01*
X25720000Y-39920000D01*
G75*
G02*
X25945000Y-39695000I225000J0D01*
G01*
X27795000Y-39695000D01*
G75*
G02*
X28020000Y-39920000I0J-225000D01*
G01*
G37*
G36*
G01*
X28020000Y-39270000D02*
X28020000Y-39720000D01*
G75*
G02*
X27795000Y-39945000I-225000J0D01*
G01*
X25945000Y-39945000D01*
G75*
G02*
X25720000Y-39720000I0J225000D01*
G01*
X25720000Y-39270000D01*
G75*
G02*
X25945000Y-39045000I225000J0D01*
G01*
X27795000Y-39045000D01*
G75*
G02*
X28020000Y-39270000I0J-225000D01*
G01*
G37*
G36*
G01*
X35020000Y-39270000D02*
X35020000Y-39720000D01*
G75*
G02*
X34795000Y-39945000I-225000J0D01*
G01*
X32945000Y-39945000D01*
G75*
G02*
X32720000Y-39720000I0J225000D01*
G01*
X32720000Y-39270000D01*
G75*
G02*
X32945000Y-39045000I225000J0D01*
G01*
X34795000Y-39045000D01*
G75*
G02*
X35020000Y-39270000I0J-225000D01*
G01*
G37*
G36*
G01*
X35020000Y-39920000D02*
X35020000Y-40370000D01*
G75*
G02*
X34795000Y-40595000I-225000J0D01*
G01*
X32945000Y-40595000D01*
G75*
G02*
X32720000Y-40370000I0J225000D01*
G01*
X32720000Y-39920000D01*
G75*
G02*
X32945000Y-39695000I225000J0D01*
G01*
X34795000Y-39695000D01*
G75*
G02*
X35020000Y-39920000I0J-225000D01*
G01*
G37*
G36*
G01*
X35020000Y-40570000D02*
X35020000Y-41020000D01*
G75*
G02*
X34795000Y-41245000I-225000J0D01*
G01*
X32945000Y-41245000D01*
G75*
G02*
X32720000Y-41020000I0J225000D01*
G01*
X32720000Y-40570000D01*
G75*
G02*
X32945000Y-40345000I225000J0D01*
G01*
X34795000Y-40345000D01*
G75*
G02*
X35020000Y-40570000I0J-225000D01*
G01*
G37*
G36*
G01*
X35020000Y-41220000D02*
X35020000Y-41670000D01*
G75*
G02*
X34795000Y-41895000I-225000J0D01*
G01*
X32945000Y-41895000D01*
G75*
G02*
X32720000Y-41670000I0J225000D01*
G01*
X32720000Y-41220000D01*
G75*
G02*
X32945000Y-40995000I225000J0D01*
G01*
X34795000Y-40995000D01*
G75*
G02*
X35020000Y-41220000I0J-225000D01*
G01*
G37*
G36*
G01*
X35020000Y-41870000D02*
X35020000Y-42320000D01*
G75*
G02*
X34795000Y-42545000I-225000J0D01*
G01*
X32945000Y-42545000D01*
G75*
G02*
X32720000Y-42320000I0J225000D01*
G01*
X32720000Y-41870000D01*
G75*
G02*
X32945000Y-41645000I225000J0D01*
G01*
X34795000Y-41645000D01*
G75*
G02*
X35020000Y-41870000I0J-225000D01*
G01*
G37*
G36*
G01*
X35020000Y-42520000D02*
X35020000Y-42970000D01*
G75*
G02*
X34795000Y-43195000I-225000J0D01*
G01*
X32945000Y-43195000D01*
G75*
G02*
X32720000Y-42970000I0J225000D01*
G01*
X32720000Y-42520000D01*
G75*
G02*
X32945000Y-42295000I225000J0D01*
G01*
X34795000Y-42295000D01*
G75*
G02*
X35020000Y-42520000I0J-225000D01*
G01*
G37*
G36*
G01*
X35020000Y-43170000D02*
X35020000Y-43620000D01*
G75*
G02*
X34795000Y-43845000I-225000J0D01*
G01*
X32945000Y-43845000D01*
G75*
G02*
X32720000Y-43620000I0J225000D01*
G01*
X32720000Y-43170000D01*
G75*
G02*
X32945000Y-42945000I225000J0D01*
G01*
X34795000Y-42945000D01*
G75*
G02*
X35020000Y-43170000I0J-225000D01*
G01*
G37*
G36*
G01*
X35020000Y-43820000D02*
X35020000Y-44270000D01*
G75*
G02*
X34795000Y-44495000I-225000J0D01*
G01*
X32945000Y-44495000D01*
G75*
G02*
X32720000Y-44270000I0J225000D01*
G01*
X32720000Y-43820000D01*
G75*
G02*
X32945000Y-43595000I225000J0D01*
G01*
X34795000Y-43595000D01*
G75*
G02*
X35020000Y-43820000I0J-225000D01*
G01*
G37*
G36*
G01*
X35020000Y-44470000D02*
X35020000Y-44920000D01*
G75*
G02*
X34795000Y-45145000I-225000J0D01*
G01*
X32945000Y-45145000D01*
G75*
G02*
X32720000Y-44920000I0J225000D01*
G01*
X32720000Y-44470000D01*
G75*
G02*
X32945000Y-44245000I225000J0D01*
G01*
X34795000Y-44245000D01*
G75*
G02*
X35020000Y-44470000I0J-225000D01*
G01*
G37*
G36*
G01*
X35020000Y-45120000D02*
X35020000Y-45570000D01*
G75*
G02*
X34795000Y-45795000I-225000J0D01*
G01*
X32945000Y-45795000D01*
G75*
G02*
X32720000Y-45570000I0J225000D01*
G01*
X32720000Y-45120000D01*
G75*
G02*
X32945000Y-44895000I225000J0D01*
G01*
X34795000Y-44895000D01*
G75*
G02*
X35020000Y-45120000I0J-225000D01*
G01*
G37*
D12*
X39240000Y-37510000D03*
X24240000Y-37510000D03*
G36*
G01*
X37190000Y-34656666D02*
X37190000Y-36443334D01*
G75*
G02*
X36873334Y-36760000I-316666J0D01*
G01*
X35606666Y-36760000D01*
G75*
G02*
X35290000Y-36443334I0J316666D01*
G01*
X35290000Y-34656666D01*
G75*
G02*
X35606666Y-34340000I316666J0D01*
G01*
X36873334Y-34340000D01*
G75*
G02*
X37190000Y-34656666I0J-316666D01*
G01*
G37*
D14*
X33240000Y-35550000D03*
X30240000Y-35550000D03*
X27240000Y-35550000D03*
G36*
G01*
X37695000Y-43250000D02*
X36545000Y-43250000D01*
G75*
G02*
X36195000Y-42900000I0J350000D01*
G01*
X36195000Y-42200000D01*
G75*
G02*
X36545000Y-41850000I350000J0D01*
G01*
X37695000Y-41850000D01*
G75*
G02*
X38045000Y-42200000I0J-350000D01*
G01*
X38045000Y-42900000D01*
G75*
G02*
X37695000Y-43250000I-350000J0D01*
G01*
G37*
G36*
G01*
X37695000Y-45150000D02*
X36545000Y-45150000D01*
G75*
G02*
X36195000Y-44800000I0J350000D01*
G01*
X36195000Y-44100000D01*
G75*
G02*
X36545000Y-43750000I350000J0D01*
G01*
X37695000Y-43750000D01*
G75*
G02*
X38045000Y-44100000I0J-350000D01*
G01*
X38045000Y-44800000D01*
G75*
G02*
X37695000Y-45150000I-350000J0D01*
G01*
G37*
G36*
G01*
X65230000Y-114950000D02*
X65230000Y-114150000D01*
G75*
G02*
X65430000Y-113950000I200000J0D01*
G01*
X66330000Y-113950000D01*
G75*
G02*
X66530000Y-114150000I0J-200000D01*
G01*
X66530000Y-114950000D01*
G75*
G02*
X66330000Y-115150000I-200000J0D01*
G01*
X65430000Y-115150000D01*
G75*
G02*
X65230000Y-114950000I0J200000D01*
G01*
G37*
G36*
G01*
X63230000Y-115900000D02*
X63230000Y-115100000D01*
G75*
G02*
X63430000Y-114900000I200000J0D01*
G01*
X64330000Y-114900000D01*
G75*
G02*
X64530000Y-115100000I0J-200000D01*
G01*
X64530000Y-115900000D01*
G75*
G02*
X64330000Y-116100000I-200000J0D01*
G01*
X63430000Y-116100000D01*
G75*
G02*
X63230000Y-115900000I0J200000D01*
G01*
G37*
G36*
G01*
X63230000Y-114000000D02*
X63230000Y-113200000D01*
G75*
G02*
X63430000Y-113000000I200000J0D01*
G01*
X64330000Y-113000000D01*
G75*
G02*
X64530000Y-113200000I0J-200000D01*
G01*
X64530000Y-114000000D01*
G75*
G02*
X64330000Y-114200000I-200000J0D01*
G01*
X63430000Y-114200000D01*
G75*
G02*
X63230000Y-114000000I0J200000D01*
G01*
G37*
G36*
G01*
X59065000Y-104450000D02*
X59065000Y-103800000D01*
G75*
G02*
X59265000Y-103600000I200000J0D01*
G01*
X61065000Y-103600000D01*
G75*
G02*
X61265000Y-103800000I0J-200000D01*
G01*
X61265000Y-104450000D01*
G75*
G02*
X61065000Y-104650000I-200000J0D01*
G01*
X59265000Y-104650000D01*
G75*
G02*
X59065000Y-104450000I0J200000D01*
G01*
G37*
G36*
G01*
X59065000Y-105720000D02*
X59065000Y-105070000D01*
G75*
G02*
X59265000Y-104870000I200000J0D01*
G01*
X61065000Y-104870000D01*
G75*
G02*
X61265000Y-105070000I0J-200000D01*
G01*
X61265000Y-105720000D01*
G75*
G02*
X61065000Y-105920000I-200000J0D01*
G01*
X59265000Y-105920000D01*
G75*
G02*
X59065000Y-105720000I0J200000D01*
G01*
G37*
G36*
G01*
X59065000Y-106990000D02*
X59065000Y-106340000D01*
G75*
G02*
X59265000Y-106140000I200000J0D01*
G01*
X61065000Y-106140000D01*
G75*
G02*
X61265000Y-106340000I0J-200000D01*
G01*
X61265000Y-106990000D01*
G75*
G02*
X61065000Y-107190000I-200000J0D01*
G01*
X59265000Y-107190000D01*
G75*
G02*
X59065000Y-106990000I0J200000D01*
G01*
G37*
G36*
G01*
X59065000Y-108260000D02*
X59065000Y-107610000D01*
G75*
G02*
X59265000Y-107410000I200000J0D01*
G01*
X61065000Y-107410000D01*
G75*
G02*
X61265000Y-107610000I0J-200000D01*
G01*
X61265000Y-108260000D01*
G75*
G02*
X61065000Y-108460000I-200000J0D01*
G01*
X59265000Y-108460000D01*
G75*
G02*
X59065000Y-108260000I0J200000D01*
G01*
G37*
G36*
G01*
X59065000Y-109530000D02*
X59065000Y-108880000D01*
G75*
G02*
X59265000Y-108680000I200000J0D01*
G01*
X61065000Y-108680000D01*
G75*
G02*
X61265000Y-108880000I0J-200000D01*
G01*
X61265000Y-109530000D01*
G75*
G02*
X61065000Y-109730000I-200000J0D01*
G01*
X59265000Y-109730000D01*
G75*
G02*
X59065000Y-109530000I0J200000D01*
G01*
G37*
G36*
G01*
X59065000Y-110800000D02*
X59065000Y-110150000D01*
G75*
G02*
X59265000Y-109950000I200000J0D01*
G01*
X61065000Y-109950000D01*
G75*
G02*
X61265000Y-110150000I0J-200000D01*
G01*
X61265000Y-110800000D01*
G75*
G02*
X61065000Y-111000000I-200000J0D01*
G01*
X59265000Y-111000000D01*
G75*
G02*
X59065000Y-110800000I0J200000D01*
G01*
G37*
G36*
G01*
X59065000Y-112070000D02*
X59065000Y-111420000D01*
G75*
G02*
X59265000Y-111220000I200000J0D01*
G01*
X61065000Y-111220000D01*
G75*
G02*
X61265000Y-111420000I0J-200000D01*
G01*
X61265000Y-112070000D01*
G75*
G02*
X61065000Y-112270000I-200000J0D01*
G01*
X59265000Y-112270000D01*
G75*
G02*
X59065000Y-112070000I0J200000D01*
G01*
G37*
G36*
G01*
X59065000Y-113340000D02*
X59065000Y-112690000D01*
G75*
G02*
X59265000Y-112490000I200000J0D01*
G01*
X61065000Y-112490000D01*
G75*
G02*
X61265000Y-112690000I0J-200000D01*
G01*
X61265000Y-113340000D01*
G75*
G02*
X61065000Y-113540000I-200000J0D01*
G01*
X59265000Y-113540000D01*
G75*
G02*
X59065000Y-113340000I0J200000D01*
G01*
G37*
G36*
G01*
X59065000Y-114610000D02*
X59065000Y-113960000D01*
G75*
G02*
X59265000Y-113760000I200000J0D01*
G01*
X61065000Y-113760000D01*
G75*
G02*
X61265000Y-113960000I0J-200000D01*
G01*
X61265000Y-114610000D01*
G75*
G02*
X61065000Y-114810000I-200000J0D01*
G01*
X59265000Y-114810000D01*
G75*
G02*
X59065000Y-114610000I0J200000D01*
G01*
G37*
G36*
G01*
X59065000Y-115880000D02*
X59065000Y-115230000D01*
G75*
G02*
X59265000Y-115030000I200000J0D01*
G01*
X61065000Y-115030000D01*
G75*
G02*
X61265000Y-115230000I0J-200000D01*
G01*
X61265000Y-115880000D01*
G75*
G02*
X61065000Y-116080000I-200000J0D01*
G01*
X59265000Y-116080000D01*
G75*
G02*
X59065000Y-115880000I0J200000D01*
G01*
G37*
G36*
G01*
X49615000Y-115880000D02*
X49615000Y-115230000D01*
G75*
G02*
X49815000Y-115030000I200000J0D01*
G01*
X51615000Y-115030000D01*
G75*
G02*
X51815000Y-115230000I0J-200000D01*
G01*
X51815000Y-115880000D01*
G75*
G02*
X51615000Y-116080000I-200000J0D01*
G01*
X49815000Y-116080000D01*
G75*
G02*
X49615000Y-115880000I0J200000D01*
G01*
G37*
G36*
G01*
X49615000Y-114610000D02*
X49615000Y-113960000D01*
G75*
G02*
X49815000Y-113760000I200000J0D01*
G01*
X51615000Y-113760000D01*
G75*
G02*
X51815000Y-113960000I0J-200000D01*
G01*
X51815000Y-114610000D01*
G75*
G02*
X51615000Y-114810000I-200000J0D01*
G01*
X49815000Y-114810000D01*
G75*
G02*
X49615000Y-114610000I0J200000D01*
G01*
G37*
G36*
G01*
X49615000Y-113340000D02*
X49615000Y-112690000D01*
G75*
G02*
X49815000Y-112490000I200000J0D01*
G01*
X51615000Y-112490000D01*
G75*
G02*
X51815000Y-112690000I0J-200000D01*
G01*
X51815000Y-113340000D01*
G75*
G02*
X51615000Y-113540000I-200000J0D01*
G01*
X49815000Y-113540000D01*
G75*
G02*
X49615000Y-113340000I0J200000D01*
G01*
G37*
G36*
G01*
X49615000Y-112070000D02*
X49615000Y-111420000D01*
G75*
G02*
X49815000Y-111220000I200000J0D01*
G01*
X51615000Y-111220000D01*
G75*
G02*
X51815000Y-111420000I0J-200000D01*
G01*
X51815000Y-112070000D01*
G75*
G02*
X51615000Y-112270000I-200000J0D01*
G01*
X49815000Y-112270000D01*
G75*
G02*
X49615000Y-112070000I0J200000D01*
G01*
G37*
G36*
G01*
X49615000Y-110800000D02*
X49615000Y-110150000D01*
G75*
G02*
X49815000Y-109950000I200000J0D01*
G01*
X51615000Y-109950000D01*
G75*
G02*
X51815000Y-110150000I0J-200000D01*
G01*
X51815000Y-110800000D01*
G75*
G02*
X51615000Y-111000000I-200000J0D01*
G01*
X49815000Y-111000000D01*
G75*
G02*
X49615000Y-110800000I0J200000D01*
G01*
G37*
G36*
G01*
X49615000Y-109530000D02*
X49615000Y-108880000D01*
G75*
G02*
X49815000Y-108680000I200000J0D01*
G01*
X51615000Y-108680000D01*
G75*
G02*
X51815000Y-108880000I0J-200000D01*
G01*
X51815000Y-109530000D01*
G75*
G02*
X51615000Y-109730000I-200000J0D01*
G01*
X49815000Y-109730000D01*
G75*
G02*
X49615000Y-109530000I0J200000D01*
G01*
G37*
G36*
G01*
X49615000Y-108260000D02*
X49615000Y-107610000D01*
G75*
G02*
X49815000Y-107410000I200000J0D01*
G01*
X51615000Y-107410000D01*
G75*
G02*
X51815000Y-107610000I0J-200000D01*
G01*
X51815000Y-108260000D01*
G75*
G02*
X51615000Y-108460000I-200000J0D01*
G01*
X49815000Y-108460000D01*
G75*
G02*
X49615000Y-108260000I0J200000D01*
G01*
G37*
G36*
G01*
X49615000Y-106990000D02*
X49615000Y-106340000D01*
G75*
G02*
X49815000Y-106140000I200000J0D01*
G01*
X51615000Y-106140000D01*
G75*
G02*
X51815000Y-106340000I0J-200000D01*
G01*
X51815000Y-106990000D01*
G75*
G02*
X51615000Y-107190000I-200000J0D01*
G01*
X49815000Y-107190000D01*
G75*
G02*
X49615000Y-106990000I0J200000D01*
G01*
G37*
G36*
G01*
X49615000Y-105720000D02*
X49615000Y-105070000D01*
G75*
G02*
X49815000Y-104870000I200000J0D01*
G01*
X51615000Y-104870000D01*
G75*
G02*
X51815000Y-105070000I0J-200000D01*
G01*
X51815000Y-105720000D01*
G75*
G02*
X51615000Y-105920000I-200000J0D01*
G01*
X49815000Y-105920000D01*
G75*
G02*
X49615000Y-105720000I0J200000D01*
G01*
G37*
G36*
G01*
X49615000Y-104450000D02*
X49615000Y-103800000D01*
G75*
G02*
X49815000Y-103600000I200000J0D01*
G01*
X51615000Y-103600000D01*
G75*
G02*
X51815000Y-103800000I0J-200000D01*
G01*
X51815000Y-104450000D01*
G75*
G02*
X51615000Y-104650000I-200000J0D01*
G01*
X49815000Y-104650000D01*
G75*
G02*
X49615000Y-104450000I0J200000D01*
G01*
G37*
G36*
G01*
X23846000Y-91564000D02*
X23846000Y-90056000D01*
G75*
G02*
X24046000Y-89856000I200000J0D01*
G01*
X25554000Y-89856000D01*
G75*
G02*
X25754000Y-90056000I0J-200000D01*
G01*
X25754000Y-91564000D01*
G75*
G02*
X25554000Y-91764000I-200000J0D01*
G01*
X24046000Y-91764000D01*
G75*
G02*
X23846000Y-91564000I0J200000D01*
G01*
G37*
D15*
X27340000Y-90810000D03*
X29880000Y-90810000D03*
X34960000Y-90810000D03*
X37500000Y-90810000D03*
X40040000Y-90810000D03*
X42580000Y-90810000D03*
G36*
G01*
X53345000Y-82850000D02*
X53345000Y-84380000D01*
G75*
G02*
X53145000Y-84580000I-200000J0D01*
G01*
X51615000Y-84580000D01*
G75*
G02*
X51415000Y-84380000I0J200000D01*
G01*
X51415000Y-82850000D01*
G75*
G02*
X51615000Y-82650000I200000J0D01*
G01*
X53145000Y-82650000D01*
G75*
G02*
X53345000Y-82850000I0J-200000D01*
G01*
G37*
D16*
X52380000Y-81075000D03*
X52380000Y-78535000D03*
X52380000Y-75995000D03*
X52380000Y-73455000D03*
X52380000Y-70915000D03*
X52380000Y-68375000D03*
X52380000Y-65835000D03*
X52380000Y-63295000D03*
X52380000Y-60755000D03*
X52380000Y-58215000D03*
X52380000Y-55675000D03*
X52380000Y-53135000D03*
X52380000Y-50595000D03*
X52380000Y-48055000D03*
G36*
G01*
X68585000Y-82850000D02*
X68585000Y-84380000D01*
G75*
G02*
X68385000Y-84580000I-200000J0D01*
G01*
X66855000Y-84580000D01*
G75*
G02*
X66655000Y-84380000I0J200000D01*
G01*
X66655000Y-82850000D01*
G75*
G02*
X66855000Y-82650000I200000J0D01*
G01*
X68385000Y-82650000D01*
G75*
G02*
X68585000Y-82850000I0J-200000D01*
G01*
G37*
X67620000Y-81075000D03*
X67620000Y-78535000D03*
X67620000Y-75995000D03*
X67620000Y-73455000D03*
X67620000Y-70915000D03*
X67620000Y-68375000D03*
X67620000Y-65835000D03*
X67620000Y-63295000D03*
X67620000Y-60755000D03*
X67620000Y-58215000D03*
X67620000Y-55675000D03*
X67620000Y-53135000D03*
X67620000Y-50595000D03*
X67620000Y-48055000D03*
D11*
X41880000Y-103300000D03*
X40850000Y-108920000D03*
X24540000Y-106150000D03*
X33160000Y-101590000D03*
D17*
X90500000Y-86000000D03*
X95000000Y-86000000D03*
X90500000Y-92500000D03*
X95000000Y-92500000D03*
G36*
G01*
X86080000Y-89927559D02*
X86080000Y-91032441D01*
G75*
G02*
X85732441Y-91380000I-347559J0D01*
G01*
X85002559Y-91380000D01*
G75*
G02*
X84655000Y-91032441I0J347559D01*
G01*
X84655000Y-89927559D01*
G75*
G02*
X85002559Y-89580000I347559J0D01*
G01*
X85732441Y-89580000D01*
G75*
G02*
X86080000Y-89927559I0J-347559D01*
G01*
G37*
G36*
G01*
X87905000Y-89927559D02*
X87905000Y-91032441D01*
G75*
G02*
X87557441Y-91380000I-347559J0D01*
G01*
X86827559Y-91380000D01*
G75*
G02*
X86480000Y-91032441I0J347559D01*
G01*
X86480000Y-89927559D01*
G75*
G02*
X86827559Y-89580000I347559J0D01*
G01*
X87557441Y-89580000D01*
G75*
G02*
X87905000Y-89927559I0J-347559D01*
G01*
G37*
G36*
G01*
X43483750Y-76920000D02*
X44596250Y-76920000D01*
G75*
G02*
X44940000Y-77263750I0J-343750D01*
G01*
X44940000Y-77951250D01*
G75*
G02*
X44596250Y-78295000I-343750J0D01*
G01*
X43483750Y-78295000D01*
G75*
G02*
X43140000Y-77951250I0J343750D01*
G01*
X43140000Y-77263750D01*
G75*
G02*
X43483750Y-76920000I343750J0D01*
G01*
G37*
G36*
G01*
X43483750Y-75045000D02*
X44596250Y-75045000D01*
G75*
G02*
X44940000Y-75388750I0J-343750D01*
G01*
X44940000Y-76076250D01*
G75*
G02*
X44596250Y-76420000I-343750J0D01*
G01*
X43483750Y-76420000D01*
G75*
G02*
X43140000Y-76076250I0J343750D01*
G01*
X43140000Y-75388750D01*
G75*
G02*
X43483750Y-75045000I343750J0D01*
G01*
G37*
G36*
G01*
X44146250Y-59390000D02*
X43033750Y-59390000D01*
G75*
G02*
X42690000Y-59046250I0J343750D01*
G01*
X42690000Y-58358750D01*
G75*
G02*
X43033750Y-58015000I343750J0D01*
G01*
X44146250Y-58015000D01*
G75*
G02*
X44490000Y-58358750I0J-343750D01*
G01*
X44490000Y-59046250D01*
G75*
G02*
X44146250Y-59390000I-343750J0D01*
G01*
G37*
G36*
G01*
X44146250Y-61265000D02*
X43033750Y-61265000D01*
G75*
G02*
X42690000Y-60921250I0J343750D01*
G01*
X42690000Y-60233750D01*
G75*
G02*
X43033750Y-59890000I343750J0D01*
G01*
X44146250Y-59890000D01*
G75*
G02*
X44490000Y-60233750I0J-343750D01*
G01*
X44490000Y-60921250D01*
G75*
G02*
X44146250Y-61265000I-343750J0D01*
G01*
G37*
G36*
G01*
X34833750Y-114820000D02*
X35946250Y-114820000D01*
G75*
G02*
X36290000Y-115163750I0J-343750D01*
G01*
X36290000Y-115851250D01*
G75*
G02*
X35946250Y-116195000I-343750J0D01*
G01*
X34833750Y-116195000D01*
G75*
G02*
X34490000Y-115851250I0J343750D01*
G01*
X34490000Y-115163750D01*
G75*
G02*
X34833750Y-114820000I343750J0D01*
G01*
G37*
G36*
G01*
X34833750Y-112945000D02*
X35946250Y-112945000D01*
G75*
G02*
X36290000Y-113288750I0J-343750D01*
G01*
X36290000Y-113976250D01*
G75*
G02*
X35946250Y-114320000I-343750J0D01*
G01*
X34833750Y-114320000D01*
G75*
G02*
X34490000Y-113976250I0J343750D01*
G01*
X34490000Y-113288750D01*
G75*
G02*
X34833750Y-112945000I343750J0D01*
G01*
G37*
D14*
X30950000Y-108120000D03*
G36*
G01*
X34900000Y-107226666D02*
X34900000Y-109013334D01*
G75*
G02*
X34583334Y-109330000I-316666J0D01*
G01*
X33316666Y-109330000D01*
G75*
G02*
X33000000Y-109013334I0J316666D01*
G01*
X33000000Y-107226666D01*
G75*
G02*
X33316666Y-106910000I316666J0D01*
G01*
X34583334Y-106910000D01*
G75*
G02*
X34900000Y-107226666I0J-316666D01*
G01*
G37*
D12*
X27950000Y-110080000D03*
X36950000Y-110080000D03*
X97392000Y-101620000D03*
X88392000Y-101620000D03*
G36*
G01*
X95342000Y-98766666D02*
X95342000Y-100553334D01*
G75*
G02*
X95025334Y-100870000I-316666J0D01*
G01*
X93758666Y-100870000D01*
G75*
G02*
X93442000Y-100553334I0J316666D01*
G01*
X93442000Y-98766666D01*
G75*
G02*
X93758666Y-98450000I316666J0D01*
G01*
X95025334Y-98450000D01*
G75*
G02*
X95342000Y-98766666I0J-316666D01*
G01*
G37*
D14*
X91392000Y-99660000D03*
D12*
X97442000Y-110370000D03*
X88442000Y-110370000D03*
G36*
G01*
X95392000Y-107516666D02*
X95392000Y-109303334D01*
G75*
G02*
X95075334Y-109620000I-316666J0D01*
G01*
X93808666Y-109620000D01*
G75*
G02*
X93492000Y-109303334I0J316666D01*
G01*
X93492000Y-107516666D01*
G75*
G02*
X93808666Y-107200000I316666J0D01*
G01*
X95075334Y-107200000D01*
G75*
G02*
X95392000Y-107516666I0J-316666D01*
G01*
G37*
D14*
X91442000Y-108410000D03*
D11*
X48530000Y-97670000D03*
X53550000Y-97700000D03*
G36*
G01*
X41533750Y-114820000D02*
X42646250Y-114820000D01*
G75*
G02*
X42990000Y-115163750I0J-343750D01*
G01*
X42990000Y-115851250D01*
G75*
G02*
X42646250Y-116195000I-343750J0D01*
G01*
X41533750Y-116195000D01*
G75*
G02*
X41190000Y-115851250I0J343750D01*
G01*
X41190000Y-115163750D01*
G75*
G02*
X41533750Y-114820000I343750J0D01*
G01*
G37*
G36*
G01*
X41533750Y-112945000D02*
X42646250Y-112945000D01*
G75*
G02*
X42990000Y-113288750I0J-343750D01*
G01*
X42990000Y-113976250D01*
G75*
G02*
X42646250Y-114320000I-343750J0D01*
G01*
X41533750Y-114320000D01*
G75*
G02*
X41190000Y-113976250I0J343750D01*
G01*
X41190000Y-113288750D01*
G75*
G02*
X41533750Y-112945000I343750J0D01*
G01*
G37*
G36*
G01*
X75823750Y-55800000D02*
X76936250Y-55800000D01*
G75*
G02*
X77280000Y-56143750I0J-343750D01*
G01*
X77280000Y-56831250D01*
G75*
G02*
X76936250Y-57175000I-343750J0D01*
G01*
X75823750Y-57175000D01*
G75*
G02*
X75480000Y-56831250I0J343750D01*
G01*
X75480000Y-56143750D01*
G75*
G02*
X75823750Y-55800000I343750J0D01*
G01*
G37*
G36*
G01*
X75823750Y-53925000D02*
X76936250Y-53925000D01*
G75*
G02*
X77280000Y-54268750I0J-343750D01*
G01*
X77280000Y-54956250D01*
G75*
G02*
X76936250Y-55300000I-343750J0D01*
G01*
X75823750Y-55300000D01*
G75*
G02*
X75480000Y-54956250I0J343750D01*
G01*
X75480000Y-54268750D01*
G75*
G02*
X75823750Y-53925000I343750J0D01*
G01*
G37*
G36*
G01*
X75533750Y-75985000D02*
X76646250Y-75985000D01*
G75*
G02*
X76990000Y-76328750I0J-343750D01*
G01*
X76990000Y-77016250D01*
G75*
G02*
X76646250Y-77360000I-343750J0D01*
G01*
X75533750Y-77360000D01*
G75*
G02*
X75190000Y-77016250I0J343750D01*
G01*
X75190000Y-76328750D01*
G75*
G02*
X75533750Y-75985000I343750J0D01*
G01*
G37*
G36*
G01*
X75533750Y-77860000D02*
X76646250Y-77860000D01*
G75*
G02*
X76990000Y-78203750I0J-343750D01*
G01*
X76990000Y-78891250D01*
G75*
G02*
X76646250Y-79235000I-343750J0D01*
G01*
X75533750Y-79235000D01*
G75*
G02*
X75190000Y-78891250I0J343750D01*
G01*
X75190000Y-78203750D01*
G75*
G02*
X75533750Y-77860000I343750J0D01*
G01*
G37*
G36*
G01*
X46985000Y-109960000D02*
X48135000Y-109960000D01*
G75*
G02*
X48485000Y-110310000I0J-350000D01*
G01*
X48485000Y-111010000D01*
G75*
G02*
X48135000Y-111360000I-350000J0D01*
G01*
X46985000Y-111360000D01*
G75*
G02*
X46635000Y-111010000I0J350000D01*
G01*
X46635000Y-110310000D01*
G75*
G02*
X46985000Y-109960000I350000J0D01*
G01*
G37*
G36*
G01*
X46985000Y-108060000D02*
X48135000Y-108060000D01*
G75*
G02*
X48485000Y-108410000I0J-350000D01*
G01*
X48485000Y-109110000D01*
G75*
G02*
X48135000Y-109460000I-350000J0D01*
G01*
X46985000Y-109460000D01*
G75*
G02*
X46635000Y-109110000I0J350000D01*
G01*
X46635000Y-108410000D01*
G75*
G02*
X46985000Y-108060000I350000J0D01*
G01*
G37*
G36*
G01*
X48165000Y-105030000D02*
X47015000Y-105030000D01*
G75*
G02*
X46665000Y-104680000I0J350000D01*
G01*
X46665000Y-103980000D01*
G75*
G02*
X47015000Y-103630000I350000J0D01*
G01*
X48165000Y-103630000D01*
G75*
G02*
X48515000Y-103980000I0J-350000D01*
G01*
X48515000Y-104680000D01*
G75*
G02*
X48165000Y-105030000I-350000J0D01*
G01*
G37*
G36*
G01*
X48165000Y-106930000D02*
X47015000Y-106930000D01*
G75*
G02*
X46665000Y-106580000I0J350000D01*
G01*
X46665000Y-105880000D01*
G75*
G02*
X47015000Y-105530000I350000J0D01*
G01*
X48165000Y-105530000D01*
G75*
G02*
X48515000Y-105880000I0J-350000D01*
G01*
X48515000Y-106580000D01*
G75*
G02*
X48165000Y-106930000I-350000J0D01*
G01*
G37*
X63680000Y-97670000D03*
D18*
X95000000Y-115000000D03*
X25000000Y-115000000D03*
X95000000Y-25000000D03*
X25000000Y-25000000D03*
D11*
X83920000Y-97720000D03*
X73800000Y-97720000D03*
X58580000Y-97720000D03*
X68680000Y-97620000D03*
G36*
G01*
X63723750Y-104777500D02*
X64836250Y-104777500D01*
G75*
G02*
X65180000Y-105121250I0J-343750D01*
G01*
X65180000Y-105808750D01*
G75*
G02*
X64836250Y-106152500I-343750J0D01*
G01*
X63723750Y-106152500D01*
G75*
G02*
X63380000Y-105808750I0J343750D01*
G01*
X63380000Y-105121250D01*
G75*
G02*
X63723750Y-104777500I343750J0D01*
G01*
G37*
G36*
G01*
X63723750Y-106652500D02*
X64836250Y-106652500D01*
G75*
G02*
X65180000Y-106996250I0J-343750D01*
G01*
X65180000Y-107683750D01*
G75*
G02*
X64836250Y-108027500I-343750J0D01*
G01*
X63723750Y-108027500D01*
G75*
G02*
X63380000Y-107683750I0J343750D01*
G01*
X63380000Y-106996250D01*
G75*
G02*
X63723750Y-106652500I343750J0D01*
G01*
G37*
G36*
G01*
X66322500Y-107986250D02*
X66322500Y-106873750D01*
G75*
G02*
X66666250Y-106530000I343750J0D01*
G01*
X67353750Y-106530000D01*
G75*
G02*
X67697500Y-106873750I0J-343750D01*
G01*
X67697500Y-107986250D01*
G75*
G02*
X67353750Y-108330000I-343750J0D01*
G01*
X66666250Y-108330000D01*
G75*
G02*
X66322500Y-107986250I0J343750D01*
G01*
G37*
G36*
G01*
X68197500Y-107986250D02*
X68197500Y-106873750D01*
G75*
G02*
X68541250Y-106530000I343750J0D01*
G01*
X69228750Y-106530000D01*
G75*
G02*
X69572500Y-106873750I0J-343750D01*
G01*
X69572500Y-107986250D01*
G75*
G02*
X69228750Y-108330000I-343750J0D01*
G01*
X68541250Y-108330000D01*
G75*
G02*
X68197500Y-107986250I0J343750D01*
G01*
G37*
M02*
