M48
; DRILL file {KiCad (5.1.9)-1} date 04/03/21 20:33:08
; FORMAT={-:-/ absolute / inch / decimal}
; #@! TF.CreationDate,2021-04-03T20:33:08-05:00
; #@! TF.GenerationSoftware,Kicad,Pcbnew,(5.1.9)-1
; #@! TF.FileFunction,NonPlated,1,2,NPTH
FMAT,2
INCH
T1C0.0500
T2C0.1181
%
G90
G05
T1
X0.9512Y-2.9055
X0.9543Y-1.4768
X0.9555Y-2.189
X1.1004Y-4.3339
X1.4547Y-4.3339
X1.5417Y-2.9055
X1.5449Y-1.4768
X1.5461Y-2.189
X1.665Y-1.2012
X2.2555Y-1.2012
X2.4756Y-1.2024
X3.0661Y-1.2024
X3.0673Y-4.0031
X3.0673Y-4.5937
X3.1846Y-1.476
X3.185Y-2.8921
X3.189Y-2.1807
X3.373Y-4.0035
X3.373Y-4.5941
X3.48Y-4.0008
X3.482Y-4.3453
X3.7752Y-1.476
X3.7756Y-2.8921
X3.7795Y-2.1807
X3.8343Y-4.0008
X3.8363Y-4.3453
T2
X0.9843Y-0.9843
X0.9843Y-4.5276
X3.7402Y-0.9843
X3.7402Y-4.5276
T0
M30
