G04 #@! TF.GenerationSoftware,KiCad,Pcbnew,(5.1.9)-1*
G04 #@! TF.CreationDate,2021-04-03T20:33:06-05:00*
G04 #@! TF.ProjectId,RTDTemp,52544454-656d-4702-9e6b-696361645f70,1.0.0*
G04 #@! TF.SameCoordinates,Original*
G04 #@! TF.FileFunction,Soldermask,Bot*
G04 #@! TF.FilePolarity,Negative*
%FSLAX46Y46*%
G04 Gerber Fmt 4.6, Leading zero omitted, Abs format (unit mm)*
G04 Created by KiCad (PCBNEW (5.1.9)-1) date 2021-04-03 20:33:06*
%MOMM*%
%LPD*%
G01*
G04 APERTURE LIST*
%ADD10R,1.700000X1.700000*%
%ADD11O,1.700000X1.700000*%
%ADD12C,2.800000*%
%ADD13C,1.270000*%
%ADD14O,2.020000X1.500000*%
%ADD15O,1.500000X2.020000*%
%ADD16R,1.508000X1.508000*%
%ADD17C,1.508000*%
%ADD18R,1.530000X1.530000*%
%ADD19C,1.530000*%
%ADD20C,2.000000*%
%ADD21C,3.000000*%
G04 APERTURE END LIST*
D10*
X69370000Y-115240000D03*
D11*
X69370000Y-112700000D03*
D12*
X78870000Y-97700000D03*
D13*
X77910000Y-101680000D03*
X77910000Y-116680000D03*
G36*
G01*
X75190000Y-103930000D02*
X76710000Y-103930000D01*
G75*
G02*
X76960000Y-104180000I0J-250000D01*
G01*
X76960000Y-105180000D01*
G75*
G02*
X76710000Y-105430000I-250000J0D01*
G01*
X75190000Y-105430000D01*
G75*
G02*
X74940000Y-105180000I0J250000D01*
G01*
X74940000Y-104180000D01*
G75*
G02*
X75190000Y-103930000I250000J0D01*
G01*
G37*
D14*
X75950000Y-107680000D03*
X75950000Y-110680000D03*
X75950000Y-113680000D03*
D13*
X85675000Y-101690000D03*
X85675000Y-116690000D03*
G36*
G01*
X82955000Y-103940000D02*
X84475000Y-103940000D01*
G75*
G02*
X84725000Y-104190000I0J-250000D01*
G01*
X84725000Y-105190000D01*
G75*
G02*
X84475000Y-105440000I-250000J0D01*
G01*
X82955000Y-105440000D01*
G75*
G02*
X82705000Y-105190000I0J250000D01*
G01*
X82705000Y-104190000D01*
G75*
G02*
X82955000Y-103940000I250000J0D01*
G01*
G37*
D14*
X83715000Y-107690000D03*
X83715000Y-110690000D03*
X83715000Y-113690000D03*
G36*
G01*
X86650001Y-80385000D02*
X85749999Y-80385000D01*
G75*
G02*
X85500000Y-80135001I0J249999D01*
G01*
X85500000Y-79609999D01*
G75*
G02*
X85749999Y-79360000I249999J0D01*
G01*
X86650001Y-79360000D01*
G75*
G02*
X86900000Y-79609999I0J-249999D01*
G01*
X86900000Y-80135001D01*
G75*
G02*
X86650001Y-80385000I-249999J0D01*
G01*
G37*
G36*
G01*
X86650001Y-78560000D02*
X85749999Y-78560000D01*
G75*
G02*
X85500000Y-78310001I0J249999D01*
G01*
X85500000Y-77784999D01*
G75*
G02*
X85749999Y-77535000I249999J0D01*
G01*
X86650001Y-77535000D01*
G75*
G02*
X86900000Y-77784999I0J-249999D01*
G01*
X86900000Y-78310001D01*
G75*
G02*
X86650001Y-78560000I-249999J0D01*
G01*
G37*
D15*
X83900000Y-71500000D03*
X86900000Y-71500000D03*
X89900000Y-71500000D03*
G36*
G01*
X93650000Y-70740000D02*
X93650000Y-72260000D01*
G75*
G02*
X93400000Y-72510000I-250000J0D01*
G01*
X92400000Y-72510000D01*
G75*
G02*
X92150000Y-72260000I0J250000D01*
G01*
X92150000Y-70740000D01*
G75*
G02*
X92400000Y-70490000I250000J0D01*
G01*
X93400000Y-70490000D01*
G75*
G02*
X93650000Y-70740000I0J-250000D01*
G01*
G37*
D13*
X80900000Y-73460000D03*
X95900000Y-73460000D03*
G36*
G01*
X88440000Y-75025000D02*
X88440000Y-75975000D01*
G75*
G02*
X88190000Y-76225000I-250000J0D01*
G01*
X87690000Y-76225000D01*
G75*
G02*
X87440000Y-75975000I0J250000D01*
G01*
X87440000Y-75025000D01*
G75*
G02*
X87690000Y-74775000I250000J0D01*
G01*
X88190000Y-74775000D01*
G75*
G02*
X88440000Y-75025000I0J-250000D01*
G01*
G37*
G36*
G01*
X86540000Y-75025000D02*
X86540000Y-75975000D01*
G75*
G02*
X86290000Y-76225000I-250000J0D01*
G01*
X85790000Y-76225000D01*
G75*
G02*
X85540000Y-75975000I0J250000D01*
G01*
X85540000Y-75025000D01*
G75*
G02*
X85790000Y-74775000I250000J0D01*
G01*
X86290000Y-74775000D01*
G75*
G02*
X86540000Y-75025000I0J-250000D01*
G01*
G37*
G36*
G01*
X94225000Y-80860000D02*
X93275000Y-80860000D01*
G75*
G02*
X93025000Y-80610000I0J250000D01*
G01*
X93025000Y-80110000D01*
G75*
G02*
X93275000Y-79860000I250000J0D01*
G01*
X94225000Y-79860000D01*
G75*
G02*
X94475000Y-80110000I0J-250000D01*
G01*
X94475000Y-80610000D01*
G75*
G02*
X94225000Y-80860000I-250000J0D01*
G01*
G37*
G36*
G01*
X94225000Y-78960000D02*
X93275000Y-78960000D01*
G75*
G02*
X93025000Y-78710000I0J250000D01*
G01*
X93025000Y-78210000D01*
G75*
G02*
X93275000Y-77960000I250000J0D01*
G01*
X94225000Y-77960000D01*
G75*
G02*
X94475000Y-78210000I0J-250000D01*
G01*
X94475000Y-78710000D01*
G75*
G02*
X94225000Y-78960000I-250000J0D01*
G01*
G37*
G36*
G01*
X29870001Y-78870000D02*
X28969999Y-78870000D01*
G75*
G02*
X28720000Y-78620001I0J249999D01*
G01*
X28720000Y-78094999D01*
G75*
G02*
X28969999Y-77845000I249999J0D01*
G01*
X29870001Y-77845000D01*
G75*
G02*
X30120000Y-78094999I0J-249999D01*
G01*
X30120000Y-78620001D01*
G75*
G02*
X29870001Y-78870000I-249999J0D01*
G01*
G37*
G36*
G01*
X29870001Y-80695000D02*
X28969999Y-80695000D01*
G75*
G02*
X28720000Y-80445001I0J249999D01*
G01*
X28720000Y-79919999D01*
G75*
G02*
X28969999Y-79670000I249999J0D01*
G01*
X29870001Y-79670000D01*
G75*
G02*
X30120000Y-79919999I0J-249999D01*
G01*
X30120000Y-80445001D01*
G75*
G02*
X29870001Y-80695000I-249999J0D01*
G01*
G37*
X39160000Y-73800000D03*
X24160000Y-73800000D03*
G36*
G01*
X36910000Y-71080000D02*
X36910000Y-72600000D01*
G75*
G02*
X36660000Y-72850000I-250000J0D01*
G01*
X35660000Y-72850000D01*
G75*
G02*
X35410000Y-72600000I0J250000D01*
G01*
X35410000Y-71080000D01*
G75*
G02*
X35660000Y-70830000I250000J0D01*
G01*
X36660000Y-70830000D01*
G75*
G02*
X36910000Y-71080000I0J-250000D01*
G01*
G37*
D15*
X33160000Y-71840000D03*
X30160000Y-71840000D03*
X27160000Y-71840000D03*
G36*
G01*
X29760000Y-75325000D02*
X29760000Y-76275000D01*
G75*
G02*
X29510000Y-76525000I-250000J0D01*
G01*
X29010000Y-76525000D01*
G75*
G02*
X28760000Y-76275000I0J250000D01*
G01*
X28760000Y-75325000D01*
G75*
G02*
X29010000Y-75075000I250000J0D01*
G01*
X29510000Y-75075000D01*
G75*
G02*
X29760000Y-75325000I0J-250000D01*
G01*
G37*
G36*
G01*
X31660000Y-75325000D02*
X31660000Y-76275000D01*
G75*
G02*
X31410000Y-76525000I-250000J0D01*
G01*
X30910000Y-76525000D01*
G75*
G02*
X30660000Y-76275000I0J250000D01*
G01*
X30660000Y-75325000D01*
G75*
G02*
X30910000Y-75075000I250000J0D01*
G01*
X31410000Y-75075000D01*
G75*
G02*
X31660000Y-75325000I0J-250000D01*
G01*
G37*
G36*
G01*
X37435000Y-79250000D02*
X36485000Y-79250000D01*
G75*
G02*
X36235000Y-79000000I0J250000D01*
G01*
X36235000Y-78500000D01*
G75*
G02*
X36485000Y-78250000I250000J0D01*
G01*
X37435000Y-78250000D01*
G75*
G02*
X37685000Y-78500000I0J-250000D01*
G01*
X37685000Y-79000000D01*
G75*
G02*
X37435000Y-79250000I-250000J0D01*
G01*
G37*
G36*
G01*
X37435000Y-81150000D02*
X36485000Y-81150000D01*
G75*
G02*
X36235000Y-80900000I0J250000D01*
G01*
X36235000Y-80400000D01*
G75*
G02*
X36485000Y-80150000I250000J0D01*
G01*
X37435000Y-80150000D01*
G75*
G02*
X37685000Y-80400000I0J-250000D01*
G01*
X37685000Y-80900000D01*
G75*
G02*
X37435000Y-81150000I-250000J0D01*
G01*
G37*
G36*
G01*
X86710001Y-60472500D02*
X85809999Y-60472500D01*
G75*
G02*
X85560000Y-60222501I0J249999D01*
G01*
X85560000Y-59697499D01*
G75*
G02*
X85809999Y-59447500I249999J0D01*
G01*
X86710001Y-59447500D01*
G75*
G02*
X86960000Y-59697499I0J-249999D01*
G01*
X86960000Y-60222501D01*
G75*
G02*
X86710001Y-60472500I-249999J0D01*
G01*
G37*
G36*
G01*
X86710001Y-62297500D02*
X85809999Y-62297500D01*
G75*
G02*
X85560000Y-62047501I0J249999D01*
G01*
X85560000Y-61522499D01*
G75*
G02*
X85809999Y-61272500I249999J0D01*
G01*
X86710001Y-61272500D01*
G75*
G02*
X86960000Y-61522499I0J-249999D01*
G01*
X86960000Y-62047501D01*
G75*
G02*
X86710001Y-62297500I-249999J0D01*
G01*
G37*
D13*
X96000000Y-55390000D03*
X81000000Y-55390000D03*
G36*
G01*
X93750000Y-52670000D02*
X93750000Y-54190000D01*
G75*
G02*
X93500000Y-54440000I-250000J0D01*
G01*
X92500000Y-54440000D01*
G75*
G02*
X92250000Y-54190000I0J250000D01*
G01*
X92250000Y-52670000D01*
G75*
G02*
X92500000Y-52420000I250000J0D01*
G01*
X93500000Y-52420000D01*
G75*
G02*
X93750000Y-52670000I0J-250000D01*
G01*
G37*
D15*
X90000000Y-53430000D03*
X87000000Y-53430000D03*
X84000000Y-53430000D03*
G36*
G01*
X86600000Y-56925000D02*
X86600000Y-57875000D01*
G75*
G02*
X86350000Y-58125000I-250000J0D01*
G01*
X85850000Y-58125000D01*
G75*
G02*
X85600000Y-57875000I0J250000D01*
G01*
X85600000Y-56925000D01*
G75*
G02*
X85850000Y-56675000I250000J0D01*
G01*
X86350000Y-56675000D01*
G75*
G02*
X86600000Y-56925000I0J-250000D01*
G01*
G37*
G36*
G01*
X88500000Y-56925000D02*
X88500000Y-57875000D01*
G75*
G02*
X88250000Y-58125000I-250000J0D01*
G01*
X87750000Y-58125000D01*
G75*
G02*
X87500000Y-57875000I0J250000D01*
G01*
X87500000Y-56925000D01*
G75*
G02*
X87750000Y-56675000I250000J0D01*
G01*
X88250000Y-56675000D01*
G75*
G02*
X88500000Y-56925000I0J-250000D01*
G01*
G37*
G36*
G01*
X94295000Y-60860000D02*
X93345000Y-60860000D01*
G75*
G02*
X93095000Y-60610000I0J250000D01*
G01*
X93095000Y-60110000D01*
G75*
G02*
X93345000Y-59860000I250000J0D01*
G01*
X94295000Y-59860000D01*
G75*
G02*
X94545000Y-60110000I0J-250000D01*
G01*
X94545000Y-60610000D01*
G75*
G02*
X94295000Y-60860000I-250000J0D01*
G01*
G37*
G36*
G01*
X94295000Y-62760000D02*
X93345000Y-62760000D01*
G75*
G02*
X93095000Y-62510000I0J250000D01*
G01*
X93095000Y-62010000D01*
G75*
G02*
X93345000Y-61760000I250000J0D01*
G01*
X94295000Y-61760000D01*
G75*
G02*
X94545000Y-62010000I0J-250000D01*
G01*
X94545000Y-62510000D01*
G75*
G02*
X94295000Y-62760000I-250000J0D01*
G01*
G37*
G36*
G01*
X29970001Y-60670000D02*
X29069999Y-60670000D01*
G75*
G02*
X28820000Y-60420001I0J249999D01*
G01*
X28820000Y-59894999D01*
G75*
G02*
X29069999Y-59645000I249999J0D01*
G01*
X29970001Y-59645000D01*
G75*
G02*
X30220000Y-59894999I0J-249999D01*
G01*
X30220000Y-60420001D01*
G75*
G02*
X29970001Y-60670000I-249999J0D01*
G01*
G37*
G36*
G01*
X29970001Y-62495000D02*
X29069999Y-62495000D01*
G75*
G02*
X28820000Y-62245001I0J249999D01*
G01*
X28820000Y-61719999D01*
G75*
G02*
X29069999Y-61470000I249999J0D01*
G01*
X29970001Y-61470000D01*
G75*
G02*
X30220000Y-61719999I0J-249999D01*
G01*
X30220000Y-62245001D01*
G75*
G02*
X29970001Y-62495000I-249999J0D01*
G01*
G37*
D13*
X39270000Y-55600000D03*
X24270000Y-55600000D03*
G36*
G01*
X37020000Y-52880000D02*
X37020000Y-54400000D01*
G75*
G02*
X36770000Y-54650000I-250000J0D01*
G01*
X35770000Y-54650000D01*
G75*
G02*
X35520000Y-54400000I0J250000D01*
G01*
X35520000Y-52880000D01*
G75*
G02*
X35770000Y-52630000I250000J0D01*
G01*
X36770000Y-52630000D01*
G75*
G02*
X37020000Y-52880000I0J-250000D01*
G01*
G37*
D15*
X33270000Y-53640000D03*
X30270000Y-53640000D03*
X27270000Y-53640000D03*
G36*
G01*
X29860000Y-57145000D02*
X29860000Y-58095000D01*
G75*
G02*
X29610000Y-58345000I-250000J0D01*
G01*
X29110000Y-58345000D01*
G75*
G02*
X28860000Y-58095000I0J250000D01*
G01*
X28860000Y-57145000D01*
G75*
G02*
X29110000Y-56895000I250000J0D01*
G01*
X29610000Y-56895000D01*
G75*
G02*
X29860000Y-57145000I0J-250000D01*
G01*
G37*
G36*
G01*
X31760000Y-57145000D02*
X31760000Y-58095000D01*
G75*
G02*
X31510000Y-58345000I-250000J0D01*
G01*
X31010000Y-58345000D01*
G75*
G02*
X30760000Y-58095000I0J250000D01*
G01*
X30760000Y-57145000D01*
G75*
G02*
X31010000Y-56895000I250000J0D01*
G01*
X31510000Y-56895000D01*
G75*
G02*
X31760000Y-57145000I0J-250000D01*
G01*
G37*
G36*
G01*
X37555000Y-61060000D02*
X36605000Y-61060000D01*
G75*
G02*
X36355000Y-60810000I0J250000D01*
G01*
X36355000Y-60310000D01*
G75*
G02*
X36605000Y-60060000I250000J0D01*
G01*
X37555000Y-60060000D01*
G75*
G02*
X37805000Y-60310000I0J-250000D01*
G01*
X37805000Y-60810000D01*
G75*
G02*
X37555000Y-61060000I-250000J0D01*
G01*
G37*
G36*
G01*
X37555000Y-62960000D02*
X36605000Y-62960000D01*
G75*
G02*
X36355000Y-62710000I0J250000D01*
G01*
X36355000Y-62210000D01*
G75*
G02*
X36605000Y-61960000I250000J0D01*
G01*
X37555000Y-61960000D01*
G75*
G02*
X37805000Y-62210000I0J-250000D01*
G01*
X37805000Y-62710000D01*
G75*
G02*
X37555000Y-62960000I-250000J0D01*
G01*
G37*
G36*
G01*
X86600001Y-44385000D02*
X85699999Y-44385000D01*
G75*
G02*
X85450000Y-44135001I0J249999D01*
G01*
X85450000Y-43609999D01*
G75*
G02*
X85699999Y-43360000I249999J0D01*
G01*
X86600001Y-43360000D01*
G75*
G02*
X86850000Y-43609999I0J-249999D01*
G01*
X86850000Y-44135001D01*
G75*
G02*
X86600001Y-44385000I-249999J0D01*
G01*
G37*
G36*
G01*
X86600001Y-42560000D02*
X85699999Y-42560000D01*
G75*
G02*
X85450000Y-42310001I0J249999D01*
G01*
X85450000Y-41784999D01*
G75*
G02*
X85699999Y-41535000I249999J0D01*
G01*
X86600001Y-41535000D01*
G75*
G02*
X86850000Y-41784999I0J-249999D01*
G01*
X86850000Y-42310001D01*
G75*
G02*
X86600001Y-42560000I-249999J0D01*
G01*
G37*
X83890000Y-35530000D03*
X86890000Y-35530000D03*
X89890000Y-35530000D03*
G36*
G01*
X93640000Y-34770000D02*
X93640000Y-36290000D01*
G75*
G02*
X93390000Y-36540000I-250000J0D01*
G01*
X92390000Y-36540000D01*
G75*
G02*
X92140000Y-36290000I0J250000D01*
G01*
X92140000Y-34770000D01*
G75*
G02*
X92390000Y-34520000I250000J0D01*
G01*
X93390000Y-34520000D01*
G75*
G02*
X93640000Y-34770000I0J-250000D01*
G01*
G37*
D13*
X80890000Y-37490000D03*
X95890000Y-37490000D03*
G36*
G01*
X88390000Y-39015000D02*
X88390000Y-39965000D01*
G75*
G02*
X88140000Y-40215000I-250000J0D01*
G01*
X87640000Y-40215000D01*
G75*
G02*
X87390000Y-39965000I0J250000D01*
G01*
X87390000Y-39015000D01*
G75*
G02*
X87640000Y-38765000I250000J0D01*
G01*
X88140000Y-38765000D01*
G75*
G02*
X88390000Y-39015000I0J-250000D01*
G01*
G37*
G36*
G01*
X86490000Y-39015000D02*
X86490000Y-39965000D01*
G75*
G02*
X86240000Y-40215000I-250000J0D01*
G01*
X85740000Y-40215000D01*
G75*
G02*
X85490000Y-39965000I0J250000D01*
G01*
X85490000Y-39015000D01*
G75*
G02*
X85740000Y-38765000I250000J0D01*
G01*
X86240000Y-38765000D01*
G75*
G02*
X86490000Y-39015000I0J-250000D01*
G01*
G37*
G36*
G01*
X94175000Y-44850000D02*
X93225000Y-44850000D01*
G75*
G02*
X92975000Y-44600000I0J250000D01*
G01*
X92975000Y-44100000D01*
G75*
G02*
X93225000Y-43850000I250000J0D01*
G01*
X94175000Y-43850000D01*
G75*
G02*
X94425000Y-44100000I0J-250000D01*
G01*
X94425000Y-44600000D01*
G75*
G02*
X94175000Y-44850000I-250000J0D01*
G01*
G37*
G36*
G01*
X94175000Y-42950000D02*
X93225000Y-42950000D01*
G75*
G02*
X92975000Y-42700000I0J250000D01*
G01*
X92975000Y-42200000D01*
G75*
G02*
X93225000Y-41950000I250000J0D01*
G01*
X94175000Y-41950000D01*
G75*
G02*
X94425000Y-42200000I0J-250000D01*
G01*
X94425000Y-42700000D01*
G75*
G02*
X94175000Y-42950000I-250000J0D01*
G01*
G37*
G36*
G01*
X68610001Y-35600000D02*
X67709999Y-35600000D01*
G75*
G02*
X67460000Y-35350001I0J249999D01*
G01*
X67460000Y-34824999D01*
G75*
G02*
X67709999Y-34575000I249999J0D01*
G01*
X68610001Y-34575000D01*
G75*
G02*
X68860000Y-34824999I0J-249999D01*
G01*
X68860000Y-35350001D01*
G75*
G02*
X68610001Y-35600000I-249999J0D01*
G01*
G37*
G36*
G01*
X68610001Y-37425000D02*
X67709999Y-37425000D01*
G75*
G02*
X67460000Y-37175001I0J249999D01*
G01*
X67460000Y-36649999D01*
G75*
G02*
X67709999Y-36400000I249999J0D01*
G01*
X68610001Y-36400000D01*
G75*
G02*
X68860000Y-36649999I0J-249999D01*
G01*
X68860000Y-37175001D01*
G75*
G02*
X68610001Y-37425000I-249999J0D01*
G01*
G37*
X77880000Y-30540000D03*
X62880000Y-30540000D03*
G36*
G01*
X75630000Y-27820000D02*
X75630000Y-29340000D01*
G75*
G02*
X75380000Y-29590000I-250000J0D01*
G01*
X74380000Y-29590000D01*
G75*
G02*
X74130000Y-29340000I0J250000D01*
G01*
X74130000Y-27820000D01*
G75*
G02*
X74380000Y-27570000I250000J0D01*
G01*
X75380000Y-27570000D01*
G75*
G02*
X75630000Y-27820000I0J-250000D01*
G01*
G37*
D15*
X71880000Y-28580000D03*
X68880000Y-28580000D03*
X65880000Y-28580000D03*
G36*
G01*
X68480000Y-32055000D02*
X68480000Y-33005000D01*
G75*
G02*
X68230000Y-33255000I-250000J0D01*
G01*
X67730000Y-33255000D01*
G75*
G02*
X67480000Y-33005000I0J250000D01*
G01*
X67480000Y-32055000D01*
G75*
G02*
X67730000Y-31805000I250000J0D01*
G01*
X68230000Y-31805000D01*
G75*
G02*
X68480000Y-32055000I0J-250000D01*
G01*
G37*
G36*
G01*
X70380000Y-32055000D02*
X70380000Y-33005000D01*
G75*
G02*
X70130000Y-33255000I-250000J0D01*
G01*
X69630000Y-33255000D01*
G75*
G02*
X69380000Y-33005000I0J250000D01*
G01*
X69380000Y-32055000D01*
G75*
G02*
X69630000Y-31805000I250000J0D01*
G01*
X70130000Y-31805000D01*
G75*
G02*
X70380000Y-32055000I0J-250000D01*
G01*
G37*
G36*
G01*
X76165000Y-35990000D02*
X75215000Y-35990000D01*
G75*
G02*
X74965000Y-35740000I0J250000D01*
G01*
X74965000Y-35240000D01*
G75*
G02*
X75215000Y-34990000I250000J0D01*
G01*
X76165000Y-34990000D01*
G75*
G02*
X76415000Y-35240000I0J-250000D01*
G01*
X76415000Y-35740000D01*
G75*
G02*
X76165000Y-35990000I-250000J0D01*
G01*
G37*
G36*
G01*
X76165000Y-37890000D02*
X75215000Y-37890000D01*
G75*
G02*
X74965000Y-37640000I0J250000D01*
G01*
X74965000Y-37140000D01*
G75*
G02*
X75215000Y-36890000I250000J0D01*
G01*
X76165000Y-36890000D01*
G75*
G02*
X76415000Y-37140000I0J-250000D01*
G01*
X76415000Y-37640000D01*
G75*
G02*
X76165000Y-37890000I-250000J0D01*
G01*
G37*
G36*
G01*
X48000001Y-35560000D02*
X47099999Y-35560000D01*
G75*
G02*
X46850000Y-35310001I0J249999D01*
G01*
X46850000Y-34784999D01*
G75*
G02*
X47099999Y-34535000I249999J0D01*
G01*
X48000001Y-34535000D01*
G75*
G02*
X48250000Y-34784999I0J-249999D01*
G01*
X48250000Y-35310001D01*
G75*
G02*
X48000001Y-35560000I-249999J0D01*
G01*
G37*
G36*
G01*
X48000001Y-37385000D02*
X47099999Y-37385000D01*
G75*
G02*
X46850000Y-37135001I0J249999D01*
G01*
X46850000Y-36609999D01*
G75*
G02*
X47099999Y-36360000I249999J0D01*
G01*
X48000001Y-36360000D01*
G75*
G02*
X48250000Y-36609999I0J-249999D01*
G01*
X48250000Y-37135001D01*
G75*
G02*
X48000001Y-37385000I-249999J0D01*
G01*
G37*
D13*
X57290000Y-30510000D03*
X42290000Y-30510000D03*
G36*
G01*
X55040000Y-27790000D02*
X55040000Y-29310000D01*
G75*
G02*
X54790000Y-29560000I-250000J0D01*
G01*
X53790000Y-29560000D01*
G75*
G02*
X53540000Y-29310000I0J250000D01*
G01*
X53540000Y-27790000D01*
G75*
G02*
X53790000Y-27540000I250000J0D01*
G01*
X54790000Y-27540000D01*
G75*
G02*
X55040000Y-27790000I0J-250000D01*
G01*
G37*
D15*
X51290000Y-28550000D03*
X48290000Y-28550000D03*
X45290000Y-28550000D03*
G36*
G01*
X47880000Y-32005000D02*
X47880000Y-32955000D01*
G75*
G02*
X47630000Y-33205000I-250000J0D01*
G01*
X47130000Y-33205000D01*
G75*
G02*
X46880000Y-32955000I0J250000D01*
G01*
X46880000Y-32005000D01*
G75*
G02*
X47130000Y-31755000I250000J0D01*
G01*
X47630000Y-31755000D01*
G75*
G02*
X47880000Y-32005000I0J-250000D01*
G01*
G37*
G36*
G01*
X49780000Y-32005000D02*
X49780000Y-32955000D01*
G75*
G02*
X49530000Y-33205000I-250000J0D01*
G01*
X49030000Y-33205000D01*
G75*
G02*
X48780000Y-32955000I0J250000D01*
G01*
X48780000Y-32005000D01*
G75*
G02*
X49030000Y-31755000I250000J0D01*
G01*
X49530000Y-31755000D01*
G75*
G02*
X49780000Y-32005000I0J-250000D01*
G01*
G37*
G36*
G01*
X55565000Y-35930000D02*
X54615000Y-35930000D01*
G75*
G02*
X54365000Y-35680000I0J250000D01*
G01*
X54365000Y-35180000D01*
G75*
G02*
X54615000Y-34930000I250000J0D01*
G01*
X55565000Y-34930000D01*
G75*
G02*
X55815000Y-35180000I0J-250000D01*
G01*
X55815000Y-35680000D01*
G75*
G02*
X55565000Y-35930000I-250000J0D01*
G01*
G37*
G36*
G01*
X55565000Y-37830000D02*
X54615000Y-37830000D01*
G75*
G02*
X54365000Y-37580000I0J250000D01*
G01*
X54365000Y-37080000D01*
G75*
G02*
X54615000Y-36830000I250000J0D01*
G01*
X55565000Y-36830000D01*
G75*
G02*
X55815000Y-37080000I0J-250000D01*
G01*
X55815000Y-37580000D01*
G75*
G02*
X55565000Y-37830000I-250000J0D01*
G01*
G37*
G36*
G01*
X30100001Y-42600000D02*
X29199999Y-42600000D01*
G75*
G02*
X28950000Y-42350001I0J249999D01*
G01*
X28950000Y-41824999D01*
G75*
G02*
X29199999Y-41575000I249999J0D01*
G01*
X30100001Y-41575000D01*
G75*
G02*
X30350000Y-41824999I0J-249999D01*
G01*
X30350000Y-42350001D01*
G75*
G02*
X30100001Y-42600000I-249999J0D01*
G01*
G37*
G36*
G01*
X30100001Y-44425000D02*
X29199999Y-44425000D01*
G75*
G02*
X28950000Y-44175001I0J249999D01*
G01*
X28950000Y-43649999D01*
G75*
G02*
X29199999Y-43400000I249999J0D01*
G01*
X30100001Y-43400000D01*
G75*
G02*
X30350000Y-43649999I0J-249999D01*
G01*
X30350000Y-44175001D01*
G75*
G02*
X30100001Y-44425000I-249999J0D01*
G01*
G37*
D13*
X39240000Y-37510000D03*
X24240000Y-37510000D03*
G36*
G01*
X36990000Y-34790000D02*
X36990000Y-36310000D01*
G75*
G02*
X36740000Y-36560000I-250000J0D01*
G01*
X35740000Y-36560000D01*
G75*
G02*
X35490000Y-36310000I0J250000D01*
G01*
X35490000Y-34790000D01*
G75*
G02*
X35740000Y-34540000I250000J0D01*
G01*
X36740000Y-34540000D01*
G75*
G02*
X36990000Y-34790000I0J-250000D01*
G01*
G37*
D15*
X33240000Y-35550000D03*
X30240000Y-35550000D03*
X27240000Y-35550000D03*
G36*
G01*
X29950000Y-39035000D02*
X29950000Y-39985000D01*
G75*
G02*
X29700000Y-40235000I-250000J0D01*
G01*
X29200000Y-40235000D01*
G75*
G02*
X28950000Y-39985000I0J250000D01*
G01*
X28950000Y-39035000D01*
G75*
G02*
X29200000Y-38785000I250000J0D01*
G01*
X29700000Y-38785000D01*
G75*
G02*
X29950000Y-39035000I0J-250000D01*
G01*
G37*
G36*
G01*
X31850000Y-39035000D02*
X31850000Y-39985000D01*
G75*
G02*
X31600000Y-40235000I-250000J0D01*
G01*
X31100000Y-40235000D01*
G75*
G02*
X30850000Y-39985000I0J250000D01*
G01*
X30850000Y-39035000D01*
G75*
G02*
X31100000Y-38785000I250000J0D01*
G01*
X31600000Y-38785000D01*
G75*
G02*
X31850000Y-39035000I0J-250000D01*
G01*
G37*
G36*
G01*
X37585000Y-43040000D02*
X36635000Y-43040000D01*
G75*
G02*
X36385000Y-42790000I0J250000D01*
G01*
X36385000Y-42290000D01*
G75*
G02*
X36635000Y-42040000I250000J0D01*
G01*
X37585000Y-42040000D01*
G75*
G02*
X37835000Y-42290000I0J-250000D01*
G01*
X37835000Y-42790000D01*
G75*
G02*
X37585000Y-43040000I-250000J0D01*
G01*
G37*
G36*
G01*
X37585000Y-44940000D02*
X36635000Y-44940000D01*
G75*
G02*
X36385000Y-44690000I0J250000D01*
G01*
X36385000Y-44190000D01*
G75*
G02*
X36635000Y-43940000I250000J0D01*
G01*
X37585000Y-43940000D01*
G75*
G02*
X37835000Y-44190000I0J-250000D01*
G01*
X37835000Y-44690000D01*
G75*
G02*
X37585000Y-44940000I-250000J0D01*
G01*
G37*
D16*
X24800000Y-90810000D03*
D17*
X27340000Y-90810000D03*
X29880000Y-90810000D03*
X34960000Y-90810000D03*
X37500000Y-90810000D03*
X40040000Y-90810000D03*
X42580000Y-90810000D03*
D18*
X52380000Y-83615000D03*
D19*
X52380000Y-81075000D03*
X52380000Y-78535000D03*
X52380000Y-75995000D03*
X52380000Y-73455000D03*
X52380000Y-70915000D03*
X52380000Y-68375000D03*
X52380000Y-65835000D03*
X52380000Y-63295000D03*
X52380000Y-60755000D03*
X52380000Y-58215000D03*
X52380000Y-55675000D03*
X52380000Y-53135000D03*
X52380000Y-50595000D03*
X52380000Y-48055000D03*
D18*
X67620000Y-83615000D03*
D19*
X67620000Y-81075000D03*
X67620000Y-78535000D03*
X67620000Y-75995000D03*
X67620000Y-73455000D03*
X67620000Y-70915000D03*
X67620000Y-68375000D03*
X67620000Y-65835000D03*
X67620000Y-63295000D03*
X67620000Y-60755000D03*
X67620000Y-58215000D03*
X67620000Y-55675000D03*
X67620000Y-53135000D03*
X67620000Y-50595000D03*
X67620000Y-48055000D03*
D12*
X41880000Y-103300000D03*
X40850000Y-108920000D03*
X24540000Y-106150000D03*
X33160000Y-101590000D03*
D20*
X90500000Y-86000000D03*
X95000000Y-86000000D03*
X90500000Y-92500000D03*
X95000000Y-92500000D03*
G36*
G01*
X44490001Y-76270000D02*
X43589999Y-76270000D01*
G75*
G02*
X43340000Y-76020001I0J249999D01*
G01*
X43340000Y-75494999D01*
G75*
G02*
X43589999Y-75245000I249999J0D01*
G01*
X44490001Y-75245000D01*
G75*
G02*
X44740000Y-75494999I0J-249999D01*
G01*
X44740000Y-76020001D01*
G75*
G02*
X44490001Y-76270000I-249999J0D01*
G01*
G37*
G36*
G01*
X44490001Y-78095000D02*
X43589999Y-78095000D01*
G75*
G02*
X43340000Y-77845001I0J249999D01*
G01*
X43340000Y-77319999D01*
G75*
G02*
X43589999Y-77070000I249999J0D01*
G01*
X44490001Y-77070000D01*
G75*
G02*
X44740000Y-77319999I0J-249999D01*
G01*
X44740000Y-77845001D01*
G75*
G02*
X44490001Y-78095000I-249999J0D01*
G01*
G37*
G36*
G01*
X43139999Y-60060000D02*
X44040001Y-60060000D01*
G75*
G02*
X44290000Y-60309999I0J-249999D01*
G01*
X44290000Y-60835001D01*
G75*
G02*
X44040001Y-61085000I-249999J0D01*
G01*
X43139999Y-61085000D01*
G75*
G02*
X42890000Y-60835001I0J249999D01*
G01*
X42890000Y-60309999D01*
G75*
G02*
X43139999Y-60060000I249999J0D01*
G01*
G37*
G36*
G01*
X43139999Y-58235000D02*
X44040001Y-58235000D01*
G75*
G02*
X44290000Y-58484999I0J-249999D01*
G01*
X44290000Y-59010001D01*
G75*
G02*
X44040001Y-59260000I-249999J0D01*
G01*
X43139999Y-59260000D01*
G75*
G02*
X42890000Y-59010001I0J249999D01*
G01*
X42890000Y-58484999D01*
G75*
G02*
X43139999Y-58235000I249999J0D01*
G01*
G37*
G36*
G01*
X35840001Y-114187500D02*
X34939999Y-114187500D01*
G75*
G02*
X34690000Y-113937501I0J249999D01*
G01*
X34690000Y-113412499D01*
G75*
G02*
X34939999Y-113162500I249999J0D01*
G01*
X35840001Y-113162500D01*
G75*
G02*
X36090000Y-113412499I0J-249999D01*
G01*
X36090000Y-113937501D01*
G75*
G02*
X35840001Y-114187500I-249999J0D01*
G01*
G37*
G36*
G01*
X35840001Y-116012500D02*
X34939999Y-116012500D01*
G75*
G02*
X34690000Y-115762501I0J249999D01*
G01*
X34690000Y-115237499D01*
G75*
G02*
X34939999Y-114987500I249999J0D01*
G01*
X35840001Y-114987500D01*
G75*
G02*
X36090000Y-115237499I0J-249999D01*
G01*
X36090000Y-115762501D01*
G75*
G02*
X35840001Y-116012500I-249999J0D01*
G01*
G37*
G36*
G01*
X85910000Y-90029999D02*
X85910000Y-90930001D01*
G75*
G02*
X85660001Y-91180000I-249999J0D01*
G01*
X85134999Y-91180000D01*
G75*
G02*
X84885000Y-90930001I0J249999D01*
G01*
X84885000Y-90029999D01*
G75*
G02*
X85134999Y-89780000I249999J0D01*
G01*
X85660001Y-89780000D01*
G75*
G02*
X85910000Y-90029999I0J-249999D01*
G01*
G37*
G36*
G01*
X87735000Y-90029999D02*
X87735000Y-90930001D01*
G75*
G02*
X87485001Y-91180000I-249999J0D01*
G01*
X86959999Y-91180000D01*
G75*
G02*
X86710000Y-90930001I0J249999D01*
G01*
X86710000Y-90029999D01*
G75*
G02*
X86959999Y-89780000I249999J0D01*
G01*
X87485001Y-89780000D01*
G75*
G02*
X87735000Y-90029999I0J-249999D01*
G01*
G37*
G36*
G01*
X30601250Y-99460000D02*
X29838750Y-99460000D01*
G75*
G02*
X29620000Y-99241250I0J218750D01*
G01*
X29620000Y-98803750D01*
G75*
G02*
X29838750Y-98585000I218750J0D01*
G01*
X30601250Y-98585000D01*
G75*
G02*
X30820000Y-98803750I0J-218750D01*
G01*
X30820000Y-99241250D01*
G75*
G02*
X30601250Y-99460000I-218750J0D01*
G01*
G37*
G36*
G01*
X30601250Y-97335000D02*
X29838750Y-97335000D01*
G75*
G02*
X29620000Y-97116250I0J218750D01*
G01*
X29620000Y-96678750D01*
G75*
G02*
X29838750Y-96460000I218750J0D01*
G01*
X30601250Y-96460000D01*
G75*
G02*
X30820000Y-96678750I0J-218750D01*
G01*
X30820000Y-97116250D01*
G75*
G02*
X30601250Y-97335000I-218750J0D01*
G01*
G37*
D15*
X30950000Y-108120000D03*
G36*
G01*
X34700000Y-107360000D02*
X34700000Y-108880000D01*
G75*
G02*
X34450000Y-109130000I-250000J0D01*
G01*
X33450000Y-109130000D01*
G75*
G02*
X33200000Y-108880000I0J250000D01*
G01*
X33200000Y-107360000D01*
G75*
G02*
X33450000Y-107110000I250000J0D01*
G01*
X34450000Y-107110000D01*
G75*
G02*
X34700000Y-107360000I0J-250000D01*
G01*
G37*
D13*
X27950000Y-110080000D03*
X36950000Y-110080000D03*
X97392000Y-101620000D03*
X88392000Y-101620000D03*
G36*
G01*
X95142000Y-98900000D02*
X95142000Y-100420000D01*
G75*
G02*
X94892000Y-100670000I-250000J0D01*
G01*
X93892000Y-100670000D01*
G75*
G02*
X93642000Y-100420000I0J250000D01*
G01*
X93642000Y-98900000D01*
G75*
G02*
X93892000Y-98650000I250000J0D01*
G01*
X94892000Y-98650000D01*
G75*
G02*
X95142000Y-98900000I0J-250000D01*
G01*
G37*
D15*
X91392000Y-99660000D03*
G36*
G01*
X37100000Y-100070001D02*
X37100000Y-97869999D01*
G75*
G02*
X37349999Y-97620000I249999J0D01*
G01*
X38000001Y-97620000D01*
G75*
G02*
X38250000Y-97869999I0J-249999D01*
G01*
X38250000Y-100070001D01*
G75*
G02*
X38000001Y-100320000I-249999J0D01*
G01*
X37349999Y-100320000D01*
G75*
G02*
X37100000Y-100070001I0J249999D01*
G01*
G37*
G36*
G01*
X40050000Y-100070001D02*
X40050000Y-97869999D01*
G75*
G02*
X40299999Y-97620000I249999J0D01*
G01*
X40950001Y-97620000D01*
G75*
G02*
X41200000Y-97869999I0J-249999D01*
G01*
X41200000Y-100070001D01*
G75*
G02*
X40950001Y-100320000I-249999J0D01*
G01*
X40299999Y-100320000D01*
G75*
G02*
X40050000Y-100070001I0J249999D01*
G01*
G37*
G36*
G01*
X40160000Y-95775000D02*
X40160000Y-94825000D01*
G75*
G02*
X40410000Y-94575000I250000J0D01*
G01*
X40910000Y-94575000D01*
G75*
G02*
X41160000Y-94825000I0J-250000D01*
G01*
X41160000Y-95775000D01*
G75*
G02*
X40910000Y-96025000I-250000J0D01*
G01*
X40410000Y-96025000D01*
G75*
G02*
X40160000Y-95775000I0J250000D01*
G01*
G37*
G36*
G01*
X42060000Y-95775000D02*
X42060000Y-94825000D01*
G75*
G02*
X42310000Y-94575000I250000J0D01*
G01*
X42810000Y-94575000D01*
G75*
G02*
X43060000Y-94825000I0J-250000D01*
G01*
X43060000Y-95775000D01*
G75*
G02*
X42810000Y-96025000I-250000J0D01*
G01*
X42310000Y-96025000D01*
G75*
G02*
X42060000Y-95775000I0J250000D01*
G01*
G37*
G36*
G01*
X28080000Y-94809999D02*
X28080000Y-97010001D01*
G75*
G02*
X27830001Y-97260000I-249999J0D01*
G01*
X27179999Y-97260000D01*
G75*
G02*
X26930000Y-97010001I0J249999D01*
G01*
X26930000Y-94809999D01*
G75*
G02*
X27179999Y-94560000I249999J0D01*
G01*
X27830001Y-94560000D01*
G75*
G02*
X28080000Y-94809999I0J-249999D01*
G01*
G37*
G36*
G01*
X25130000Y-94809999D02*
X25130000Y-97010001D01*
G75*
G02*
X24880001Y-97260000I-249999J0D01*
G01*
X24229999Y-97260000D01*
G75*
G02*
X23980000Y-97010001I0J249999D01*
G01*
X23980000Y-94809999D01*
G75*
G02*
X24229999Y-94560000I249999J0D01*
G01*
X24880001Y-94560000D01*
G75*
G02*
X25130000Y-94809999I0J-249999D01*
G01*
G37*
G36*
G01*
X28100000Y-99069999D02*
X28100000Y-101270001D01*
G75*
G02*
X27850001Y-101520000I-249999J0D01*
G01*
X27199999Y-101520000D01*
G75*
G02*
X26950000Y-101270001I0J249999D01*
G01*
X26950000Y-99069999D01*
G75*
G02*
X27199999Y-98820000I249999J0D01*
G01*
X27850001Y-98820000D01*
G75*
G02*
X28100000Y-99069999I0J-249999D01*
G01*
G37*
G36*
G01*
X25150000Y-99069999D02*
X25150000Y-101270001D01*
G75*
G02*
X24900001Y-101520000I-249999J0D01*
G01*
X24249999Y-101520000D01*
G75*
G02*
X24000000Y-101270001I0J249999D01*
G01*
X24000000Y-99069999D01*
G75*
G02*
X24249999Y-98820000I249999J0D01*
G01*
X24900001Y-98820000D01*
G75*
G02*
X25150000Y-99069999I0J-249999D01*
G01*
G37*
D13*
X97442000Y-110370000D03*
X88442000Y-110370000D03*
G36*
G01*
X95192000Y-107650000D02*
X95192000Y-109170000D01*
G75*
G02*
X94942000Y-109420000I-250000J0D01*
G01*
X93942000Y-109420000D01*
G75*
G02*
X93692000Y-109170000I0J250000D01*
G01*
X93692000Y-107650000D01*
G75*
G02*
X93942000Y-107400000I250000J0D01*
G01*
X94942000Y-107400000D01*
G75*
G02*
X95192000Y-107650000I0J-250000D01*
G01*
G37*
D15*
X91442000Y-108410000D03*
D12*
X48530000Y-97670000D03*
X53550000Y-97700000D03*
G36*
G01*
X42550001Y-114157500D02*
X41649999Y-114157500D01*
G75*
G02*
X41400000Y-113907501I0J249999D01*
G01*
X41400000Y-113382499D01*
G75*
G02*
X41649999Y-113132500I249999J0D01*
G01*
X42550001Y-113132500D01*
G75*
G02*
X42800000Y-113382499I0J-249999D01*
G01*
X42800000Y-113907501D01*
G75*
G02*
X42550001Y-114157500I-249999J0D01*
G01*
G37*
G36*
G01*
X42550001Y-115982500D02*
X41649999Y-115982500D01*
G75*
G02*
X41400000Y-115732501I0J249999D01*
G01*
X41400000Y-115207499D01*
G75*
G02*
X41649999Y-114957500I249999J0D01*
G01*
X42550001Y-114957500D01*
G75*
G02*
X42800000Y-115207499I0J-249999D01*
G01*
X42800000Y-115732501D01*
G75*
G02*
X42550001Y-115982500I-249999J0D01*
G01*
G37*
G36*
G01*
X76850001Y-55160000D02*
X75949999Y-55160000D01*
G75*
G02*
X75700000Y-54910001I0J249999D01*
G01*
X75700000Y-54384999D01*
G75*
G02*
X75949999Y-54135000I249999J0D01*
G01*
X76850001Y-54135000D01*
G75*
G02*
X77100000Y-54384999I0J-249999D01*
G01*
X77100000Y-54910001D01*
G75*
G02*
X76850001Y-55160000I-249999J0D01*
G01*
G37*
G36*
G01*
X76850001Y-56985000D02*
X75949999Y-56985000D01*
G75*
G02*
X75700000Y-56735001I0J249999D01*
G01*
X75700000Y-56209999D01*
G75*
G02*
X75949999Y-55960000I249999J0D01*
G01*
X76850001Y-55960000D01*
G75*
G02*
X77100000Y-56209999I0J-249999D01*
G01*
X77100000Y-56735001D01*
G75*
G02*
X76850001Y-56985000I-249999J0D01*
G01*
G37*
G36*
G01*
X76550001Y-79045000D02*
X75649999Y-79045000D01*
G75*
G02*
X75400000Y-78795001I0J249999D01*
G01*
X75400000Y-78269999D01*
G75*
G02*
X75649999Y-78020000I249999J0D01*
G01*
X76550001Y-78020000D01*
G75*
G02*
X76800000Y-78269999I0J-249999D01*
G01*
X76800000Y-78795001D01*
G75*
G02*
X76550001Y-79045000I-249999J0D01*
G01*
G37*
G36*
G01*
X76550001Y-77220000D02*
X75649999Y-77220000D01*
G75*
G02*
X75400000Y-76970001I0J249999D01*
G01*
X75400000Y-76444999D01*
G75*
G02*
X75649999Y-76195000I249999J0D01*
G01*
X76550001Y-76195000D01*
G75*
G02*
X76800000Y-76444999I0J-249999D01*
G01*
X76800000Y-76970001D01*
G75*
G02*
X76550001Y-77220000I-249999J0D01*
G01*
G37*
G36*
G01*
X47085000Y-110160000D02*
X48035000Y-110160000D01*
G75*
G02*
X48285000Y-110410000I0J-250000D01*
G01*
X48285000Y-110910000D01*
G75*
G02*
X48035000Y-111160000I-250000J0D01*
G01*
X47085000Y-111160000D01*
G75*
G02*
X46835000Y-110910000I0J250000D01*
G01*
X46835000Y-110410000D01*
G75*
G02*
X47085000Y-110160000I250000J0D01*
G01*
G37*
G36*
G01*
X47085000Y-108260000D02*
X48035000Y-108260000D01*
G75*
G02*
X48285000Y-108510000I0J-250000D01*
G01*
X48285000Y-109010000D01*
G75*
G02*
X48035000Y-109260000I-250000J0D01*
G01*
X47085000Y-109260000D01*
G75*
G02*
X46835000Y-109010000I0J250000D01*
G01*
X46835000Y-108510000D01*
G75*
G02*
X47085000Y-108260000I250000J0D01*
G01*
G37*
G36*
G01*
X48065000Y-104840000D02*
X47115000Y-104840000D01*
G75*
G02*
X46865000Y-104590000I0J250000D01*
G01*
X46865000Y-104090000D01*
G75*
G02*
X47115000Y-103840000I250000J0D01*
G01*
X48065000Y-103840000D01*
G75*
G02*
X48315000Y-104090000I0J-250000D01*
G01*
X48315000Y-104590000D01*
G75*
G02*
X48065000Y-104840000I-250000J0D01*
G01*
G37*
G36*
G01*
X48065000Y-106740000D02*
X47115000Y-106740000D01*
G75*
G02*
X46865000Y-106490000I0J250000D01*
G01*
X46865000Y-105990000D01*
G75*
G02*
X47115000Y-105740000I250000J0D01*
G01*
X48065000Y-105740000D01*
G75*
G02*
X48315000Y-105990000I0J-250000D01*
G01*
X48315000Y-106490000D01*
G75*
G02*
X48065000Y-106740000I-250000J0D01*
G01*
G37*
G36*
G01*
X55653750Y-115667500D02*
X56566250Y-115667500D01*
G75*
G02*
X56810000Y-115911250I0J-243750D01*
G01*
X56810000Y-116398750D01*
G75*
G02*
X56566250Y-116642500I-243750J0D01*
G01*
X55653750Y-116642500D01*
G75*
G02*
X55410000Y-116398750I0J243750D01*
G01*
X55410000Y-115911250D01*
G75*
G02*
X55653750Y-115667500I243750J0D01*
G01*
G37*
G36*
G01*
X55653750Y-113792500D02*
X56566250Y-113792500D01*
G75*
G02*
X56810000Y-114036250I0J-243750D01*
G01*
X56810000Y-114523750D01*
G75*
G02*
X56566250Y-114767500I-243750J0D01*
G01*
X55653750Y-114767500D01*
G75*
G02*
X55410000Y-114523750I0J243750D01*
G01*
X55410000Y-114036250D01*
G75*
G02*
X55653750Y-113792500I243750J0D01*
G01*
G37*
X63680000Y-97670000D03*
G36*
G01*
X66495000Y-103993750D02*
X66495000Y-104906250D01*
G75*
G02*
X66251250Y-105150000I-243750J0D01*
G01*
X65763750Y-105150000D01*
G75*
G02*
X65520000Y-104906250I0J243750D01*
G01*
X65520000Y-103993750D01*
G75*
G02*
X65763750Y-103750000I243750J0D01*
G01*
X66251250Y-103750000D01*
G75*
G02*
X66495000Y-103993750I0J-243750D01*
G01*
G37*
G36*
G01*
X64620000Y-103993750D02*
X64620000Y-104906250D01*
G75*
G02*
X64376250Y-105150000I-243750J0D01*
G01*
X63888750Y-105150000D01*
G75*
G02*
X63645000Y-104906250I0J243750D01*
G01*
X63645000Y-103993750D01*
G75*
G02*
X63888750Y-103750000I243750J0D01*
G01*
X64376250Y-103750000D01*
G75*
G02*
X64620000Y-103993750I0J-243750D01*
G01*
G37*
G36*
G01*
X66415000Y-106933750D02*
X66415000Y-107846250D01*
G75*
G02*
X66171250Y-108090000I-243750J0D01*
G01*
X65683750Y-108090000D01*
G75*
G02*
X65440000Y-107846250I0J243750D01*
G01*
X65440000Y-106933750D01*
G75*
G02*
X65683750Y-106690000I243750J0D01*
G01*
X66171250Y-106690000D01*
G75*
G02*
X66415000Y-106933750I0J-243750D01*
G01*
G37*
G36*
G01*
X64540000Y-106933750D02*
X64540000Y-107846250D01*
G75*
G02*
X64296250Y-108090000I-243750J0D01*
G01*
X63808750Y-108090000D01*
G75*
G02*
X63565000Y-107846250I0J243750D01*
G01*
X63565000Y-106933750D01*
G75*
G02*
X63808750Y-106690000I243750J0D01*
G01*
X64296250Y-106690000D01*
G75*
G02*
X64540000Y-106933750I0J-243750D01*
G01*
G37*
D21*
X95000000Y-115000000D03*
X25000000Y-115000000D03*
X95000000Y-25000000D03*
X25000000Y-25000000D03*
D12*
X83920000Y-97720000D03*
X73800000Y-97720000D03*
X58580000Y-97720000D03*
X68680000Y-97620000D03*
G36*
G01*
X66275000Y-115663750D02*
X66275000Y-116576250D01*
G75*
G02*
X66031250Y-116820000I-243750J0D01*
G01*
X65543750Y-116820000D01*
G75*
G02*
X65300000Y-116576250I0J243750D01*
G01*
X65300000Y-115663750D01*
G75*
G02*
X65543750Y-115420000I243750J0D01*
G01*
X66031250Y-115420000D01*
G75*
G02*
X66275000Y-115663750I0J-243750D01*
G01*
G37*
G36*
G01*
X64400000Y-115663750D02*
X64400000Y-116576250D01*
G75*
G02*
X64156250Y-116820000I-243750J0D01*
G01*
X63668750Y-116820000D01*
G75*
G02*
X63425000Y-116576250I0J243750D01*
G01*
X63425000Y-115663750D01*
G75*
G02*
X63668750Y-115420000I243750J0D01*
G01*
X64156250Y-115420000D01*
G75*
G02*
X64400000Y-115663750I0J-243750D01*
G01*
G37*
G36*
G01*
X66302500Y-112753750D02*
X66302500Y-113666250D01*
G75*
G02*
X66058750Y-113910000I-243750J0D01*
G01*
X65571250Y-113910000D01*
G75*
G02*
X65327500Y-113666250I0J243750D01*
G01*
X65327500Y-112753750D01*
G75*
G02*
X65571250Y-112510000I243750J0D01*
G01*
X66058750Y-112510000D01*
G75*
G02*
X66302500Y-112753750I0J-243750D01*
G01*
G37*
G36*
G01*
X64427500Y-112753750D02*
X64427500Y-113666250D01*
G75*
G02*
X64183750Y-113910000I-243750J0D01*
G01*
X63696250Y-113910000D01*
G75*
G02*
X63452500Y-113666250I0J243750D01*
G01*
X63452500Y-112753750D01*
G75*
G02*
X63696250Y-112510000I243750J0D01*
G01*
X64183750Y-112510000D01*
G75*
G02*
X64427500Y-112753750I0J-243750D01*
G01*
G37*
M02*
