M48
; DRILL file {KiCad (5.1.9)-1} date 04/03/21 20:33:08
; FORMAT={-:-/ absolute / inch / decimal}
; #@! TF.CreationDate,2021-04-03T20:33:08-05:00
; #@! TF.GenerationSoftware,Kicad,Pcbnew,(5.1.9)-1
; #@! TF.FileFunction,Plated,1,2,PTH
FMAT,2
INCH
T1C0.0157
T2C0.0197
T3C0.0394
T4C0.0402
T5C0.0433
T6C0.0630
%
G90
G05
T1
X0.9717Y-3.1098
X0.976Y-2.3949
X0.978Y-1.6827
X1.3384Y-1.8254
X1.348Y-2.5433
X1.3602Y-3.2602
X1.3933Y-4.6177
X1.6575Y-4.6169
X1.6858Y-1.4047
X1.7165Y-2.239
X1.7339Y-3.1244
X1.7575Y-1.8256
X1.7898Y-2.5413
X1.7909Y-2.2917
X1.7937Y-2.7815
X1.7937Y-2.9839
X1.7949Y-2.1917
X1.8311Y-1.6772
X1.8311Y-2.0315
X1.8311Y-3.4535
X1.8319Y-2.7425
X1.8701Y-1.9886
X1.8701Y-2.698
X1.8701Y-3.4087
X1.8717Y-1.6362
X1.9106Y-1.9524
X1.9106Y-2.6598
X1.9106Y-3.3717
X1.9114Y-1.7146
X1.9906Y-1.7563
X1.9906Y-1.8713
X1.9906Y-2.5819
X1.9906Y-3.2933
X2.2846Y-4.5563
X2.2874Y-4.5
X2.4421Y-4.4508
X2.4461Y-4.3492
X2.4461Y-4.4004
X2.4516Y-4.2276
X2.4528Y-4.1118
X2.4563Y-2.8933
X2.5004Y-2.0909
X2.5433Y-1.6071
X2.5445Y-1.8469
X2.6197Y-4.0425
X2.7126Y-4.2957
X2.7264Y-1.6772
X2.7264Y-1.8677
X2.7264Y-2.5791
X2.7264Y-3.2846
X2.7396Y-1.636
X2.7665Y-1.9071
X2.7665Y-2.6165
X2.7665Y-3.324
X2.8063Y-1.7142
X2.8063Y-1.9469
X2.8063Y-2.6583
X2.8063Y-3.3654
X2.8858Y-1.7563
X2.8858Y-2.0232
X2.8858Y-2.3917
X2.8858Y-2.7346
X2.8858Y-3.4413
X2.9122Y-3.0217
X2.9213Y-2.1512
X2.9961Y-3.1626
X3.0079Y-2.2925
X3.434Y-3.6958
T2
X0.9713Y-3.0339
X0.9713Y-3.1614
X0.9713Y-3.2024
X0.9752Y-1.6075
X0.9752Y-1.735
X0.9752Y-1.7724
X0.9752Y-2.3177
X0.9752Y-2.4453
X0.9752Y-2.4835
X1.0571Y-2.928
X1.061Y-1.5016
X1.061Y-2.2118
X1.1181Y-3.2654
X1.122Y-1.839
X1.122Y-2.5492
X1.1583Y-3.2657
X1.1622Y-1.8394
X1.1622Y-2.5496
X1.198Y-3.2661
X1.202Y-1.8398
X1.202Y-2.55
X1.2378Y-3.2661
X1.2417Y-1.8398
X1.2417Y-2.55
X1.2476Y-3.1106
X1.2488Y-3.0591
X1.2516Y-1.6843
X1.2516Y-2.3945
X1.2528Y-1.6327
X1.2528Y-2.3429
X1.2772Y-3.2657
X1.2811Y-1.8394
X1.2811Y-2.5496
X1.3323Y-2.9276
X1.3362Y-1.5012
X1.3362Y-2.2114
X1.3937Y-4.4031
X1.4205Y-3.0075
X1.4244Y-1.5811
X1.4244Y-2.2913
X1.4504Y-3.2252
X1.4508Y-3.0488
X1.4543Y-1.7988
X1.4543Y-2.5091
X1.4547Y-1.6224
X1.4547Y-2.3327
X1.6567Y-4.4039
X1.6843Y-1.4953
X1.6846Y-1.3287
X1.6846Y-1.4563
X1.7157Y-2.4539
X1.7335Y-2.9126
X1.7705Y-1.2228
X1.8043Y-4.2835
X1.8075Y-4.1843
X1.8315Y-1.5602
X1.8717Y-1.5606
X1.872Y-4.4197
X1.874Y-4.0449
X1.9114Y-1.561
X1.9122Y-4.5492
X1.9504Y-1.7941
X1.9504Y-1.9094
X1.9504Y-2.6185
X1.9504Y-3.3311
X1.9512Y-1.561
X1.961Y-1.4055
X1.9622Y-1.3539
X1.9906Y-1.5606
X2.0457Y-1.2224
X2.0807Y-4.0988
X2.0807Y-4.1496
X2.1339Y-1.3024
X2.1638Y-1.5201
X2.1642Y-1.3437
X2.2047Y-2.9929
X2.4957Y-1.3303
X2.4957Y-1.4579
X2.4957Y-1.4965
X2.5815Y-1.2244
X2.6425Y-1.5618
X2.6827Y-1.5622
X2.7224Y-1.5626
X2.7622Y-1.5626
X2.772Y-1.4071
X2.7732Y-1.3555
X2.8016Y-1.5622
X2.8453Y-3.3996
X2.8457Y-1.7941
X2.8457Y-1.9819
X2.8457Y-2.6921
X2.8567Y-1.224
X2.9449Y-1.3039
X2.9748Y-1.5217
X2.9752Y-1.3453
X2.9957Y-2.9508
X3.0051Y-2.0815
X3.2047Y-1.6043
X3.2047Y-1.7319
X3.2047Y-1.7701
X3.2067Y-3.022
X3.2067Y-3.1496
X3.2067Y-3.1886
X3.2091Y-2.3094
X3.2091Y-2.437
X3.2091Y-2.476
X3.2906Y-1.4984
X3.2925Y-2.9161
X3.2949Y-2.2035
X3.2957Y-3.563
X3.2965Y-3.4
X3.3516Y-1.8358
X3.3535Y-3.2535
X3.3559Y-2.5409
X3.3917Y-1.8362
X3.3937Y-3.2539
X3.3961Y-2.5413
X3.4315Y-1.8366
X3.4335Y-3.2543
X3.4358Y-2.5417
X3.4713Y-1.8366
X3.4732Y-3.2543
X3.4756Y-2.5417
X3.4811Y-1.6811
X3.4823Y-1.6295
X3.4831Y-3.0988
X3.4843Y-3.0472
X3.4854Y-2.3862
X3.4866Y-2.3346
X3.5106Y-1.8362
X3.5126Y-3.2539
X3.515Y-2.5413
X3.5657Y-1.498
X3.5677Y-2.9157
X3.5701Y-2.2031
X3.6539Y-1.578
X3.6559Y-2.9957
X3.6583Y-2.2831
X3.6839Y-1.7957
X3.6843Y-1.6193
X3.6858Y-3.2134
X3.6862Y-3.037
X3.6882Y-2.5008
X3.6886Y-2.3244
T3
X0.9764Y-3.5752
X1.0764Y-3.5752
X1.1764Y-3.5752
X1.3764Y-3.5752
X1.4764Y-3.5752
X1.5764Y-3.5752
X1.6764Y-3.5752
X2.7311Y-4.437
X2.7311Y-4.537
T4
X1.0693Y-2.8283
X1.0724Y-1.3996
X1.0736Y-2.1118
X1.1874Y-2.8283
X1.1906Y-1.3996
X1.1917Y-2.1118
X1.2185Y-4.2567
X1.3055Y-2.8283
X1.3087Y-1.3996
X1.3098Y-2.1118
X1.3366Y-4.2567
X1.4236Y-2.8283
X1.4268Y-1.3996
X1.428Y-2.1118
X1.7831Y-1.124
X1.9012Y-1.124
X2.0193Y-1.124
X2.0622Y-1.8919
X2.0622Y-1.9919
X2.0622Y-2.0919
X2.0622Y-2.1919
X2.0622Y-2.2919
X2.0622Y-2.3919
X2.0622Y-2.4919
X2.0622Y-2.5919
X2.0622Y-2.6919
X2.0622Y-2.7919
X2.0622Y-2.8919
X2.0622Y-2.9919
X2.0622Y-3.0919
X2.0622Y-3.1919
X2.0622Y-3.2919
X2.1374Y-1.124
X2.5937Y-1.1252
X2.6622Y-1.8919
X2.6622Y-1.9919
X2.6622Y-2.0919
X2.6622Y-2.1919
X2.6622Y-2.2919
X2.6622Y-2.3919
X2.6622Y-2.4919
X2.6622Y-2.5919
X2.6622Y-2.6919
X2.6622Y-2.7919
X2.6622Y-2.8919
X2.6622Y-2.9919
X2.6622Y-3.0919
X2.6622Y-3.1919
X2.6622Y-3.2919
X2.7118Y-1.1252
X2.8299Y-1.1252
X2.948Y-1.1252
X2.9902Y-4.1213
X2.9902Y-4.2394
X2.9902Y-4.3575
X2.9902Y-4.4756
X3.2959Y-4.1217
X3.2959Y-4.2398
X3.2959Y-4.3579
X3.2959Y-4.476
X3.3028Y-1.3988
X3.3031Y-2.815
X3.3071Y-2.1035
X3.4209Y-1.3988
X3.4213Y-2.815
X3.4252Y-2.1035
X3.539Y-1.3988
X3.5394Y-2.815
X3.5433Y-2.1035
X3.5981Y-3.9236
X3.6001Y-4.2681
X3.6571Y-1.3988
X3.6575Y-2.815
X3.6614Y-2.1035
X3.7162Y-3.9236
X3.7182Y-4.2681
T5
X3.563Y-3.3858
X3.563Y-3.6417
X3.7402Y-3.3858
X3.7402Y-3.6417
T6
X0.9661Y-4.1791
X1.3055Y-3.9996
X1.6083Y-4.2882
X1.6488Y-4.0669
X1.9106Y-3.8453
X2.1083Y-3.8465
X2.3063Y-3.8472
X2.5071Y-3.8453
X2.7039Y-3.8433
X2.9055Y-3.8472
X3.1051Y-3.8465
X3.3039Y-3.8472
T0
M30
